<svg xmlns="http://www.w3.org/2000/svg" width="4.6in" height="3.4in" viewBox="0 0 329.3 246.7"><path d="M154.8 44.1l-4.6 44.6 6.6-2.3 39.9 28.3c-1.3.8-2.7 1.5-4.1 2.2l-47.8-26.1-1.3-45 11.3-1.7m-23.1 3.8c-3.8.8-7.5 1.7-10.9 2.7l-.5 51.2 49.5 26.4 5.7-2.8-43-29.5-6.8 3.1 6-51.1m10.8-2l-9.8 1.8-.2 48.1 49.2 26.5 4.9-2.4-41.8-29.1-6.9 2.5 4.6-47.4m32.8-4.1l-9 1 2.1 39.7-6.6 2.2 3.4-41.8-9.4 1.1 1 42.4 46.4 24.9 4-2.1-38.6-26.7 43.8 23.9 3.9-2.2-36.5-25.6-6.7 2.4 2.2-39.2m10.5-1.1l-9.4 1 3.4 36.9 41.1 23 3.5-2.1L189.7 75l-5.8 2.1 1.9-36.4M64.7 77.5c-5.8 3.7-10.6 7.1-14 9.5l-1.4 61.1s-11.3 8.4-15.5 12.1-12 11.4-12 11.4v15s9.4-13.5 15.9-19.9 14.7-13.3 14.7-13.3l-1.5-2.3 52.1 24.6 5.8-5.6-45.2-31-7.1 5.9 8.2-67.5M79 68.8q-7.1 4-12.9 7.8l-2.5 62.5 52.9 23.9 6.1-5.2-44.4-30.1-7 5.4L79 68.8m117.4-29.1l-9.6.9 2.9 34.4 39.2 21.8 3.7-2.4-32.8-23-6.1 2.3 2.7-34m-76.7 11.2l-.8.2c-3.8 1.2-7.6 2.5-11.4 4l-1.2 54.3 50.9 25.1 6.1-3.1-43-29.6-7.4 3.8 6.8-54.7m-13.1 4.5c-4.4 1.8-8.8 3.8-13.1 5.8L92.3 118l-7.2 4.8 7.4-61.1c-4.3 2.1-8.6 4.4-12.6 6.6l-1.7 59.4 51.5 24.3 5.7-4.3-43.1-29.5 50.6 24.3q3-2 6-3.6l.4-.2-43-29.3-7.2 4.3 7.5-58.3m151.7-29.6c-2.7 1.2-5.4 2.3-8.3 3.3v19.7l24.4 5.5 3.8-6.4-18.4-5.5-4.8 3.3 3.3-19.9m-9.2 3.7c-2.9 1-5.8 2-8.9 2.9l-.2 21.8 28.1 9.1c1.2-1.5 2.3-3.1 3.3-4.6L250 48.8l-4.9 2.7 4-22M275.8 17c-2.2 1.3-4.7 2.7-7.3 4v14.6l-4.8 3.9 4.1-18.1c-2.7 1.4-5.6 2.7-8.6 4.1l.7 17 20.7 1.2c1.1-2.1 2.2-4.3 3.2-6.4l-15-1.9 16.9-2.2c.9-2 1.7-4 2.5-5.9l-11.5.8-3.5 3.3 2.6-14.4m-36.4 15.7l-4.1 1.2-5.3 1.2v24h-.1l31.7 12.1 3.2-3.7L240 54.2l-4.9 2.5 4.3-24M296 2.8s-1.3 1.2-4 3.3l-1.1 5.3-2.1 2.9 1.1-6.6-4.8 3.5-1.1 9-2.4 2.7 2.3-10.9-7.2 4.5v11.6l13.2-5 1.9-5.3-6.8 1.4 7.9-4.8A115.1 115.1 0 0 0 296 2.8m-88.8 35.7l-9.8 1.1 2.4 31.8 37.7 19.8 3.8-2.6-30.9-21.3-6.1 2.4 2.9-31.2m11.7-1.5l-10.8 1.4 2.3 28.9 35.1 18.3 2.6-2 1.4-1-29.6-19.2-5.3 2.2 4.3-28.6m10.2-1.7c-2.8.5-5.9 1.1-9.1 1.5v26.6h-.1l34.2 15.3 3.4-3.2-27.6-16.4-5.1 2.3 4.3-26.1"/><path fill-rule="evenodd" d="M316.2 195.6h.7l1.6 3.2h1.7l-1.9-3.3c1.3-.1 2.1-.6 2.1-2s-1.2-2.4-3.1-2.4h-2.7v7.7h1.6m0-4.6v-1.7h1.1c.5 0 1.3.1 1.3.8s-.3.9-1 .9zm1.1 7.8a6.8 6.8 0 0 0 7-7 7 7 0 1 0-14 0 6.8 6.8 0 0 0 7 7zm4.8-7a5 5 0 0 1-4.8 5.3c-2.6 0-4.7-2.2-4.7-5.3s2.1-5.3 4.7-5.3 4.8 2.1 4.8 5.3"/><path d="M238.6 214.9h-12.3v-3.1a2.6 2.6 0 0 0-2.7-2.9c-1.9 0-2.7 1.2-2.7 2.9v16.3c0 1.7.8 2.8 2.7 2.8a2.5 2.5 0 0 0 2.7-2.8v-3.7h12.3c0 7.5-2.4 13.6-15 13.6s-15.4-5.1-15.5-18.1 3.3-18 15.4-18 15.1 5.1 15.1 13m-108 22c8.2 0 10.6-4.4 10.6-8.7s-3.5-7.9-8.6-8.6c4.7-.9 7.9-2.9 7.9-8.4s-2.8-8.3-12.1-8.3h-19.9v2.1h.6l.9.4a2.3 2.3 0 0 1 1 1.8v29.5zm-4.7-13.9c1.5 0 2.6.9 2.6 3s-1 3.9-2.8 3.9h-2.5V223zm-2.7-13h2.5c1.5 0 2.5 1.4 2.5 3.1s-1 3.2-2.5 3.2h-2.5V210m23 26.9h23.3v-8.1h-10.8v-25.9h-15.1v2.1h.6l.9.4a2.2 2.2 0 0 1 1.1 2.1v29.2m-103 0h23.3v-8.1H55.7v-25.7H40.6v2.1h.6a2.5 2.5 0 0 1 .9.4 2.2 2.2 0 0 1 1.1 2.1v29.2m27 0h23.2v-8.1H82.7v-25.7H67.6v2.1h.6l.9.4a2.4 2.4 0 0 1 1.1 2.1v29.2m239.9-24.8c0-5.6-2.7-10.5-14.7-10.5-9.6 0-14.7 3.6-14.7 11.9 0 12.6 17.6 7.6 17.6 15.3a2.9 2.9 0 0 1-2.9 3 2.1 2.1 0 0 1-2.1-1.3 7.6 7.6 0 0 1-.5-3.3h-12.5c-.6 10 7.8 11.1 16 11.1s14.6-2.9 14.6-12c0-12.6-17.7-8.7-17.7-15.2a2.4 2.4 0 0 1 2.3-2.5c1.3 0 2 .3 2.4.9a5 5 0 0 1 .5 2.6h11.7m-118 13.1h-5l2.5-15 2.5 15zm-19.8 11.9h12.8l1-5.3h6.8l1 5.3h12.8l-8.6-34h-20.2v2.1h.6l.7.3c.6.4.8 1 .6 2.1l-7.5 29.4M24.8 225h-5l2.6-15 2.4 15zM5 236.9h12.9l.9-5.3h6.9l.9 5.3h12.8l-8.5-34H10.6v2.1h.6l.8.3a1.8 1.8 0 0 1 .5 2.1L5 236.9m235.7-34.1v2.1h.5l1 .4a2.1 2.1 0 0 1 1 2v29.3h12.5v-9.8l2.7-2.8 7 12.6h13.3l-12.1-21 12.6-13h-14.5l-8.9 9.5v-9.5h-15.1"/></svg>