<svg xmlns="http://www.w3.org/2000/svg" width="4.6in" height="3.3in" viewBox="0 0 329.3 237.9"><defs><clipPath id="a"><path fill="none" d="M-29.5-77.6h388.3v388.33H-29.5z"/></clipPath></defs><g fill="#373535" clip-path="url(#a)"><path d="M154.8 44.5l-4.6 42.8 6.6-2.3 40 27.2-4.2 2.1-47.8-25.1-1.4-43.1 11.4-1.6m-23.1 3.6c-3.9.8-7.5 1.7-11 2.6l-.5 49.1 49.6 25.3 5.7-2.7-43-28.3-6.9 3.1 6.1-49.1m10.8-1.9l-9.8 1.7-.2 46.2 49.2 25.4 4.9-2.3-41.8-28-6.9 2.5 4.6-45.5m32.8-3.9l-9 .9 2.1 38.1-6.6 2.1 3.4-40.1-9.4 1.1 1 40.6 46.5 24 4-2.1-38.7-25.6 43.8 22.9 3.9-2.1-36.5-24.5-6.7 2.2 2.2-37.5m10.5-1l-9.4.9 3.4 35.4 41.1 22 3.5-2-34.7-23.5-5.8 2 1.9-34.8M64.6 76.5c-5.8 3.6-10.6 6.8-14 9.2l-1.4 58.5s-11.3 8.1-15.5 11.7-12 10.8-12 10.8v14.5s9.4-13 15.9-19.2 14.7-12.7 14.7-12.7l-1.5-2.2 52.2 23.6 5.8-5.4-45.3-29.7-7 5.7 8.1-64.8m14.3-8.3q-7 3.9-12.9 7.5l-2.5 59.9 53 22.9c1.9-1.6 3.9-3.3 6.1-5l-44.4-28.9-7.1 5.2 7.8-61.6m117.5-27.9l-9.6.9 2.9 32.9L228.9 95l3.7-2.3-32.8-22-6.1 2.2 2.7-32.6M119.7 51l-.8.2c-3.8 1.1-7.6 2.4-11.4 3.8l-1.2 52.1 50.9 24.1 6.1-3-43.1-28.4-7.3 3.7 6.8-52.5m-13.1 4.4c-4.5 1.7-8.9 3.5-13.1 5.5l-1.3 54.5-7.2 4.5 7.5-58.5q-6.6 3-12.6 6.3l-1.7 57 51.5 23.2c1.8-1.4 3.7-2.8 5.7-4.1l-43.2-28.3 50.7 23.4a62.1 62.1 0 0 1 6-3.5l.4-.2-43-28.1-7.3 4.1 7.6-55.8M258.4 27l-8.4 3.2V49l24.3 5.3c1.4-2.1 2.7-4.1 3.9-6.2l-18.5-5.2-4.6 3.1 3.3-19m-9.3 3.5c-2.8 1-5.8 1.9-8.8 2.8l-.2 20.9 28.1 8.7 3.3-4.4-21.4-9.5-4.9 2.6 3.9-21.1m26.8-12c-2.2 1.3-4.7 2.6-7.3 3.8v14.1l-4.8 3.7 4-17.4c-2.6 1.4-5.5 2.6-8.5 3.9l.6 16.3 20.8 1.2 3.2-6.1-15.1-1.8 17-2.1 2.5-5.7-11.5.7-3.5 3.2 2.7-13.8m-36.5 15l-4.1 1.2-5.2 1.1v23l31.6 11.6 3.3-3.6-25-12.6-5 2.3 4.3-23m56.7-28.7a39.1 39.1 0 0 1-4 3.3l-1.1 5.1-2.1 2.7 1.1-6.3c-1.3 1-3 2.1-4.8 3.3l-1.1 8.7-2.4 2.6 2.2-10.5c-2.1 1.4-4.5 2.8-7.1 4.3v11.1l13.2-4.8c.7-1.7 1.3-3.4 1.9-5l-6.9 1.3 7.9-4.6a103.7 103.7 0 0 0 3.2-11.2m-88.8 34.3l-9.8 1.1 2.3 30.5 37.8 18.9 3.7-2.4-30.9-20.5-6 2.3 2.9-29.9m11.7-1.4L208.2 39l2.2 27.7 35.2 17.5 2.6-1.8 1.3-1L219.9 63l-5.3 2.1 4.4-27.4m10.1-1.7c-2.8.6-5.8 1.1-9.1 1.5V63h-.2L254 77.6l3.4-3L230 58.9l-5.1 2.2 4.2-25.1"/><path fill-rule="evenodd" d="M316.4 189.8h.6l1.6 3h1.7l-1.8-3.2c1.2 0 2-.5 2-1.9s-1.1-2.2-3.1-2.2h-2.7v7.3h1.7m0-4.4v-1.6h1c.5 0 1.3 0 1.3.7s-.3.9-.9.9zm1 7.5c3.7 0 7.1-2.5 7.1-6.7a6.8 6.8 0 0 0-7.1-6.8 6.8 6.8 0 1 0 0 13.5m4.8-6.7a4.8 4.8 0 0 1-4.8 5 4.7 4.7 0 0 1-4.7-5c0-3.1 2.1-5.1 4.7-5.1a4.8 4.8 0 0 1 4.8 5.1"/><path d="M238.6 208.2h-12.3v-2.9c0-1.7-.8-2.8-2.7-2.8a2.5 2.5 0 0 0-2.7 2.8v15.6a2.5 2.5 0 0 0 2.7 2.7 2.4 2.4 0 0 0 2.7-2.7v-3.6h12.3c0 7.3-2.3 13.1-15 13.1s-15.4-4.9-15.4-17.3 3.3-17.3 15.4-17.3 15 4.9 15 12.4m-108 21.2c8.2 0 10.6-4.3 10.6-8.4s-3.6-7.5-8.7-8.2c4.8-.9 8-2.8 8-8.1s-2.8-7.9-12.2-7.9h-19.9v2h.6a1.6 1.6 0 0 1 .9.3 2.1 2.1 0 0 1 1.1 1.8v28.3zm-4.7-13.3c1.5 0 2.6.8 2.6 2.8s-1 3.7-2.9 3.7h-2.5v-6.5zm-2.8-12.6h2.5c1.6 0 2.6 1.4 2.6 3.1a2.7 2.7 0 0 1-2.6 3h-2.5v-6.1m23.1 25.9h23.3v-7.8h-10.8v-24.8h-15.1v2h.6l.9.3a2.3 2.3 0 0 1 1.1 2v28.1m-103.1 0h23.3v-7.8H55.7v-24.6H40.6v2h.5l1 .3a2.4 2.4 0 0 1 1 2v28.1m27 0h23.3v-7.8H82.6v-24.6H67.5v2h.6l.9.3a2.3 2.3 0 0 1 1.1 2v28.1m240.1-23.8c0-5.4-2.7-10.1-14.7-10.1-9.6 0-14.7 3.4-14.7 11.4 0 12.1 17.6 7.3 17.6 14.7a2.8 2.8 0 0 1-2.9 2.9 2.2 2.2 0 0 1-2.1-1.2 7.4 7.4 0 0 1-.5-3.2h-12.5c-.6 9.5 7.8 10.6 16 10.6S311 227.7 311 219c0-12.1-17.7-8.4-17.7-14.6a2.3 2.3 0 0 1 2.3-2.4c1.3 0 2 .3 2.4.9a4.4 4.4 0 0 1 .5 2.5h11.7M192.1 218h-5l2.6-14.5zm-19.8 11.4h12.9l.9-5.1h6.9l.9 5.1h12.8l-8.5-32.6h-20.3v2h.6l.7.3c.6.3.8.9.6 1.9l-7.5 28.3M24.7 218h-5l2.6-14.5zM4.9 229.4h12.9l.9-5.1h6.9l.9 5.1h12.8l-8.5-32.6H10.5v2h.6l.7.3c.6.3.8.9.6 1.9l-7.5 28.4m235.8-32.8v2.1h.6l.9.3a2.3 2.3 0 0 1 1.1 2v28.1h12.6v-9.4l2.7-2.7 7 12.1h13.2L266.7 209l12.7-12.4h-14.7l-8.9 9v-9h-15.1"/></g></svg>