<svg xmlns="http://www.w3.org/2000/svg" width="2.6in" height="3.9in" viewBox="0 0 189.2 282.4"><path fill="#fff" d="M73.7 45.5a8.2 8.2 0 0 0 3-2.9c1.8-2.6 3-6.5 3-11.5s-1.3-11.9-4.9-19.5a44.4 44.4 0 0 0-1.9-4.3c28 5.2 33.4 22.4 35.7 30.8 1 3.4 1.5 5.4 2.7 6.2a4.5 4.5 0 0 0 3.8.2c3.7-1 7.4-6.4 9.4-10.7 0 0 1.6-2.9 2.6-5.1a38.4 38.4 0 0 1 2.2 12.8v.4c-.1 9.2-2.8 17.3-5.2 24.5l-.4 1.4-.8 2.1c-1 2.9-1.9 5.4-1.9 7a2.4 2.4 0 0 0 .7 1.9 1.7 1.7 0 0 0 1.1.3c.9-.2 1.7-1.4 2.9-3.6a33.9 33.9 0 0 1 8.1-9.9c3.7-3 8.5-3.7 10.5-3.9a33.5 33.5 0 0 0-1.7 8.7 3.9 3.9 0 0 0 .9 3c.6.7 2 .7 3.7 0 4.3-1.6 11.7-7.8 13.4-20.8l2.9 4.2a40.1 40.1 0 0 1 6 21.8 75.2 75.2 0 0 1-2.6 18.1l-.2.7a17.1 17.1 0 0 0-.8 4.3 2.3 2.3 0 0 0 .8 2 5.1 5.1 0 0 0 4.3.7c4.1-.8 8.5-5 11-8.6v.6a42.9 42.9 0 0 1-4.2 19.5c-6.1 12.2-16.9 18.3-24.7 22.7l-2.3 1.3-1.9 1c-4.1 2.3-6.6 3.8-6.8 5.1v.3c.8 2.9 9.1 3.6 18.9 1.4l6.1-1.3c-.7 1.1-1.6 2.6-3.5 5.3-7.3 10.4-23.4 12.4-31.9 11.1l-2.2-.3 3.4 3.4c2.3 2.4 5.7 5.8 9.2 8.8-8.1-.6-17.5-4.4-22.3-8h-.2l-6.4-1.3-1.9-.5a85.8 85.8 0 0 1-12.1-3.5l-.8-.3v.9a205.3 205.3 0 0 1-2.8 22.6c-4.7 24.2-8.4 25.6-9.8 26.1s-4.5-1.1-5.8-3.2a6.9 6.9 0 0 0-1.2-1.6 7.5 7.5 0 0 1-3.5-6.6 13.9 13.9 0 0 1 .5-3.3 30.8 30.8 0 0 1 3.4-6.9c1.9-3.4 4.1-7.2 5.1-10.9a144.6 144.6 0 0 0 3.4-14.7l.3-1.2-1.2.4a79.1 79.1 0 0 1-12.8 3.4c-6.9 1.1-11.8 1.3-14.3 1.5 3.4-2.9 4.1-3.7 4.1-4.2v-.3a1.1 1.1 0 0 0-.9-.5c-1.8 0-10-.7-14.7-2.6s-11.3-1.4-16.8.9c2.1-8.5 7.2-10.5 11.4-12.1l1.7-.7 1.1-.4a15.5 15.5 0 0 0 4.3-2.2 1.6 1.6 0 0 0 .5-1.1v-.2c-.4-1.9-4.6-3.7-12.2-6.4h-.4c-13.1-4.6-29.3-10.4-30.6-30.9v-4.7c9.5 6.7 15.5 8.2 16.6 7.6s-.3-4.3-2.3-7.5C13 88 11 71.5 18.3 63.7 24.1 76.1 28.8 79 33 77.7c2.1-.7 8.8-4 6.2-15.8l5.7 5 1.1 1 .4-.7a28.8 28.8 0 0 1 5.6-6.5l.5-.4-2.2-2.6A20 20 0 0 1 46 45.8a12.7 12.7 0 0 1 .3-2.8 11 11 0 0 1 5.1-7.4c4.4-2.5 11-1.5 15.8 2.4a19.8 19.8 0 0 1 5.6 7.3l.3.6"/><path fill="#010101" d="M97.1 208.1H96v-4.2h-1.5v-.9h4.1v.9h-1.5m7 4.2h-1v-4.3l-1 4.3h-1l-.9-4.3v4.3h-1V203h1.5l.9 4 .9-4h1.6"/><path fill="#b22c1b" d="M179.9 101.4c-5.5 5.8-16.7 7.9-16.6.5 0-5.8 9.5-25.6-1.9-43.7a24.7 24.7 0 0 1-9.5 14.8c-4.4 3.5-15 7.7-10.5-9-5.7 1.1-10.1 6-16.6 16.4-1.6 2.6-7.1 1.7-5.8-4.7s9.8-24.8 7.2-40.2c-3.5 8.3-10.2 12.5-14.8 11.6-8.1-1.6-1.4-27.2-34.3-36.6 11.3 24.1 1.8 38.7-6.2 38.2a.4.4 0 0 0 .1.3 19.8 19.8 0 0 1 .7 4 39.7 39.7 0 0 1 20.5 3.2c15 6.7 22.8 20.6 18 31.3a11.6 11.6 0 0 1-1.4 2.4c2.6 3.7 4.6 10.3 5.2 18a52 52 0 0 1-1.3 14.9 173.1 173.1 0 0 1 11.9 19.7 128.3 128.3 0 0 1 7.4 17.8c6.4.9 21.8-.2 29.6-10.2-8.7 2-20.4 2.7-22-3.1-2.5-9.1 34.6-12.8 40.3-45.6"/><path fill="#010101" d="M60.3 63.5c1.1 3.2 5.3 5.4 5.3 5.4s.2-2.4 3.5-2.8a19.8 19.8 0 0 1-8.8-2.6M86.5 68c-.2.2-.5.6-.6.3a2.4 2.4 0 0 1-.2-.8 2 2 0 0 0-.7-1 2.2 2.2 0 0 1-.1.8c-.2.2-.4.6-.6-.2s-.3.7-.4 1-.3.2-.4-.1a8 8 0 0 0-.4-1.8c0 .3-.2.7-.4.7s-.5-1-2.1-.9a1.5 1.5 0 0 1 .6 1.6c-.2.2-.6.1-.6.1a4.4 4.4 0 0 0 1 1.2c.1.2.1.5-.3.4l-1-.3s.2.4.1.5a1 1 0 0 1-1.2-.2 2.3 2.3 0 0 0 .5 1c.3.3.7.5.6.7s-.5.1-.7.1.7.6 1.4.7.9-.1 1.1.1-.5.5-.6.8l.5-.2h.9c.2-.1 0 .2 0 .2l.7-.5.3-.3a4.4 4.4 0 0 0 .2 1c0 .3-.1.7-.1.9a.2.2 0 0 0 .2.2c.1 0 .2.2.3.1s0-.5-.1-1.1-.3-1-.3-1.2h.7l.7-.2h.2c-.2 0-.2-.1-.2-.1s1-.3 1.2-1-.8.5-1 .3 1.1-1.3.8-2.6"/><path fill="#fff" d="M24.7 242c-4.3-.2-7.9.8-10.3 2.7s-3.3 5.8-3.3 8.8v10.4c0 3.3 0 7 3.2 10s6.1 3.2 10.6 3 8.6-1.4 11.2-3.6l.9-.7v-13.2H24.9V258H37v-11.8l-1.1-.7a21.5 21.5 0 0 0-11.2-3.5"/><path fill="#fff" d="M64.4 265.6c0-.1-4.1-20.1-4.6-22.8h1v-8.3l-.9-.3a1.8 1.8 0 0 1-.1-.5v-1.4a7 7 0 0 0-1.2-4.2 8.5 8.5 0 0 0 1.7-5.6c0-4.4-2.1-6.5-3.9-7.5s-4.9-1.3-6.9-1.3H36.4v8l.8.5v12.1l-.8.5v8h6.5l-4.2 22.3v.7c-.1.3-.2 1-.3 1.2l-.7.6-.3 1.2v7.6h28.5v-9.3l-1.2-.4a3.9 3.9 0 0 1-.3-1.1"/><path fill="#fff" d="M147.6 244.7a10 10 0 0 0-4.4-1.9h9.3v-8l-.8-.5v-2.9c.4-.9 4.2-8.2 4.2-8.2s.3-.7.6-.9l1-.7v-7.9h-23.9v5.2a7.6 7.6 0 0 0-3.1-3.9c-2.1-1.3-4.7-1.3-6.8-1.3h-13.6v8.2l1 .4v11.8l-1 .4v7.9h-6.5a11.9 11.9 0 0 0 4.6-2.4l.7-.8v-22l-.9-.7a17.5 17.5 0 0 0-10.9-3.3c-3.4 0-6.1.8-8 2.4s-2.8 5.1-2.8 7.6v9.3c0 2.5 0 5.9 3.2 8.6a6.2 6.2 0 0 0 2.5 1.4H78.4a6.6 6.6 0 0 0 2.8-1.6c2.8-2.4 3.1-5.3 3.2-8.2v-10.4l.9-.5v-8.2H61.2v8.1l.8.5v10.4c.1 3 .4 5.9 3.2 8.3a6.6 6.6 0 0 0 2.8 1.6h-1.6v8.8l1 .7v14.9l-.9.6v8.9h27V252l.9-.6v-8.3a15.1 15.1 0 0 0 3 .2 15.1 15.1 0 0 0 3-.2c-.7 3.6-4.1 22-4.1 22v.6a4 4 0 0 1-.4 1.3l-.6.6-.3 1.2v7.6h44c3.1 0 6.3-.2 9-2.8s3.1-6.2 3.1-8.9v-10.9c0-2.2 0-6.4-3.5-9.1M125 266.5a.4.4 0 0 0-.1.3l-1.3.5v-.2l-1.3-.4a4.5 4.5 0 0 0-.3-1.1c0-.1-4-20.1-4.5-22.8h6.3v8.8l1.1.5a1 1 0 0 0 .1.4v14zm14.3-32.2l-.8.5v7.7h-10.7a7.6 7.6 0 0 0 3.7-1.6c1.9-1.6 3-4.1 3-7.4a8.5 8.5 0 0 0-2.1-5.9 8.1 8.1 0 0 0 1.7-5.4v-.3l.5.4a3 3 0 0 1 .5 1l.3.6 3.9 8v2.4zm39.3 32.4a4.5 4.5 0 0 0-.3-1.1l-4.6-23.1h-16.8l-4.2 22.6v.7a4.2 4.2 0 0 1-.4 1.2l-.6.6-.3 1.2v7.6H180v-9.3l-1.3-.4"/><path fill="#010101" d="M47.2 221.1h.8c1.6 0 2.1.8 2.1 2.4s-.5 2.6-2.1 2.6h-.8m0 4.8h.3c2.1.1 2.3 1.1 2.3 3a23.7 23.7 0 0 0 .4 6.6h8.2v-4.4c-.9-.3-.9-1.5-.9-2.4v-1.4c0-2.4-.8-3.5-3.2-4 2.8-.7 3.6-3 3.6-5.7a6 6 0 0 0-2.7-5.5c-1.6-1-4-1-5.9-1H38.8v4.4c.9.5.8 1.4.8 2.4v10.9c0 .9.1 1.9-.8 2.4v4.4H48v-4.4c-.9-.5-.8-1.5-.8-2.4V231zM74.1 216h8.8v4.4c-1 .5-.9 1.4-.9 2.4v9.9c-.1 2.5-.3 4.6-2.3 6.4s-4.3 1.8-6.5 1.8-4.7-.2-6.5-1.8-2.3-3.9-2.3-6.4v-9.9c0-1 .1-1.9-.8-2.4V216h9.2v4.4c-.9.5-.8 1.4-.8 2.4v11.1a1.5 1.5 0 1 0 3 0v-11.1c0-1 .1-1.9-.9-2.4m32.5 4.1h-7.4v-.5c0-1.1.3-3.2-1.4-3.2s-1.5 1.4-1.5 2.4v10.9a1.5 1.5 0 0 0 1.5 1.6c1.7 0 1.4-2.1 1.4-3.2v-1.1h-1.3v-4.8h8.7v11.7c-2.4 2.2-6 2.6-9.2 2.6s-4.7-.1-6.4-1.6-2.4-4.1-2.4-6.8v-9.3c0-2.2.3-4.3 2.1-5.7s4.2-2 6.4-2a15.5 15.5 0 0 1 9.5 2.9m14.5 2.7h.5c1.6 0 2.6.4 2.6 2.2s-.9 2.2-2.6 2.2h-.5m2.8 15c2.2 0 4.4-.1 6.1-1.5s2.1-3.5 2.1-5.5-1.1-5.4-4.2-5.8c2.7-.8 3.8-2.7 3.8-5.5s-.6-4.1-2.4-5.2-3.8-1-5.7-1h-11.1v4.4c.9.3 1 1.1 1 1.9v11.9c0 .8-.1 1.6-1 1.9v4.4zm-2.8-10.4h.7c1.8 0 2.5.7 2.5 2.6s-.7 2.7-2.5 2.7h-.7v-5.3zm16.4-7.3a4.5 4.5 0 0 0-1.6-2.4V216h8.8v3.2a8 8 0 0 0 1.4 4.5 8.8 8.8 0 0 0 1.4-4.5V216h7.6v4.4a3.3 3.3 0 0 0-1.3 1.7l-4.5 8.7v2.9c0 .9-.1 1.9.8 2.4v4.4h-9.2v-4.4a1.6 1.6 0 0 0 .7-1.1 5.3 5.3 0 0 0 .1-1.3v-2.4"/><path fill="#b22c1b" d="M25.9 253.8c0-1.1.2-3.2-1.7-3.2s-1.6 2.1-1.6 3.2v11.3c0 1.2-.3 3.2 1.6 3.2s1.7-2 1.7-3.2v-3.3h8.7v9.7c-2.3 1.9-6.1 3-9.8 3.1s-7.1-.7-8.9-2.4-2.4-5.4-2.4-8.6v-10.1c0-2.6.3-5.2 2.5-6.9s5.1-2.4 8.6-2.2a19.9 19.9 0 0 1 10 3.1v8.1h-8.7m26.3 5.1l-1.5-8.6-1.5 8.6m.5 13.3h-10v-5.2c1-.6 1.1-2.1 1.4-3.2l3.8-20.7h12.9L62 266c.2.9.5 2.5 1.6 2.8v5.2H52.1v-5.2a1.5 1.5 0 0 0 1.1-1.6 2.4 2.4 0 0 0-.2-.8h-4.3a3.1 3.1 0 0 0-.2.8 1.5 1.5 0 0 0 1.2 1.6v5.2zm34-16h.1v-5.1c0-1.1.1-2.1-1-2.8v-5.2h9.3v5.2c-1.1.7-1 1.7-1 2.8V274h-8.8l-5.4-13.1v5.1c0 1.1-.1 2.2.9 2.8v5.2h-9v-5.2c1.1-.6 1-1.7 1-2.8v-13.1c0-1.1.1-2.1-1-2.8v-5.2h9.8m28.3 15.8l1.4-8.6h.1l1.5 8.6m-2.5 8.1a1.5 1.5 0 0 1-1.2-1.6c0-.2.1-.5.1-.8h4.4a2.2 2.2 0 0 1 .1.8 1.5 1.5 0 0 1-1 1.6v5.2h11.4v-5.2c-1-.3-1.3-1.9-1.5-2.8l-4.2-21.1h-12.9l-3.9 20.6c-.2 1.2-.3 2.7-1.3 3.3v5.2h10v-5.2zm29-17.5h.7c2 0 2.6.7 2.6 2.8V265c0 2.1-.6 2.9-2.6 2.9h-.7m-10.2-23v5.2c1 .4 1.1 1.3 1.1 2.3v14.1c0 1-.1 1.9-1.1 2.3v5.2H139c2.7 0 5.3-.2 7.4-2.1s2.3-4.3 2.3-7.2v-10.9c0-2.7-.2-5.4-2.6-7.2s-4.9-1.7-7.4-1.7zM176 266l-4.2-21.1h-12.9l-3.9 20.6c-.2 1.2-.3 2.7-1.3 3.3v5.2h10v-5.2a1.5 1.5 0 0 1-1.2-1.6c0-.2.1-.5.1-.8h1.6c-.1-.1-.1-.2 0-.4a2.5 2.5 0 0 1 .5-.8 7.1 7.1 0 0 0 .6-2.6l-.8.4a8 8 0 0 1-1.6.3s.5-.4.2-.4l-1.6-.3a4 4 0 0 0-1.1 0c.4-.6 1.6-.7 1.5-1.1s-1.3-.6-1.8-.9a3.3 3.3 0 0 1-1.9-2.3c.4.2 1.1.6 1.4.4s-.2-.9-.5-1.6a3.3 3.3 0 0 1-.2-2.1 1.6 1.6 0 0 0 1.8 1c.4-.1.3-1.1.3-1.1l1.6 1.5c.6.5.9 0 .7-.5s-.4-1.2-.6-2.1-.1-.4-.1-.7.7.5 1.1.2 1.3-1.1.3-3.1c2.8 1 2.3 2.9 3 3.1s1-.5 1.2-1a22.1 22.1 0 0 1-.6 3.4c-.1.7.4.7.5.4s1.2-1.5 1.4-1.4.6 1.1.9.8a2.8 2.8 0 0 0 .9-1.3 3.5 3.5 0 0 1 .4 2.2c0 .4-.3 1.1-.3 1.6s.8.1 1.5-.1c-.5 2.5-3.7 3.1-3.5 3.9s1.1.3 1.9.3a3.8 3.8 0 0 1-2.7.9s-.1.1.2.4h-.5l-1.3-.4-1.4-.4a10.6 10.6 0 0 1-.6 3.8h2a2.2 2.2 0 0 1 .1.8 1.5 1.5 0 0 1-1 1.6v5.2h11.4v-5.2c-1-.3-1.3-1.9-1.5-2.8"/><path fill="#010101" d="M98.8 81.1a3.1 3.1 0 0 1-.2.8 18.1 18.1 0 0 1 3.3 2.6c2.8-7.8-3-17.9-11.1-23.3 4.7 3.2 9 13.8 8 19.9m20.6 73.7c-16.5-20-24.7-41-21.3-52.2-5.6 5.1-6.5 16.4-2.4 28.2 0 0-12.6-10.9-18.3-26.2a35.3 35.3 0 0 0 7.8-1.3 34.4 34.4 0 0 0 10.5-5.2c3.6-.8 6.2-2.5 7.1-5.1a5.3 5.3 0 0 0 .1-2.8 5.2 5.2 0 0 1-.2 1.1c-1.6 4.7-9.7 6.4-18.1 3.8S69.7 86.8 71.3 82s6.6-5.4 12.3-5.1c-8.3-1.4-15.4.6-16.9 5.1s4.8 12.1 14.8 15.1a21.3 21.3 0 0 0 4 1c-13.5 3.2-28.3-4.5-33.1-16.6-3.1-7.7-.4-14.9 5.1-20.5 3.9 2.4 8.3 3.1 11.5 1.4a8.6 8.6 0 0 0 1.8-1.4 5.3 5.3 0 0 1-1.5.8c-4.8 1.9-11.4-1.3-14.9-7.3S51.7 41.1 56.9 39c2.8-1.2 6.1-.6 9.1 1.2-4.3-3.4-9.5-4.6-13.3-2.4-5.5 3.2-5.4 11.7-.4 18.4a20.8 20.8 0 0 0 4.3 4.1A26 26 0 0 0 46.8 72l-5-4.4C43 76.2 29 91.1 18 68.2c-2.5 3.2-2.4 15.4 1.7 24.7s9.4 15.2 6 18.5-11.5-1.6-15.9-4.7c1.4 29.8 41.4 26.5 43.5 37.7.9 5.2-15.1 6.5-17.8 12.7 2.8-1.5 8.6-1.5 13.6.5s13.2 2.3 17.1 2.6-1.7 5-1.7 5 12.3-1.6 18.5-3.7a56.6 56.6 0 0 0 8.1-3.5 187.2 187.2 0 0 1-4.4 20.8c-2 7-7.6 14.1-8.5 17.8s0 5.8 1.9 7 2.8 5.2 4.7 4.6 5.7-11.1 8.2-24.2a214.3 214.3 0 0 0 3.1-26.7 85.4 85.4 0 0 0 15.7 5c2.1.5 5.3 1.3 8.9 1.9a47.4 47.4 0 0 0 16.9 8.6c-7.6-5.5-11.1-9.4-18.2-18"/><path fill="#010101" d="M85.3 80.7h-1.6c-.7-1.1-1.9-1.8-2.4-1.7a7.1 7.1 0 0 1 1.5 1.8c-3.6.1-6.6.7-8.5 1.9a29.8 29.8 0 0 1 9-1 7.6 7.6 0 0 1 .9 2.5 2.8 2.8 0 0 0 .1-2.5h1.6a9 9 0 0 1 .9 2.6c.4-.3.5-1.3.1-2.5h.7l1 .2a6.9 6.9 0 0 1 1 2.7c.4-.3.5-1.4.1-2.6l1.8.4a8.2 8.2 0 0 1 1 2.7 2.9 2.9 0 0 0 .1-2.5 31.1 31.1 0 0 1 7.9 3c-1.7-1.7-4.8-3.2-8.5-4.1a3.9 3.9 0 0 0-2.4-1.6l1.2 1.4-1.8-.3c-.8-1-1.8-1.6-2.3-1.5a7.7 7.7 0 0 1 1.2 1.3h-1.6c-.8-1.1-1.9-1.8-2.4-1.7a11.4 11.4 0 0 1 1.4 1.6M74.9 69.4a.9.9 0 0 1-.9 1 .9.9 0 0 1-1-1 1 1 0 0 1 1-1 1 1 0 0 1 .9 1"/><path fill="#010101" d="M73.8 53.8c.9 3.8.2 6.9-1.7 8.9s-1.1 7.6 1 9.5c-1.8-3.7-1.5-7.5.8-9.3a8 8 0 0 1 3.6.7 14.1 14.1 0 0 0-3.7-9.8"/></svg>