<svg xmlns="http://www.w3.org/2000/svg" width="2.6in" height="4in" viewBox="0 0 189.2 289.6"><path fill="#fff" d="M71.5 41a11.7 11.7 0 0 0 3.3-3.1A23 23 0 0 0 78 25.5c0-5.7-1.5-12.8-5.3-21-.1-.1-1-2.4-2-4.5 30 5.5 35.9 24 38.3 33 1 3.7 1.6 5.8 2.9 6.7a5.2 5.2 0 0 0 4.1.2c4-1.1 7.9-6.8 10.1-11.4 0 0 1.6-3.2 2.7-5.6a40.7 40.7 0 0 1 2.4 13.8v.4c-.1 9.9-3 18.7-5.5 26.4l-.5 1.4-.8 2.3c-1.2 3.2-2.1 5.8-2.1 7.6a2.4 2.4 0 0 0 .7 1.9 1.7 1.7 0 0 0 1.2.4c1-.2 1.9-1.6 3.2-3.8s4.3-7.4 8.6-10.7a22.6 22.6 0 0 1 11.3-4.2c-.6 2.1-1.8 6.2-1.8 9.3a5.2 5.2 0 0 0 .9 3.3c.8.7 2.2.7 4.1 0 4.6-1.7 12.5-8.4 14.4-22.4l3.1 4.6a43.3 43.3 0 0 1 6.5 23.3 79 79 0 0 1-2.9 19.5l-.2.7a21.2 21.2 0 0 0-.8 4.6 2.5 2.5 0 0 0 .8 2.2c1.5 1.3 3.7 1 4.6.8 4.4-.8 9.2-5.4 11.9-9.2v.6a46.5 46.5 0 0 1-4.6 20.9c-6.5 13.1-18.1 19.6-26.6 24.4l-2.3 1.3-2.1 1.2c-4.4 2.5-7.1 4-7.4 5.4v.4c.9 3.1 9.9 3.8 20.4 1.4l6.5-1.4c-.7 1.2-1.7 2.8-3.8 5.8-7.8 11.2-25.1 13.2-34.2 11.9l-2.4-.3 3.7 3.7c2.5 2.5 6.1 6.1 9.9 9.4-8.7-.7-18.8-4.7-24-8.6h-.2l-6.8-1.4-2.2-.5a102.8 102.8 0 0 1-12.9-3.8l-.9-.3v.9a223.9 223.9 0 0 1-3.1 24.3c-5 26-9 27.5-10.6 28s-4.7-1.1-6.2-3.4a6.7 6.7 0 0 0-1.2-1.8 7.9 7.9 0 0 1-3.7-7 14.5 14.5 0 0 1 .4-3.5 39.2 39.2 0 0 1 3.7-7.5c2-3.6 4.4-7.7 5.5-11.7s2.6-10.4 3.7-15.8l.2-1.3-1.2.5a88.3 88.3 0 0 1-13.7 3.7 125.2 125.2 0 0 1-15.3 1.6c3.6-3.1 4.4-3.9 4.4-4.4s0-.3-.1-.3-.2-.6-.9-.6-10.8-.9-15.8-2.9-12.2-1.5-18 1c2.2-9.2 7.7-11.4 12.2-13l1.9-.8 1.1-.5a15 15 0 0 0 4.6-2.3 1.4 1.4 0 0 0 .6-1.1.4.4 0 0 0-.1-.3c-.3-2-4.9-3.9-13-6.8l-.5-.2c-14-5-31.5-11.1-32.8-33.2-.1-1.1-.1-2.3-.1-3.3v-1.7c10.3 7.2 16.7 8.9 17.9 8.2s-.3-4.7-2.4-8.1C6.3 86.7 4.1 69 12 60.5c6.2 13.4 11.2 16.4 15.8 15.1 2.2-.7 9.4-4.3 6.6-17l6.2 5.4 1.1 1 .5-.7a32.8 32.8 0 0 1 6-7l.6-.5-2.4-2.7a21.4 21.4 0 0 1-4.6-12.8 28.3 28.3 0 0 1 .2-3 11.5 11.5 0 0 1 5.5-7.9c4.7-2.7 11.9-1.7 17 2.5a21.4 21.4 0 0 1 6 7.8l.3.7"/><path d="M96.6 215.6h-1.2v-4.5h-1.6v-.9h4.4v.9h-1.6m7.5 4.5h-1v-4.5h-.1l-1 4.5h-1.1l-1-4.5v4.5h-1.1v-5.4h1.7l1 4.3 1-4.3h1.6"/><path fill="#b22c1b" d="M185.5 101c-5.9 6.3-17.9 8.5-17.8.6.1-6.2 10.3-27.5-2-47a26.8 26.8 0 0 1-10.2 16c-4.7 3.7-16.1 8.2-11.3-9.7-6.1 1.1-10.9 6.4-17.8 17.6-1.7 2.8-7.6 1.8-6.2-5.1s10.5-26.6 7.7-43.1c-3.8 8.8-10.9 13.3-15.9 12.4-8.7-1.7-1.5-29.2-36.9-39.3 12.1 25.9 2 41.6-6.7 41l.2.3a24.1 24.1 0 0 1 .8 4.4 41.5 41.5 0 0 1 22 3.4c16.1 7.2 24.5 22.2 19.3 33.6a13.5 13.5 0 0 1-1.5 2.6c2.8 4 5 11.1 5.6 19.3a51.8 51.8 0 0 1-1.5 16 171.7 171.7 0 0 1 12.9 21.2 161.7 161.7 0 0 1 8 19.1c6.8 1 23.3-.2 31.7-10.9-9.3 2.1-21.9 2.8-23.6-3.4-2.7-9.8 37.2-13.7 43.2-49"/><path d="M57.1 60.3c1.1 3.5 5.7 5.9 5.7 5.9s.2-2.7 3.8-3.1a20.9 20.9 0 0 1-9.5-2.8m28.2 4.9c-.3.2-.6.6-.7.3a3.2 3.2 0 0 1-.3-.9c-.2-.5-.3-.8-.7-1a1.1 1.1 0 0 1-.1.8c-.1.3-.4.6-.7-.2s-.3.8-.3 1.1-.3.2-.4-.2a10.5 10.5 0 0 0-.5-1.9 1 1 0 0 1-.4.8c-.4.1-.6-1.1-2.2-1 .9.8.6 1.6.5 1.7s-.6.1-.6.1c.3.5.9 1.1 1 1.3s.2.5-.2.4l-1.1-.4s.2.4.1.5a.9.9 0 0 1-1.3-.1 2.4 2.4 0 0 0 .6 1.1c.3.3.7.5.6.7s-.5.1-.8.1a2 2 0 0 0 1.5.8c.3 0 1-.2 1.2.1s-.5.4-.6.8l.6-.2.9-.2c.2 0 0 .3 0 .3l.7-.5q.3-.1.3-.3a2.5 2.5 0 0 1 .2 1 2.6 2.6 0 0 1 0 .9c0 .2.1.3.2.3s.2.2.3.1 0-.6-.1-1.2a5.5 5.5 0 0 0-.4-1.2h.8l.8-.2c.1 0 .2 0 .2-.1h-.2s1-.3 1.2-1-.8.5-1 .2 1.2-1.3.9-2.7"/><path fill="#fff" d="M18.8 252.1c-4.5-.2-8.4.8-11 2.9s-3.5 6.2-3.5 9.4v11.2c0 3.6 0 7.6 3.4 10.8s6.6 3.4 11.4 3.2 9.2-1.5 12-3.9l1-.7v-14.2h-13v-1.6h13v-12.6l-1.2-.7a23.1 23.1 0 0 0-12.1-3.8"/><path fill="#fff" d="M61.5 277.4c0-.1-4.4-21.6-4.9-24.4h1v-9l-1-.4v-1.9a6.9 6.9 0 0 0-1.3-4.5 9.4 9.4 0 0 0 1.8-6.1c0-4.7-2.3-7-4.2-8.1s-5.2-1.4-7.4-1.4H31.4v8.7l.9.5v13l-.9.6v8.6h7c-.5 2.8-4.5 23.9-4.5 23.9v.7a4 4 0 0 1-.4 1.3l-.7.7-.3 1.3v8.1h30.7v-10l-1.4-.4a3.9 3.9 0 0 1-.3-1.2"/><path fill="#fff" d="M150.9 255a10.2 10.2 0 0 0-4.7-2h10v-8.6l-.9-.6v-3.1l4.5-8.8c.4-.8.4-.8.6-1l1.1-.7v-8.6h-25.7v5.6a7.1 7.1 0 0 0-3.3-4.1c-2.3-1.5-5-1.5-7.3-1.5h-14.6v8.9l1.1.5v12.6l-1.1.5v8.6h-7a12.9 12.9 0 0 0 4.9-2.7l.9-.8v-23.8l-1-.7a18.8 18.8 0 0 0-11.8-3.6c-3.6 0-6.5.9-8.5 2.7s-3.1 5.4-3.1 8.1v10c0 2.7 0 6.3 3.4 9.2a12.8 12.8 0 0 0 2.7 1.6H76.7a11.9 11.9 0 0 0 3-1.8c3-2.6 3.3-5.7 3.4-8.8v-11.2l.9-.6v-8.7H58.1v8.6l.8.6V242c.1 3.2.4 6.3 3.4 8.9a11.9 11.9 0 0 0 3 1.8h-1.6v9.4l1 .7a5.6 5.6 0 0 0 .1.7v14.6s-.1.6-.1.8l-.9.6v9.5h29v-25.5a5.6 5.6 0 0 0 .1-.7l.9-.6v-8.9a17.7 17.7 0 0 0 3.2.2l3.3-.2c-.7 3.9-4.4 23.6-4.4 23.6l-.2.7a4.2 4.2 0 0 1-.3 1.3l-.7.7-.3 1.3v8.1h47.2c3.4 0 6.8-.2 9.8-3s3.3-6.7 3.3-9.5v-11.7c0-2.4 0-6.9-3.8-9.8m-24.3 23.4v.3l-1.4.6v-.3l-1.4-.4a6.3 6.3 0 0 0-.3-1.2c0-.1-4.3-21.6-4.9-24.4h6.8v9.4l1.2.5a1 1 0 0 0 .1.4v15.1zm15.4-34.6l-.9.6v8.3h-11.5a8.2 8.2 0 0 0 4-1.9c2.1-1.6 3.2-4.3 3.2-7.8a9 9 0 0 0-2.3-6.4 8.5 8.5 0 0 0 1.9-5.8v-.3l.5.5c.2.1.4.6.5.9l.4.7s3.7 7.7 4.2 8.6v2.6zm42.2 34.8a3.9 3.9 0 0 1-.3-1.2l-5-24.7h-18l-4.5 24.2-.2.7a13 13 0 0 1-.3 1.3l-.7.7-.3 1.3v8.1h30.7v-10l-1.4-.4"/><path d="M43 229.6h.9c1.7 0 2.3.9 2.3 2.6s-.6 2.8-2.3 2.8H43m0 5.2h.4c2.2.1 2.4 1.1 2.4 3.2-.1 4.4.1 5.6.5 7h8.8v-4.6c-1.1-.4-1.1-1.7-1.1-2.6v-1.5c0-2.7-.8-3.8-3.4-4.4 3.1-.8 3.9-3.3 3.9-6.2s-.7-4.6-2.8-5.9-4.4-1-6.4-1H34v4.6c.9.6.8 1.6.8 2.6v11.8c0 1 .1 2-.8 2.6v4.6h9.9v-4.6c-1-.6-.9-1.6-.9-2.6v-3zm28.9-16h9.5v4.6c-1.1.6-1 1.6-1 2.6V242c0 2.8-.3 5-2.5 7s-4.6 2-6.9 2-5.1-.3-7-2-2.4-4.2-2.5-7v-10.6c0-1 .1-2-.9-2.6v-4.6h10v4.6c-1 .6-.9 1.6-.9 2.6v12c0 .5.1 1.9 1.6 1.9s1.6-1.4 1.6-1.9v-12c0-1 .1-2-1-2.6m34.9 4.5h-7.9v-.6c0-1.1.3-3.4-1.5-3.4s-1.7 1.5-1.7 2.6v11.7a1.7 1.7 0 0 0 1.7 1.7c1.8 0 1.5-2.3 1.5-3.4v-1.2h-1.4v-5.1h9.3v12.5c-2.6 2.3-6.5 2.8-9.8 2.8s-5-.1-6.9-1.7-2.6-4.4-2.6-7.3v-10c0-2.3.3-4.6 2.2-6.2s4.5-2 6.9-2a16.8 16.8 0 0 1 10.2 3m15.6 2.9h.6c1.7 0 2.7.5 2.7 2.4s-.9 2.3-2.7 2.3h-.6m3.1 16.1c2.3 0 4.6 0 6.5-1.5s2.2-3.8 2.2-5.9-1.1-5.8-4.5-6.2c2.9-.8 4.1-2.9 4.1-5.9s-.6-4.4-2.6-5.6-4.1-1-6.1-1h-11.9v4.6c.9.4 1 1.2 1 2.1v12.8c0 .9-.1 1.7-1 2.1v4.6zm-3.1-11.1h.7c2 0 2.7.8 2.7 2.8s-.7 2.9-2.7 2.9h-.7v-5.7zm17.6-7.8a6.1 6.1 0 0 0-1.6-2.7v-4.6h9.3v3.4a9.1 9.1 0 0 0 1.5 4.8 8.3 8.3 0 0 0 1.5-4.8v-3.4h8.3v4.6a4.7 4.7 0 0 0-1.5 1.9l-4.8 9.4v3.1c0 1-.1 2 .9 2.6v4.6h-10v-4.6a2.2 2.2 0 0 0 .9-1.2 6.5 6.5 0 0 0 0-1.4v-2.6"/><path fill="#b22c1b" d="M20.1 264.8c0-1.3.3-3.5-1.8-3.5s-1.7 2.2-1.7 3.5v12.1c0 1.2-.3 3.4 1.7 3.4s1.8-2.2 1.8-3.4v-3.6h9.4v10.5c-2.5 2-6.5 3.2-10.5 3.3s-7.7-.8-9.6-2.6-2.6-5.8-2.6-9.2v-10.9c0-2.8.4-5.5 2.7-7.4s5.5-2.5 9.2-2.4a21.8 21.8 0 0 1 10.8 3.4v8.7h-9.4m28.3 5.5l-1.6-9.3-1.6 9.3m.5 14.2H35v-5.5c1-.7 1.1-2.3 1.4-3.5l4.2-22.2h13.8l4.6 22.7c.1.9.5 2.7 1.6 3v5.6H48.3v-5.6a1.7 1.7 0 0 0 1.2-1.7 2.9 2.9 0 0 0-.2-.9h-4.7a2.8 2.8 0 0 0-.1.9 1.6 1.6 0 0 0 1.2 1.7v5.5zm36.6-17.1v-5.5c0-1.1.1-2.3-1-3v-5.6h9.9v5.6c-1.1.7-1 1.9-1 3v22.7h-9.4L75 272.4h-.1v5.4c0 1.2-.1 2.4 1 3.1v5.5h-9.7v-5.5c1.2-.7 1.1-1.9 1.1-3.1v-14c0-1.2.1-2.3-1.1-3v-5.6h10.6m30.4 17l1.5-9.3h.1l1.6 9.3m-2.7 8.7a1.6 1.6 0 0 1-1.3-1.7 2.9 2.9 0 0 1 .2-.9h4.7c0 .3.1.6.1.9a1.8 1.8 0 0 1-1.1 1.7v5.5h12.3v-5.5c-1.1-.3-1.5-2.1-1.7-3.1l-4.5-22.6h-13.9l-4.1 22.2c-.3 1.2-.4 2.8-1.5 3.5v5.5h10.8v-5.5zm31.1-18.9h.8c2.1 0 2.8.8 2.8 3.1v11.7c0 2.3-.7 3.1-2.8 3.1h-.8m-10.9-24.7v5.6c1.1.4 1.2 1.3 1.2 2.4v15.2c0 1.1-.1 2-1.2 2.5v5.6h13.7c3 0 5.8-.2 8-2.3s2.5-4.6 2.5-7.7v-11.7c0-3-.3-5.8-2.8-7.8s-5.3-1.8-8-1.8zm53.5 22.6l-4.6-22.6H163l-4.1 22.2c-.3 1.2-.4 2.8-1.5 3.5v5.5h10.8v-5.5a1.6 1.6 0 0 1-1.3-1.7c0-.3.1-.6.1-.9h1.7c-.1-.1-.1-.2 0-.4a9 9 0 0 1 .5-.9 6.1 6.1 0 0 0 .7-2.8l-.8.4a10.5 10.5 0 0 1-1.8.3s.6-.4.2-.4l-1.7-.3h-1.1c.4-.7 1.7-.7 1.6-1.2s-1.4-.6-2-.9a3.6 3.6 0 0 1-2-2.5c.4.3 1.2.7 1.4.4s-.2-.9-.5-1.7a3.9 3.9 0 0 1-.2-2.3 1.7 1.7 0 0 0 1.9 1.1c.5-.1.3-1.1.3-1.1l1.8 1.5c.6.6 1 0 .8-.5a19.7 19.7 0 0 1-.7-2.2c0-.3-.1-.5-.1-.8s.8.5 1.2.3 1.3-1.3.3-3.5c3 1.1 2.4 3.2 3.2 3.4s1.1-.5 1.3-1.1a28.3 28.3 0 0 1-.6 3.7c-.1.7.4.7.5.5s1.3-1.6 1.6-1.5.5 1.1.9.8a2.2 2.2 0 0 0 .9-1.4 3.2 3.2 0 0 1 .5 2.3c0 .5-.3 1.2-.3 1.7s.8.2 1.5 0c-.4 2.6-3.9 3.3-3.7 4.2s1.1.3 2 .3c-.9 1.1-2.9.9-2.9.9s0 .2.3.4h-.6l-1.4-.2-1.4-.5a15.4 15.4 0 0 1-.7 4.1h2.1a2.9 2.9 0 0 1 .2.9 1.8 1.8 0 0 1-1.1 1.7v5.5H183V281c-1-.3-1.4-2.1-1.6-3.1"/><path d="M98.5 79.2c-.1.3-.1.6-.2.8a17.4 17.4 0 0 1 3.5 2.9c3-8.4-3.3-19.3-11.9-25.1 5 3.5 9.6 14.9 8.6 21.4m22.1 79.2c-17.8-21.5-26.5-44-22.9-56.1-6 5.5-6.9 17.6-2.6 30.3 0 0-13.5-11.7-19.6-28.1a33.5 33.5 0 0 0 8.3-1.4 36.2 36.2 0 0 0 11.3-5.6c3.9-.9 6.7-2.7 7.6-5.4a6.5 6.5 0 0 0 .2-3.1 3.6 3.6 0 0 1-.2 1.1c-1.7 5.1-10.5 7-19.5 4.2s-16-9-14.3-14 7.1-5.9 13.2-5.6c-8.8-1.5-16.5.6-18.1 5.5s5.2 13 15.9 16.3a24.1 24.1 0 0 0 4.3 1c-14.5 3.4-30.4-4.9-35.6-17.8-3.3-8.4-.4-16 5.5-22.1 4.2 2.7 8.9 3.3 12.3 1.5a7.5 7.5 0 0 0 2-1.5 5.1 5.1 0 0 1-1.6.9c-5.2 2.1-12.3-1.4-16.1-7.9S47.9 36.2 53.5 34c2.9-1.3 6.5-.6 9.7 1.3-4.6-3.7-10.2-4.9-14.3-2.6-5.9 3.4-5.8 12.5-.4 19.8a21.1 21.1 0 0 0 4.6 4.4 28.2 28.2 0 0 0-10.5 12.6c-3.1-2.8-3.4-3.2-5.4-4.8 1.3 9.3-13.7 25.2-25.5.7-2.7 3.5-2.6 16.5 1.8 26.5s10 16.4 6.5 19.9-12.4-1.7-17.2-5.1c1.6 32 44.6 28.5 46.7 40.5 1.1 5.6-16.1 7-19 13.7 2.9-1.6 9.2-1.6 14.6.5s14.2 2.5 18.3 2.8-1.8 5.4-1.8 5.4 13.2-1.7 19.9-4a75.3 75.3 0 0 0 8.7-3.7 162 162 0 0 1-4.8 22.3c-2.1 7.5-8.1 15.2-9.1 19.1s0 6.2 2 7.5 3.1 5.7 5.1 4.9 6.1-11.9 8.8-26a199.5 199.5 0 0 0 3.3-28.6 99.1 99.1 0 0 0 16.9 5.4c2.3.5 5.7 1.4 9.5 2a53.2 53.2 0 0 0 18.2 9.3c-8.1-6-11.8-10.1-19.5-19.4"/><path d="M83.9 78.8h-1.6c-.9-1.3-2.1-2-2.7-1.9a6.2 6.2 0 0 1 1.6 1.9 20.1 20.1 0 0 0-9.1 2 34.4 34.4 0 0 1 9.7-1 13 13 0 0 1 1 2.7 3.1 3.1 0 0 0 0-2.7h1.8a9.5 9.5 0 0 1 1 2.8c.4-.3.5-1.5.1-2.7h.8l1 .2a8.1 8.1 0 0 1 1.1 2.9c.4-.3.5-1.5 0-2.8l2 .4a10.6 10.6 0 0 1 1.1 2.9 3 3 0 0 0 .1-2.6 30.9 30.9 0 0 1 8.5 3.2c-1.9-1.8-5.1-3.4-9.2-4.4-.8-1.2-2-1.9-2.6-1.8a10.3 10.3 0 0 1 1.4 1.5l-2-.4c-.8-1-1.9-1.7-2.4-1.6l1.2 1.5h-1.6c-.9-1.2-2.1-1.9-2.6-1.8a6.1 6.1 0 0 1 1.4 1.7M72.8 66.7a.9.9 0 0 1-1 1 1 1 0 0 1-1.1-1 1.1 1.1 0 0 1 1.1-1.1 1 1 0 0 1 1 1.1"/><path d="M71.6 49.9c1 4.1.2 7.4-1.8 9.6s-1.2 8.1 1.1 10.1c-2-3.9-1.7-8 .8-9.9a9.1 9.1 0 0 1 3.9.7s.5-5.2-4-10.5"/></svg>