<svg xmlns="http://www.w3.org/2000/svg" width="2.6in" height="3.9in" viewBox="0 0 189.2 282.4"><defs><clipPath id="a"><path fill="none" d="M-69.8-25.3h328.9v328.87H-69.8z"/></clipPath></defs><g clip-path="url(#a)"><path fill="#fff" d="M72.8 40.1a9.7 9.7 0 0 0 3.1-3c1.8-2.6 3.1-6.6 3.1-11.8s-1.4-12.2-5.1-20A44.4 44.4 0 0 0 72 1c28.7 5.2 34.2 22.9 36.6 31.4.9 3.6 1.5 5.6 2.8 6.5s2.5.5 3.8.2c3.8-1.1 7.6-6.6 9.7-11 0 0 1.6-3 2.6-5.3a40.7 40.7 0 0 1 2.3 13.2v.4c-.1 9.4-2.9 17.8-5.3 25.1l-.5 1.4-.7 2.2c-1.2 3-2 5.5-2 7.2a2.4 2.4 0 0 0 .7 1.9 1.3 1.3 0 0 0 1.1.3c1-.1 1.7-1.5 3-3.6s4.1-7.1 8.2-10.2a22.2 22.2 0 0 1 10.8-4 35.2 35.2 0 0 0-1.7 8.9 4.1 4.1 0 0 0 .9 3.1c.7.7 2.1.7 3.8 0 4.4-1.6 12-8 13.8-21.3l2.9 4.3A40.5 40.5 0 0 1 171 74a76.7 76.7 0 0 1-2.7 18.5l-.2.7a18.7 18.7 0 0 0-.8 4.4 2.6 2.6 0 0 0 .8 2.2 5.7 5.7 0 0 0 4.4.7c4.2-.8 8.8-5.1 11.3-8.8v.6a43.4 43.4 0 0 1-4.4 19.9c-6.1 12.5-17.2 18.8-25.3 23.3l-2.3 1.3-1.9 1.1c-4.2 2.3-6.8 3.8-7.1 5.2v.3c.8 3 9.3 3.6 19.4 1.4l6.2-1.3c-.7 1.1-1.6 2.6-3.6 5.5-7.5 10.6-24 12.6-32.7 11.3l-2.1-.3 3.5 3.5a120.6 120.6 0 0 0 9.4 9c-8.3-.6-17.9-4.5-22.9-8.2h-.1l-6.6-1.4-2-.4a105.4 105.4 0 0 1-12.3-3.7l-.9-.3v.9a195.4 195.4 0 0 1-2.9 23.1c-4.8 24.9-8.6 26.2-10.1 26.8s-4.5-1.1-5.9-3.3a7.6 7.6 0 0 0-1.2-1.7 7.5 7.5 0 0 1-3.5-6.7 13.5 13.5 0 0 1 .4-3.3c.5-2 1.9-4.4 3.5-7.2a51.4 51.4 0 0 0 5.2-11.1c1.3-4.6 2.5-9.9 3.5-15.1l.2-1.2-1.2.5a86.3 86.3 0 0 1-13 3.4 113.8 113.8 0 0 1-14.7 1.6c3.5-2.9 4.3-3.8 4.3-4.3v-.2c0-.2-.2-.6-.9-.6s-10.3-.7-15.1-2.6-11.6-1.5-17.2.9c2.2-8.8 7.4-10.8 11.7-12.4l1.8-.7 1.1-.5a14.9 14.9 0 0 0 4.4-2.2 1.6 1.6 0 0 0 .5-1.1v-.3c-.4-1.9-4.7-3.7-12.5-6.5H36C22.6 129.9 5.9 124 4.7 103c-.1-1.1-.1-2.2-.1-3.2v-1.7c9.8 6.9 15.9 8.4 17.1 7.8s-.4-4.4-2.4-7.7C10.6 83.7 8.5 66.8 16 58.7c6 12.8 10.7 15.7 15 14.4 2.2-.7 9-4.1 6.4-16.2l5.9 5.1 1.1 1 .4-.7a29.9 29.9 0 0 1 5.8-6.6l.5-.5-2.3-2.6a21 21 0 0 1-4.4-12.2 13.6 13.6 0 0 1 .3-2.9 10.9 10.9 0 0 1 5.2-7.5c4.5-2.6 11.3-1.6 16.2 2.3a20.5 20.5 0 0 1 5.7 7.5l.3.7"/><path d="M96.7 206.7h-1.1v-4.3h-1.5v-.9h4.2v.9h-1.6m7.2 4.3h-1v-4.3l-1 4.3h-1l-1-4.3v4.3h-1v-5.2h1.6l.9 4.1.9-4.1h1.6"/><path fill="#b22c1b" d="M181.6 97.4c-5.6 5.9-17.1 8-17 .5.1-5.9 9.8-26.2-2-44.8a25.2 25.2 0 0 1-9.6 15.2c-4.6 3.6-15.4 7.9-10.8-9.2-5.9 1.1-10.4 6.1-17.1 16.8-1.6 2.6-7.2 1.6-5.9-4.9s10.1-25.4 7.4-41.1c-3.6 8.4-10.4 12.7-15.1 11.8-8.3-1.6-1.5-27.8-35.2-37.5 11.5 24.7 1.9 39.7-6.4 39.1 0 .1.1.2.1.4a21.2 21.2 0 0 1 .8 4.1 38.4 38.4 0 0 1 20.9 3.3c15.5 6.8 23.5 21.1 18.5 32a20.1 20.1 0 0 1-1.4 2.5c2.6 3.8 4.7 10.6 5.3 18.4a50.8 50.8 0 0 1-1.4 15.3 160.1 160.1 0 0 1 12.2 20.2 148.3 148.3 0 0 1 7.7 18.2c6.5 1 22.2-.2 30.3-10.4-9 2-20.9 2.7-22.6-3.2-2.5-9.3 35.5-13.1 41.3-46.7"/><path d="M59 58.5c1.1 3.3 5.4 5.6 5.4 5.6s.3-2.5 3.7-2.9a19.9 19.9 0 0 1-9.1-2.7m26.9 4.7c-.2.2-.5.6-.7.3s-.1-.7-.2-.9a1.7 1.7 0 0 0-.6-1 1.1 1.1 0 0 1-.2.8c-.1.3-.4.6-.6-.2s-.3.8-.3 1-.3.3-.4-.1a9.5 9.5 0 0 0-.5-1.8c0 .3-.2.7-.4.7s-.5-1-2.1-.9a1.5 1.5 0 0 1 .6 1.6c-.2.2-.7.1-.7.1h.1a12.6 12.6 0 0 0 .9 1.3c.2.2.2.5-.2.4l-1.1-.4s.3.4.1.5a.7.7 0 0 1-1.1-.1c-.1.1.1.7.5 1s.6.5.6.7-.5.1-.8.1a2 2 0 0 0 1.4.8c.4 0 1-.2 1.1 0s-.4.5-.5.9l.5-.2.9-.2c.2-.1 0 .2 0 .2l.7-.4.3-.3a2.4 2.4 0 0 1 .2.9c0 .4-.1.8 0 .9s.1.3.2.3.2.2.3.1a7.5 7.5 0 0 0-.1-1.2 6.6 6.6 0 0 0-.4-1.1h.8l.7-.2c.1 0 .2 0 .2-.1h-.2s1-.3 1.2-1-.9.5-1 .3 1.2-1.3.8-2.6"/><path fill="#fff" d="M22.5 241.5c-4.3-.2-8.1.8-10.5 2.8s-3.4 5.9-3.4 9V264c0 3.3 0 7.2 3.3 10.2s6.3 3.3 10.9 3.1 8.8-1.5 11.5-3.7l.9-.7v-13.6H22.8v-1.4h12.4v-12.1l-1.1-.7a23.3 23.3 0 0 0-11.6-3.6"/><path fill="#fff" d="M63.2 265.7c0-.1-4.1-20.6-4.7-23.3h1v-8.6l-.9-.3v-1.9a6.5 6.5 0 0 0-1.3-4.3 9.1 9.1 0 0 0 1.7-5.8c0-4.5-2.1-6.7-3.9-7.7s-5.1-1.4-7.1-1.4H34.5v8.3l.9.5v12.4l-.9.5v8.3h6.7l-4.3 22.8v.6a13 13 0 0 1-.3 1.3l-.7.6-.3 1.3v7.7h29.2v-9.5l-1.3-.4a3.9 3.9 0 0 1-.3-1.1"/><path fill="#fff" d="M148.5 244.2a9.7 9.7 0 0 0-4.5-1.8h9.6v-8.3l-.9-.5v-3l4.3-8.4.6-.9 1.1-.7v-8.2h-24.6v5.4a6.9 6.9 0 0 0-3.1-4c-2.2-1.4-4.8-1.4-6.9-1.4h-14v8.5l1 .4v12.1l-1 .4v8.2h-6.7a11.9 11.9 0 0 0 4.7-2.6l.8-.7v-22.6l-.9-.8a18.4 18.4 0 0 0-11.2-3.4 12.2 12.2 0 0 0-8.2 2.6c-2.6 2.2-2.9 5.1-2.9 7.7v9.6c0 2.5 0 6 3.2 8.8a7.3 7.3 0 0 0 2.6 1.4H79.7v.4a1.4 1.4 0 0 1-.2-.4h-1.9a9.2 9.2 0 0 0 2.9-1.6c2.9-2.5 3.2-5.4 3.2-8.4v-10.7l1-.6v-8.3H60v8.3l.8.5v10.7c.1 3.1.4 6 3.2 8.5a12.2 12.2 0 0 0 2.9 1.7h-1.6v9l1 .6a5.6 5.6 0 0 0 .1.7v14a5.6 5.6 0 0 0-.1.7l-.9.6v9h27.7v-25l.9-.6v-8.4l3 .2 3.1-.2c-.6 3.6-4.1 22.5-4.1 22.5l-.2.6a13 13 0 0 1-.3 1.3l-.7.6-.3 1.3v7.7h45.1c3.2 0 6.5-.2 9.3-2.8s3.1-6.4 3.1-9.1v-11.2c0-2.3 0-6.5-3.6-9.4m-23.2 22.4v.3l-1.4.5v-.2l-1.3-.4a6.3 6.3 0 0 0-.3-1.2s-4.1-20.5-4.7-23.3h6.5v9l1.2.6v14.7zm14.7-33l-.8.5v8h-10.8a8.8 8.8 0 0 0 3.8-1.8c1.9-1.5 3-4.2 3-7.5a8.6 8.6 0 0 0-2.2-6.1 7.9 7.9 0 0 0 1.8-5.5v-.3l.5.4a9.3 9.3 0 0 1 .5 1l.3.6 4 8.2v2.5m40.4 33.2a7.7 7.7 0 0 1-.4-1.2l-4.7-23.6h-17.2l-4.3 23.2-.2.6a13 13 0 0 1-.3 1.3l-.7.6-.3 1.3v7.7h29.4v-9.5l-1.3-.4"/><path d="M45.6 220.1h.8c1.7 0 2.2.8 2.2 2.4s-.5 2.7-2.2 2.7h-.8m0 5h.3c2.2 0 2.4 1 2.4 3-.1 4.2.1 5.3.4 6.7h8.4v-4.4c-1-.4-1-1.6-1-2.5v-1.4c0-2.5-.8-3.6-3.2-4.2 2.9-.8 3.7-3.2 3.7-5.9s-.7-4.4-2.7-5.6-4.2-1-6.1-1H37v4.4c.9.6.8 1.5.8 2.5V233c0 1 .1 1.9-.8 2.5v4.4h9.5v-4.4c-1-.6-.9-1.5-.9-2.5zm27.6-15.3h9.1v4.4c-1.1.6-1 1.5-1 2.5v10.1c-.1 2.7-.3 4.8-2.4 6.6s-4.4 1.9-6.6 1.9-4.8-.2-6.7-1.9-2.3-3.9-2.4-6.6v-10.1c0-1 .1-1.9-.8-2.5v-4.4h9.5v4.4c-1 .6-.9 1.5-.9 2.5v11.4a1.6 1.6 0 0 0 1.6 1.8c1.4 0 1.5-1.3 1.5-1.8v-11.4c0-1 .1-1.9-.9-2.5m33.3 4.3H99v-.6c0-1.1.2-3.2-1.5-3.2s-1.6 1.4-1.6 2.4v11.2a1.6 1.6 0 0 0 1.6 1.6c1.7 0 1.5-2.1 1.5-3.3v-1.1h-1.4v-4.9h8.9v12c-2.5 2.2-6.2 2.7-9.4 2.7s-4.8-.2-6.6-1.6-2.4-4.3-2.4-7v-9.6c0-2.2.3-4.3 2.1-5.9a10.2 10.2 0 0 1 6.6-1.9 16.1 16.1 0 0 1 9.7 2.9m14.9 2.8h.5c1.6 0 2.6.4 2.6 2.2s-.9 2.3-2.6 2.3h-.5m2.9 15.3c2.2 0 4.4 0 6.2-1.5s2.1-3.6 2.1-5.6-1.1-5.5-4.3-5.9c2.8-.8 3.9-2.7 3.9-5.6s-.6-4.2-2.4-5.3-3.9-1-5.9-1h-11.3v4.4c.9.4.9 1.2 1 2v12.2c-.1.8-.1 1.6-1 2v4.4zm-2.9-10.6h.6c1.9 0 2.6.7 2.6 2.7s-.7 2.7-2.6 2.7h-.6zm16.8-7.5a7.2 7.2 0 0 0-1.6-2.5v-4.4h8.9v3.2a8.3 8.3 0 0 0 1.4 4.6 7.7 7.7 0 0 0 1.5-4.6v-3.2h7.8v4.4a3.5 3.5 0 0 0-1.3 1.8l-4.6 8.9v3c0 1-.1 1.9.8 2.5v4.4h-9.5v-4.4a1.7 1.7 0 0 0 .8-1.1 6.1 6.1 0 0 0 .1-1.4v-2.4"/><path fill="#b22c1b" d="M23.8 253.6c0-1.2.2-3.3-1.7-3.3s-1.7 2.1-1.7 3.3v11.6c0 1.2-.3 3.2 1.7 3.2s1.7-2 1.7-3.2v-3.4h8.9v9.9c-2.4 2-6.2 3.1-10 3.2s-7.3-.7-9.2-2.5-2.4-5.5-2.4-8.8v-10.3c0-2.7.3-5.3 2.5-7.1s5.3-2.4 8.8-2.3a21.9 21.9 0 0 1 10.3 3.2v8.3h-8.9m27 5.3l-1.6-8.8-1.5 8.8m.5 13.6H37.9V269c1.1-.7 1.2-2.2 1.4-3.4l4-21.1h13.2l4.3 21.6c.2.9.5 2.6 1.6 2.9v5.3H50.7V269a1.5 1.5 0 0 0 1-1.6 2.8 2.8 0 0 0-.1-.9h-4.5c0 .3-.1.6-.1.9a1.5 1.5 0 0 0 1.2 1.6zM83 257.9h.1v-5.2c0-1.1.1-2.2-1-2.9v-5.3h9.5v5.3c-1.1.7-1 1.8-1 2.9v21.6h-9l-5.5-13.4H76v5.2c0 1.1-.1 2.2 1 2.9v5.3h-9.2V269c1.1-.7 1-1.8 1-2.9v-13.4c0-1.1.1-2.2-1-2.9v-5.3h10.1m28.9 16.2l1.5-8.8h.1l1.5 8.8m-2.6 8.3a1.5 1.5 0 0 1-1.2-1.6c0-.3.1-.6.1-.9h4.5a2.9 2.9 0 0 1 .2.9 1.6 1.6 0 0 1-1.1 1.6v5.3h11.7V269c-1-.3-1.4-2-1.6-2.9l-4.3-21.6h-13.2l-4 21.1c-.2 1.2-.3 2.7-1.4 3.4v5.3h10.3V269zm29.7-18h.8c2 0 2.6.7 2.6 2.9v11.2c0 2.2-.6 2.9-2.6 2.9h-.8m-10.4-23.5v5.3c1 .4 1.1 1.3 1.2 2.3v14.5c-.1 1.1-.2 2-1.2 2.4v5.3h13.1c2.8 0 5.5-.2 7.6-2.2s2.4-4.4 2.4-7.3v-11.2c0-2.8-.3-5.5-2.7-7.4s-5-1.7-7.6-1.7zm51.1 21.6l-4.4-21.6h-13.2l-3.9 21.1c-.3 1.2-.4 2.7-1.4 3.4v5.3H165V269a1.5 1.5 0 0 1-1.2-1.6c0-.3.1-.6.1-.9h1.6c0-.1-.1-.2 0-.4a3.6 3.6 0 0 0 .5-.9 6.2 6.2 0 0 0 .7-2.6l-.8.4-1.7.3s.6-.4.2-.4l-1.7-.3a3.4 3.4 0 0 0-1 0c.4-.6 1.6-.7 1.5-1.1s-1.3-.6-1.9-.9a4.1 4.1 0 0 1-1.9-2.4c.4.3 1.2.7 1.4.4s-.2-.9-.5-1.6a3.6 3.6 0 0 1-.2-2.2c.5.9 1.1 1.2 1.8 1s.3-1.1.3-1.1l1.7 1.6c.6.5.9-.1.8-.5a11.5 11.5 0 0 1-.7-2.2 1.7 1.7 0 0 0-.1-.7s.8.5 1.2.2 1.2-1.1.2-3.2c2.9 1 2.4 3 3.1 3.2a2 2 0 0 0 1.3-1c.1.4-.6 2.8-.6 3.5s.3.6.5.4a3.4 3.4 0 0 1 1.4-1.5c-.2 1.5.6 1.1.9.8a2 2 0 0 0 .9-1.3 3.4 3.4 0 0 1 .5 2.2 10.1 10.1 0 0 0-.3 1.7c-.1.6.7.1 1.4-.1-.4 2.6-3.8 3.2-3.5 4s1.1.3 1.9.3a3.6 3.6 0 0 1-2.8.9s0 .2.3.4h-.6l-1.3-.2-1.4-.5a14.4 14.4 0 0 1-.6 3.9h2a2.9 2.9 0 0 1 .2.9 1.6 1.6 0 0 1-1.1 1.6v5.3h11.7V269c-1-.3-1.4-2-1.5-2.9"/><path d="M98.5 76.5c0 .3-.1.6-.1.8a18.7 18.7 0 0 1 3.3 2.8c2.9-8-3.1-18.4-11.4-23.9 4.8 3.2 9.2 14.2 8.2 20.3m21.1 75.6c-16.9-20.5-25.3-42-21.8-53.5-5.8 5.2-6.6 16.8-2.5 28.9 0 0-12.9-11.2-18.7-26.9a27.2 27.2 0 0 0 7.9-1.3A32.1 32.1 0 0 0 95.3 94c3.7-.8 6.4-2.6 7.3-5.2a5.7 5.7 0 0 0 .1-2.9 5.2 5.2 0 0 1-.2 1.1c-1.6 4.8-9.9 6.6-18.6 4s-15.2-8.6-13.6-13.5 6.8-5.5 12.6-5.3c-8.4-1.4-15.8.6-17.3 5.3s5 12.4 15.2 15.5a20.4 20.4 0 0 0 4.1 1c-13.8 3.2-29-4.7-33.9-17-3.2-8-.4-15.3 5.2-21 4 2.5 8.5 3.1 11.7 1.4a5.8 5.8 0 0 0 1.9-1.5 3.8 3.8 0 0 1-1.5.9c-4.9 2-11.7-1.3-15.3-7.5s-2.7-13.8 2.6-15.9c2.8-1.2 6.2-.6 9.3 1.2-4.4-3.5-9.8-4.7-13.7-2.4-5.6 3.3-5.5 11.9-.3 18.8a21.9 21.9 0 0 0 4.3 4.3 27.7 27.7 0 0 0-10 11.9l-5.1-4.5c1.2 8.9-13.1 24.1-24.4.7-2.6 3.3-2.4 15.7 1.7 25.3s9.6 15.6 6.2 19-11.8-1.7-16.3-4.9c1.4 30.6 42.4 27.2 44.5 38.6 1 5.3-15.4 6.7-18.2 13.1 2.9-1.5 8.8-1.6 14 .5s13.5 2.4 17.5 2.7-1.8 5.1-1.8 5.1 12.6-1.6 19-3.9a69.4 69.4 0 0 0 8.4-3.5 198.8 198.8 0 0 1-4.6 21.3c-2 7.2-7.8 14.5-8.7 18.2s0 6 1.9 7.2 2.9 5.4 4.9 4.7 5.8-11.3 8.4-24.8a205.1 205.1 0 0 0 3.1-27.3 94.8 94.8 0 0 0 16.1 5.1c2.2.5 5.4 1.3 9.1 2a50.1 50.1 0 0 0 17.4 8.8c-7.8-5.7-11.4-9.6-18.7-18.5"/><path d="M84.7 76.2h-1.6c-.8-1.2-2-1.9-2.6-1.8a14.5 14.5 0 0 1 1.6 1.8c-3.7.1-6.8.8-8.7 2a30.8 30.8 0 0 1 9.2-1 7.3 7.3 0 0 1 .9 2.6 2.8 2.8 0 0 0 .1-2.6h1.7a8.5 8.5 0 0 1 .9 2.7c.4-.3.5-1.4.1-2.6h1.8a11.1 11.1 0 0 1 1 2.9 2.8 2.8 0 0 0 0-2.7l1.9.4a7.5 7.5 0 0 1 1 2.7c.4-.3.5-1.3.1-2.5a29.8 29.8 0 0 1 8.1 3.1c-1.7-1.7-4.8-3.2-8.7-4.2-.8-1.1-1.9-1.8-2.5-1.7a4.4 4.4 0 0 1 1.3 1.4l-1.8-.3a4.1 4.1 0 0 0-2.4-1.4l1.2 1.4h-.1l-1.5-.2a3.9 3.9 0 0 0-2.4-1.7l1.4 1.7M74.1 64.6a1 1 0 0 1-1.1 1 1 1 0 0 1 0-2 1 1 0 0 1 1.1 1"/><path d="M72.8 48.6c1 3.9.2 7-1.6 9.1s-1.1 7.8 1 9.7c-1.9-3.8-1.6-7.6.8-9.4a7.8 7.8 0 0 1 3.7.6s.5-5-3.9-10"/></g></svg>