<svg xmlns="http://www.w3.org/2000/svg" width="1.4in" height="240" viewBox="0 0 101.3 180.8"><path d="M32.4 174.3c0-.4.1-.8.1-1.2V97.7H7.7c-1.1 0-1.1 0-1.1-1V68.8c0-.8.3-1 1.1-1h24.8v-.9c0-7.7 0-15.5.1-23.2a42.1 42.1 0 0 1 4-17.8A32.3 32.3 0 0 1 53.9 9.5a39.9 39.9 0 0 1 16.4-3.1c6.5.1 13 .4 19.4.6l3.7.4c.7 0 .9.3.9 1v25.1c0 .8-.2 1-1.1 1-4.9 0-9.8-.1-14.7 0a36.1 36.1 0 0 0-6.7.8c-4.2.9-6.7 3.7-7.5 7.9a22.2 22.2 0 0 0-.6 5.1c-.1 6.3 0 12.6 0 18.9a2.3 2.3 0 0 0 .1.7h28.3c1.1 0 1.2 0 1 1.1-.6 4.9-1.3 9.9-1.9 14.8s-1 8.3-1.5 12.5c-.2 1.5-.2 1.5-1.7 1.5H63.8v76.6z"/></svg>