<svg xmlns="http://www.w3.org/2000/svg" id="Layer_1" width="3.1in" height="3.1in" viewBox="0 0 220.2 222.8"><circle cx="110.1" cy="111.5" r="105.6" fill="#e53838"/><path fill="#fff" d="M170.5 163.5l-16.3 10.9-12.9-15.4c-8.1-9.6-18.5-21.4-31.1-35.2h-.2c-12 12.7-22.2 24.1-30.8 34.3s-13.2 15.5-14 16.3l-14.9-10.3c1.1-1 6.5-6.4 16-16.2s20.5-21.2 32.7-34.3v-.2c-7.8-8.7-15.3-16.9-22.5-24.8L53.1 63.4l16-10.5Q78.6 64 89.2 76c7 8.1 14.3 16.4 21.8 24.9h.3l20-22.5c6.9-7.6 14.2-16.1 22-25.2l15.2 9.7-23.8 24.5-22.8 23.7v.2l33.7 36.2z"/></svg>