<svg xmlns="http://www.w3.org/2000/svg"><symbol id="all-blacks" viewBox="0 0 329.3 237.9"><defs><clipPath id="a"><path fill="none" d="M-29.5-77.6h388.3v388.33H-29.5z"/></clipPath></defs><g fill="#373535" clip-path="url(#a)"><path d="M154.8 44.5l-4.6 42.8 6.6-2.3 40 27.2-4.2 2.1-47.8-25.1-1.4-43.1 11.4-1.6m-23.1 3.6c-3.9.8-7.5 1.7-11 2.6l-.5 49.1 49.6 25.3 5.7-2.7-43-28.3-6.9 3.1 6.1-49.1m10.8-1.9l-9.8 1.7-.2 46.2 49.2 25.4 4.9-2.3-41.8-28-6.9 2.5 4.6-45.5m32.8-3.9l-9 .9 2.1 38.1-6.6 2.1 3.4-40.1-9.4 1.1 1 40.6 46.5 24 4-2.1-38.7-25.6 43.8 22.9 3.9-2.1-36.5-24.5-6.7 2.2 2.2-37.5m10.5-1l-9.4.9 3.4 35.4 41.1 22 3.5-2-34.7-23.5-5.8 2 1.9-34.8M64.6 76.5c-5.8 3.6-10.6 6.8-14 9.2l-1.4 58.5s-11.3 8.1-15.5 11.7-12 10.8-12 10.8v14.5s9.4-13 15.9-19.2 14.7-12.7 14.7-12.7l-1.5-2.2 52.2 23.6 5.8-5.4-45.3-29.7-7 5.7 8.1-64.8m14.3-8.3q-7 3.9-12.9 7.5l-2.5 59.9 53 22.9c1.9-1.6 3.9-3.3 6.1-5l-44.4-28.9-7.1 5.2 7.8-61.6m117.5-27.9l-9.6.9 2.9 32.9L228.9 95l3.7-2.3-32.8-22-6.1 2.2 2.7-32.6M119.7 51l-.8.2c-3.8 1.1-7.6 2.4-11.4 3.8l-1.2 52.1 50.9 24.1 6.1-3-43.1-28.4-7.3 3.7 6.8-52.5m-13.1 4.4c-4.5 1.7-8.9 3.5-13.1 5.5l-1.3 54.5-7.2 4.5 7.5-58.5q-6.6 3-12.6 6.3l-1.7 57 51.5 23.2c1.8-1.4 3.7-2.8 5.7-4.1l-43.2-28.3 50.7 23.4a62.1 62.1 0 0 1 6-3.5l.4-.2-43-28.1-7.3 4.1 7.6-55.8M258.4 27l-8.4 3.2V49l24.3 5.3c1.4-2.1 2.7-4.1 3.9-6.2l-18.5-5.2-4.6 3.1 3.3-19m-9.3 3.5c-2.8 1-5.8 1.9-8.8 2.8l-.2 20.9 28.1 8.7 3.3-4.4-21.4-9.5-4.9 2.6 3.9-21.1m26.8-12c-2.2 1.3-4.7 2.6-7.3 3.8v14.1l-4.8 3.7 4-17.4c-2.6 1.4-5.5 2.6-8.5 3.9l.6 16.3 20.8 1.2 3.2-6.1-15.1-1.8 17-2.1 2.5-5.7-11.5.7-3.5 3.2 2.7-13.8m-36.5 15l-4.1 1.2-5.2 1.1v23l31.6 11.6 3.3-3.6-25-12.6-5 2.3 4.3-23m56.7-28.7a39.1 39.1 0 0 1-4 3.3l-1.1 5.1-2.1 2.7 1.1-6.3c-1.3 1-3 2.1-4.8 3.3l-1.1 8.7-2.4 2.6 2.2-10.5c-2.1 1.4-4.5 2.8-7.1 4.3v11.1l13.2-4.8c.7-1.7 1.3-3.4 1.9-5l-6.9 1.3 7.9-4.6a103.7 103.7 0 0 0 3.2-11.2m-88.8 34.3l-9.8 1.1 2.3 30.5 37.8 18.9 3.7-2.4-30.9-20.5-6 2.3 2.9-29.9m11.7-1.4L208.2 39l2.2 27.7 35.2 17.5 2.6-1.8 1.3-1L219.9 63l-5.3 2.1 4.4-27.4m10.1-1.7c-2.8.6-5.8 1.1-9.1 1.5V63h-.2L254 77.6l3.4-3L230 58.9l-5.1 2.2 4.2-25.1"/><path fill-rule="evenodd" d="M316.4 189.8h.6l1.6 3h1.7l-1.8-3.2c1.2 0 2-.5 2-1.9s-1.1-2.2-3.1-2.2h-2.7v7.3h1.7m0-4.4v-1.6h1c.5 0 1.3 0 1.3.7s-.3.9-.9.9zm1 7.5c3.7 0 7.1-2.5 7.1-6.7a6.8 6.8 0 0 0-7.1-6.8 6.8 6.8 0 1 0 0 13.5m4.8-6.7a4.8 4.8 0 0 1-4.8 5 4.7 4.7 0 0 1-4.7-5c0-3.1 2.1-5.1 4.7-5.1a4.8 4.8 0 0 1 4.8 5.1"/><path d="M238.6 208.2h-12.3v-2.9c0-1.7-.8-2.8-2.7-2.8a2.5 2.5 0 0 0-2.7 2.8v15.6a2.5 2.5 0 0 0 2.7 2.7 2.4 2.4 0 0 0 2.7-2.7v-3.6h12.3c0 7.3-2.3 13.1-15 13.1s-15.4-4.9-15.4-17.3 3.3-17.3 15.4-17.3 15 4.9 15 12.4m-108 21.2c8.2 0 10.6-4.3 10.6-8.4s-3.6-7.5-8.7-8.2c4.8-.9 8-2.8 8-8.1s-2.8-7.9-12.2-7.9h-19.9v2h.6a1.6 1.6 0 0 1 .9.3 2.1 2.1 0 0 1 1.1 1.8v28.3zm-4.7-13.3c1.5 0 2.6.8 2.6 2.8s-1 3.7-2.9 3.7h-2.5v-6.5zm-2.8-12.6h2.5c1.6 0 2.6 1.4 2.6 3.1a2.7 2.7 0 0 1-2.6 3h-2.5v-6.1m23.1 25.9h23.3v-7.8h-10.8v-24.8h-15.1v2h.6l.9.3a2.3 2.3 0 0 1 1.1 2v28.1m-103.1 0h23.3v-7.8H55.7v-24.6H40.6v2h.5l1 .3a2.4 2.4 0 0 1 1 2v28.1m27 0h23.3v-7.8H82.6v-24.6H67.5v2h.6l.9.3a2.3 2.3 0 0 1 1.1 2v28.1m240.1-23.8c0-5.4-2.7-10.1-14.7-10.1-9.6 0-14.7 3.4-14.7 11.4 0 12.1 17.6 7.3 17.6 14.7a2.8 2.8 0 0 1-2.9 2.9 2.2 2.2 0 0 1-2.1-1.2 7.4 7.4 0 0 1-.5-3.2h-12.5c-.6 9.5 7.8 10.6 16 10.6S311 227.7 311 219c0-12.1-17.7-8.4-17.7-14.6a2.3 2.3 0 0 1 2.3-2.4c1.3 0 2 .3 2.4.9a4.4 4.4 0 0 1 .5 2.5h11.7M192.1 218h-5l2.6-14.5zm-19.8 11.4h12.9l.9-5.1h6.9l.9 5.1h12.8l-8.5-32.6h-20.3v2h.6l.7.3c.6.3.8.9.6 1.9l-7.5 28.3M24.7 218h-5l2.6-14.5zM4.9 229.4h12.9l.9-5.1h6.9l.9 5.1h12.8l-8.5-32.6H10.5v2h.6l.7.3c.6.3.8.9.6 1.9l-7.5 28.4m235.8-32.8v2.1h.6l.9.3a2.3 2.3 0 0 1 1.1 2v28.1h12.6v-9.4l2.7-2.7 7 12.1h13.2L266.7 209l12.7-12.4h-14.7l-8.9 9v-9h-15.1"/></g></symbol><symbol id="canada" viewBox="0 0 189.2 282.4"><path fill="#fff" d="M73.7 45.5a8.2 8.2 0 0 0 3-2.9c1.8-2.6 3-6.5 3-11.5s-1.3-11.9-4.9-19.5a44.4 44.4 0 0 0-1.9-4.3c28 5.2 33.4 22.4 35.7 30.8 1 3.4 1.5 5.4 2.7 6.2a4.5 4.5 0 0 0 3.8.2c3.7-1 7.4-6.4 9.4-10.7 0 0 1.6-2.9 2.6-5.1a38.4 38.4 0 0 1 2.2 12.8v.4c-.1 9.2-2.8 17.3-5.2 24.5l-.4 1.4-.8 2.1c-1 2.9-1.9 5.4-1.9 7a2.4 2.4 0 0 0 .7 1.9 1.7 1.7 0 0 0 1.1.3c.9-.2 1.7-1.4 2.9-3.6a33.9 33.9 0 0 1 8.1-9.9c3.7-3 8.5-3.7 10.5-3.9a33.5 33.5 0 0 0-1.7 8.7 3.9 3.9 0 0 0 .9 3c.6.7 2 .7 3.7 0 4.3-1.6 11.7-7.8 13.4-20.8l2.9 4.2a40.1 40.1 0 0 1 6 21.8 75.2 75.2 0 0 1-2.6 18.1l-.2.7a17.1 17.1 0 0 0-.8 4.3 2.3 2.3 0 0 0 .8 2 5.1 5.1 0 0 0 4.3.7c4.1-.8 8.5-5 11-8.6v.6a42.9 42.9 0 0 1-4.2 19.5c-6.1 12.2-16.9 18.3-24.7 22.7l-2.3 1.3-1.9 1c-4.1 2.3-6.6 3.8-6.8 5.1v.3c.8 2.9 9.1 3.6 18.9 1.4l6.1-1.3c-.7 1.1-1.6 2.6-3.5 5.3-7.3 10.4-23.4 12.4-31.9 11.1l-2.2-.3 3.4 3.4c2.3 2.4 5.7 5.8 9.2 8.8-8.1-.6-17.5-4.4-22.3-8h-.2l-6.4-1.3-1.9-.5a85.8 85.8 0 0 1-12.1-3.5l-.8-.3v.9a205.3 205.3 0 0 1-2.8 22.6c-4.7 24.2-8.4 25.6-9.8 26.1s-4.5-1.1-5.8-3.2a6.9 6.9 0 0 0-1.2-1.6 7.5 7.5 0 0 1-3.5-6.6 13.9 13.9 0 0 1 .5-3.3 30.8 30.8 0 0 1 3.4-6.9c1.9-3.4 4.1-7.2 5.1-10.9a144.6 144.6 0 0 0 3.4-14.7l.3-1.2-1.2.4a79.1 79.1 0 0 1-12.8 3.4c-6.9 1.1-11.8 1.3-14.3 1.5 3.4-2.9 4.1-3.7 4.1-4.2v-.3a1.1 1.1 0 0 0-.9-.5c-1.8 0-10-.7-14.7-2.6s-11.3-1.4-16.8.9c2.1-8.5 7.2-10.5 11.4-12.1l1.7-.7 1.1-.4a15.5 15.5 0 0 0 4.3-2.2 1.6 1.6 0 0 0 .5-1.1v-.2c-.4-1.9-4.6-3.7-12.2-6.4h-.4c-13.1-4.6-29.3-10.4-30.6-30.9v-4.7c9.5 6.7 15.5 8.2 16.6 7.6s-.3-4.3-2.3-7.5C13 88 11 71.5 18.3 63.7 24.1 76.1 28.8 79 33 77.7c2.1-.7 8.8-4 6.2-15.8l5.7 5 1.1 1 .4-.7a28.8 28.8 0 0 1 5.6-6.5l.5-.4-2.2-2.6A20 20 0 0 1 46 45.8a12.7 12.7 0 0 1 .3-2.8 11 11 0 0 1 5.1-7.4c4.4-2.5 11-1.5 15.8 2.4a19.8 19.8 0 0 1 5.6 7.3l.3.6"/><path fill="#010101" d="M97.1 208.1H96v-4.2h-1.5v-.9h4.1v.9h-1.5m7 4.2h-1v-4.3l-1 4.3h-1l-.9-4.3v4.3h-1V203h1.5l.9 4 .9-4h1.6"/><path fill="#b22c1b" d="M179.9 101.4c-5.5 5.8-16.7 7.9-16.6.5 0-5.8 9.5-25.6-1.9-43.7a24.7 24.7 0 0 1-9.5 14.8c-4.4 3.5-15 7.7-10.5-9-5.7 1.1-10.1 6-16.6 16.4-1.6 2.6-7.1 1.7-5.8-4.7s9.8-24.8 7.2-40.2c-3.5 8.3-10.2 12.5-14.8 11.6-8.1-1.6-1.4-27.2-34.3-36.6 11.3 24.1 1.8 38.7-6.2 38.2a.4.4 0 0 0 .1.3 19.8 19.8 0 0 1 .7 4 39.7 39.7 0 0 1 20.5 3.2c15 6.7 22.8 20.6 18 31.3a11.6 11.6 0 0 1-1.4 2.4c2.6 3.7 4.6 10.3 5.2 18a52 52 0 0 1-1.3 14.9 173.1 173.1 0 0 1 11.9 19.7 128.3 128.3 0 0 1 7.4 17.8c6.4.9 21.8-.2 29.6-10.2-8.7 2-20.4 2.7-22-3.1-2.5-9.1 34.6-12.8 40.3-45.6"/><path fill="#010101" d="M60.3 63.5c1.1 3.2 5.3 5.4 5.3 5.4s.2-2.4 3.5-2.8a19.8 19.8 0 0 1-8.8-2.6M86.5 68c-.2.2-.5.6-.6.3a2.4 2.4 0 0 1-.2-.8 2 2 0 0 0-.7-1 2.2 2.2 0 0 1-.1.8c-.2.2-.4.6-.6-.2s-.3.7-.4 1-.3.2-.4-.1a8 8 0 0 0-.4-1.8c0 .3-.2.7-.4.7s-.5-1-2.1-.9a1.5 1.5 0 0 1 .6 1.6c-.2.2-.6.1-.6.1a4.4 4.4 0 0 0 1 1.2c.1.2.1.5-.3.4l-1-.3s.2.4.1.5a1 1 0 0 1-1.2-.2 2.3 2.3 0 0 0 .5 1c.3.3.7.5.6.7s-.5.1-.7.1.7.6 1.4.7.9-.1 1.1.1-.5.5-.6.8l.5-.2h.9c.2-.1 0 .2 0 .2l.7-.5.3-.3a4.4 4.4 0 0 0 .2 1c0 .3-.1.7-.1.9a.2.2 0 0 0 .2.2c.1 0 .2.2.3.1s0-.5-.1-1.1-.3-1-.3-1.2h.7l.7-.2h.2c-.2 0-.2-.1-.2-.1s1-.3 1.2-1-.8.5-1 .3 1.1-1.3.8-2.6"/><path fill="#fff" d="M24.7 242c-4.3-.2-7.9.8-10.3 2.7s-3.3 5.8-3.3 8.8v10.4c0 3.3 0 7 3.2 10s6.1 3.2 10.6 3 8.6-1.4 11.2-3.6l.9-.7v-13.2H24.9V258H37v-11.8l-1.1-.7a21.5 21.5 0 0 0-11.2-3.5"/><path fill="#fff" d="M64.4 265.6c0-.1-4.1-20.1-4.6-22.8h1v-8.3l-.9-.3a1.8 1.8 0 0 1-.1-.5v-1.4a7 7 0 0 0-1.2-4.2 8.5 8.5 0 0 0 1.7-5.6c0-4.4-2.1-6.5-3.9-7.5s-4.9-1.3-6.9-1.3H36.4v8l.8.5v12.1l-.8.5v8h6.5l-4.2 22.3v.7c-.1.3-.2 1-.3 1.2l-.7.6-.3 1.2v7.6h28.5v-9.3l-1.2-.4a3.9 3.9 0 0 1-.3-1.1"/><path fill="#fff" d="M147.6 244.7a10 10 0 0 0-4.4-1.9h9.3v-8l-.8-.5v-2.9c.4-.9 4.2-8.2 4.2-8.2s.3-.7.6-.9l1-.7v-7.9h-23.9v5.2a7.6 7.6 0 0 0-3.1-3.9c-2.1-1.3-4.7-1.3-6.8-1.3h-13.6v8.2l1 .4v11.8l-1 .4v7.9h-6.5a11.9 11.9 0 0 0 4.6-2.4l.7-.8v-22l-.9-.7a17.5 17.5 0 0 0-10.9-3.3c-3.4 0-6.1.8-8 2.4s-2.8 5.1-2.8 7.6v9.3c0 2.5 0 5.9 3.2 8.6a6.2 6.2 0 0 0 2.5 1.4H78.4a6.6 6.6 0 0 0 2.8-1.6c2.8-2.4 3.1-5.3 3.2-8.2v-10.4l.9-.5v-8.2H61.2v8.1l.8.5v10.4c.1 3 .4 5.9 3.2 8.3a6.6 6.6 0 0 0 2.8 1.6h-1.6v8.8l1 .7v14.9l-.9.6v8.9h27V252l.9-.6v-8.3a15.1 15.1 0 0 0 3 .2 15.1 15.1 0 0 0 3-.2c-.7 3.6-4.1 22-4.1 22v.6a4 4 0 0 1-.4 1.3l-.6.6-.3 1.2v7.6h44c3.1 0 6.3-.2 9-2.8s3.1-6.2 3.1-8.9v-10.9c0-2.2 0-6.4-3.5-9.1M125 266.5a.4.4 0 0 0-.1.3l-1.3.5v-.2l-1.3-.4a4.5 4.5 0 0 0-.3-1.1c0-.1-4-20.1-4.5-22.8h6.3v8.8l1.1.5a1 1 0 0 0 .1.4v14zm14.3-32.2l-.8.5v7.7h-10.7a7.6 7.6 0 0 0 3.7-1.6c1.9-1.6 3-4.1 3-7.4a8.5 8.5 0 0 0-2.1-5.9 8.1 8.1 0 0 0 1.7-5.4v-.3l.5.4a3 3 0 0 1 .5 1l.3.6 3.9 8v2.4zm39.3 32.4a4.5 4.5 0 0 0-.3-1.1l-4.6-23.1h-16.8l-4.2 22.6v.7a4.2 4.2 0 0 1-.4 1.2l-.6.6-.3 1.2v7.6H180v-9.3l-1.3-.4"/><path fill="#010101" d="M47.2 221.1h.8c1.6 0 2.1.8 2.1 2.4s-.5 2.6-2.1 2.6h-.8m0 4.8h.3c2.1.1 2.3 1.1 2.3 3a23.7 23.7 0 0 0 .4 6.6h8.2v-4.4c-.9-.3-.9-1.5-.9-2.4v-1.4c0-2.4-.8-3.5-3.2-4 2.8-.7 3.6-3 3.6-5.7a6 6 0 0 0-2.7-5.5c-1.6-1-4-1-5.9-1H38.8v4.4c.9.5.8 1.4.8 2.4v10.9c0 .9.1 1.9-.8 2.4v4.4H48v-4.4c-.9-.5-.8-1.5-.8-2.4V231zM74.1 216h8.8v4.4c-1 .5-.9 1.4-.9 2.4v9.9c-.1 2.5-.3 4.6-2.3 6.4s-4.3 1.8-6.5 1.8-4.7-.2-6.5-1.8-2.3-3.9-2.3-6.4v-9.9c0-1 .1-1.9-.8-2.4V216h9.2v4.4c-.9.5-.8 1.4-.8 2.4v11.1a1.5 1.5 0 1 0 3 0v-11.1c0-1 .1-1.9-.9-2.4m32.5 4.1h-7.4v-.5c0-1.1.3-3.2-1.4-3.2s-1.5 1.4-1.5 2.4v10.9a1.5 1.5 0 0 0 1.5 1.6c1.7 0 1.4-2.1 1.4-3.2v-1.1h-1.3v-4.8h8.7v11.7c-2.4 2.2-6 2.6-9.2 2.6s-4.7-.1-6.4-1.6-2.4-4.1-2.4-6.8v-9.3c0-2.2.3-4.3 2.1-5.7s4.2-2 6.4-2a15.5 15.5 0 0 1 9.5 2.9m14.5 2.7h.5c1.6 0 2.6.4 2.6 2.2s-.9 2.2-2.6 2.2h-.5m2.8 15c2.2 0 4.4-.1 6.1-1.5s2.1-3.5 2.1-5.5-1.1-5.4-4.2-5.8c2.7-.8 3.8-2.7 3.8-5.5s-.6-4.1-2.4-5.2-3.8-1-5.7-1h-11.1v4.4c.9.3 1 1.1 1 1.9v11.9c0 .8-.1 1.6-1 1.9v4.4zm-2.8-10.4h.7c1.8 0 2.5.7 2.5 2.6s-.7 2.7-2.5 2.7h-.7v-5.3zm16.4-7.3a4.5 4.5 0 0 0-1.6-2.4V216h8.8v3.2a8 8 0 0 0 1.4 4.5 8.8 8.8 0 0 0 1.4-4.5V216h7.6v4.4a3.3 3.3 0 0 0-1.3 1.7l-4.5 8.7v2.9c0 .9-.1 1.9.8 2.4v4.4h-9.2v-4.4a1.6 1.6 0 0 0 .7-1.1 5.3 5.3 0 0 0 .1-1.3v-2.4"/><path fill="#b22c1b" d="M25.9 253.8c0-1.1.2-3.2-1.7-3.2s-1.6 2.1-1.6 3.2v11.3c0 1.2-.3 3.2 1.6 3.2s1.7-2 1.7-3.2v-3.3h8.7v9.7c-2.3 1.9-6.1 3-9.8 3.1s-7.1-.7-8.9-2.4-2.4-5.4-2.4-8.6v-10.1c0-2.6.3-5.2 2.5-6.9s5.1-2.4 8.6-2.2a19.9 19.9 0 0 1 10 3.1v8.1h-8.7m26.3 5.1l-1.5-8.6-1.5 8.6m.5 13.3h-10v-5.2c1-.6 1.1-2.1 1.4-3.2l3.8-20.7h12.9L62 266c.2.9.5 2.5 1.6 2.8v5.2H52.1v-5.2a1.5 1.5 0 0 0 1.1-1.6 2.4 2.4 0 0 0-.2-.8h-4.3a3.1 3.1 0 0 0-.2.8 1.5 1.5 0 0 0 1.2 1.6v5.2zm34-16h.1v-5.1c0-1.1.1-2.1-1-2.8v-5.2h9.3v5.2c-1.1.7-1 1.7-1 2.8V274h-8.8l-5.4-13.1v5.1c0 1.1-.1 2.2.9 2.8v5.2h-9v-5.2c1.1-.6 1-1.7 1-2.8v-13.1c0-1.1.1-2.1-1-2.8v-5.2h9.8m28.3 15.8l1.4-8.6h.1l1.5 8.6m-2.5 8.1a1.5 1.5 0 0 1-1.2-1.6c0-.2.1-.5.1-.8h4.4a2.2 2.2 0 0 1 .1.8 1.5 1.5 0 0 1-1 1.6v5.2h11.4v-5.2c-1-.3-1.3-1.9-1.5-2.8l-4.2-21.1h-12.9l-3.9 20.6c-.2 1.2-.3 2.7-1.3 3.3v5.2h10v-5.2zm29-17.5h.7c2 0 2.6.7 2.6 2.8V265c0 2.1-.6 2.9-2.6 2.9h-.7m-10.2-23v5.2c1 .4 1.1 1.3 1.1 2.3v14.1c0 1-.1 1.9-1.1 2.3v5.2H139c2.7 0 5.3-.2 7.4-2.1s2.3-4.3 2.3-7.2v-10.9c0-2.7-.2-5.4-2.6-7.2s-4.9-1.7-7.4-1.7zM176 266l-4.2-21.1h-12.9l-3.9 20.6c-.2 1.2-.3 2.7-1.3 3.3v5.2h10v-5.2a1.5 1.5 0 0 1-1.2-1.6c0-.2.1-.5.1-.8h1.6c-.1-.1-.1-.2 0-.4a2.5 2.5 0 0 1 .5-.8 7.1 7.1 0 0 0 .6-2.6l-.8.4a8 8 0 0 1-1.6.3s.5-.4.2-.4l-1.6-.3a4 4 0 0 0-1.1 0c.4-.6 1.6-.7 1.5-1.1s-1.3-.6-1.8-.9a3.3 3.3 0 0 1-1.9-2.3c.4.2 1.1.6 1.4.4s-.2-.9-.5-1.6a3.3 3.3 0 0 1-.2-2.1 1.6 1.6 0 0 0 1.8 1c.4-.1.3-1.1.3-1.1l1.6 1.5c.6.5.9 0 .7-.5s-.4-1.2-.6-2.1-.1-.4-.1-.7.7.5 1.1.2 1.3-1.1.3-3.1c2.8 1 2.3 2.9 3 3.1s1-.5 1.2-1a22.1 22.1 0 0 1-.6 3.4c-.1.7.4.7.5.4s1.2-1.5 1.4-1.4.6 1.1.9.8a2.8 2.8 0 0 0 .9-1.3 3.5 3.5 0 0 1 .4 2.2c0 .4-.3 1.1-.3 1.6s.8.1 1.5-.1c-.5 2.5-3.7 3.1-3.5 3.9s1.1.3 1.9.3a3.8 3.8 0 0 1-2.7.9s-.1.1.2.4h-.5l-1.3-.4-1.4-.4a10.6 10.6 0 0 1-.6 3.8h2a2.2 2.2 0 0 1 .1.8 1.5 1.5 0 0 1-1 1.6v5.2h11.4v-5.2c-1-.3-1.3-1.9-1.5-2.8"/><path fill="#010101" d="M98.8 81.1a3.1 3.1 0 0 1-.2.8 18.1 18.1 0 0 1 3.3 2.6c2.8-7.8-3-17.9-11.1-23.3 4.7 3.2 9 13.8 8 19.9m20.6 73.7c-16.5-20-24.7-41-21.3-52.2-5.6 5.1-6.5 16.4-2.4 28.2 0 0-12.6-10.9-18.3-26.2a35.3 35.3 0 0 0 7.8-1.3 34.4 34.4 0 0 0 10.5-5.2c3.6-.8 6.2-2.5 7.1-5.1a5.3 5.3 0 0 0 .1-2.8 5.2 5.2 0 0 1-.2 1.1c-1.6 4.7-9.7 6.4-18.1 3.8S69.7 86.8 71.3 82s6.6-5.4 12.3-5.1c-8.3-1.4-15.4.6-16.9 5.1s4.8 12.1 14.8 15.1a21.3 21.3 0 0 0 4 1c-13.5 3.2-28.3-4.5-33.1-16.6-3.1-7.7-.4-14.9 5.1-20.5 3.9 2.4 8.3 3.1 11.5 1.4a8.6 8.6 0 0 0 1.8-1.4 5.3 5.3 0 0 1-1.5.8c-4.8 1.9-11.4-1.3-14.9-7.3S51.7 41.1 56.9 39c2.8-1.2 6.1-.6 9.1 1.2-4.3-3.4-9.5-4.6-13.3-2.4-5.5 3.2-5.4 11.7-.4 18.4a20.8 20.8 0 0 0 4.3 4.1A26 26 0 0 0 46.8 72l-5-4.4C43 76.2 29 91.1 18 68.2c-2.5 3.2-2.4 15.4 1.7 24.7s9.4 15.2 6 18.5-11.5-1.6-15.9-4.7c1.4 29.8 41.4 26.5 43.5 37.7.9 5.2-15.1 6.5-17.8 12.7 2.8-1.5 8.6-1.5 13.6.5s13.2 2.3 17.1 2.6-1.7 5-1.7 5 12.3-1.6 18.5-3.7a56.6 56.6 0 0 0 8.1-3.5 187.2 187.2 0 0 1-4.4 20.8c-2 7-7.6 14.1-8.5 17.8s0 5.8 1.9 7 2.8 5.2 4.7 4.6 5.7-11.1 8.2-24.2a214.3 214.3 0 0 0 3.1-26.7 85.4 85.4 0 0 0 15.7 5c2.1.5 5.3 1.3 8.9 1.9a47.4 47.4 0 0 0 16.9 8.6c-7.6-5.5-11.1-9.4-18.2-18"/><path fill="#010101" d="M85.3 80.7h-1.6c-.7-1.1-1.9-1.8-2.4-1.7a7.1 7.1 0 0 1 1.5 1.8c-3.6.1-6.6.7-8.5 1.9a29.8 29.8 0 0 1 9-1 7.6 7.6 0 0 1 .9 2.5 2.8 2.8 0 0 0 .1-2.5h1.6a9 9 0 0 1 .9 2.6c.4-.3.5-1.3.1-2.5h.7l1 .2a6.9 6.9 0 0 1 1 2.7c.4-.3.5-1.4.1-2.6l1.8.4a8.2 8.2 0 0 1 1 2.7 2.9 2.9 0 0 0 .1-2.5 31.1 31.1 0 0 1 7.9 3c-1.7-1.7-4.8-3.2-8.5-4.1a3.9 3.9 0 0 0-2.4-1.6l1.2 1.4-1.8-.3c-.8-1-1.8-1.6-2.3-1.5a7.7 7.7 0 0 1 1.2 1.3h-1.6c-.8-1.1-1.9-1.8-2.4-1.7a11.4 11.4 0 0 1 1.4 1.6M74.9 69.4a.9.9 0 0 1-.9 1 .9.9 0 0 1-1-1 1 1 0 0 1 1-1 1 1 0 0 1 .9 1"/><path fill="#010101" d="M73.8 53.8c.9 3.8.2 6.9-1.7 8.9s-1.1 7.6 1 9.5c-1.8-3.7-1.5-7.5.8-9.3a8 8 0 0 1 3.6.7 14.1 14.1 0 0 0-3.7-9.8"/></symbol><symbol id="facebook" viewBox="0 0 101.3 180.8"><path fill="#fff" d="M32.4 174.3c0-.4.1-.8.1-1.2V97.7H7.7c-1.1 0-1.1 0-1.1-1V68.8c0-.8.3-1 1.1-1h24.8v-.9c0-7.7 0-15.5.1-23.2a42.1 42.1 0 0 1 4-17.8A32.3 32.3 0 0 1 53.9 9.5a39.9 39.9 0 0 1 16.4-3.1c6.5.1 13 .4 19.4.6l3.7.4c.7 0 .9.3.9 1v25.1c0 .8-.2 1-1.1 1-4.9 0-9.8-.1-14.7 0a36.1 36.1 0 0 0-6.7.8c-4.2.9-6.7 3.7-7.5 7.9a22.2 22.2 0 0 0-.6 5.1c-.1 6.3 0 12.6 0 18.9a2.3 2.3 0 0 0 .1.7h28.3c1.1 0 1.2 0 1 1.1-.6 4.9-1.3 9.9-1.9 14.8s-1 8.3-1.5 12.5c-.2 1.5-.2 1.5-1.7 1.5H63.8v76.6z"/></symbol><symbol id="instagram" viewBox="0 0 190 192.4"><path fill="#fff" d="M131.7 186.8H57.8a51.5 51.5 0 0 1-51.3-51.4V56.7A51.6 51.6 0 0 1 57.8 5.3h73.9a51.6 51.6 0 0 1 51.4 51.4v78.7a51.5 51.5 0 0 1-51.4 51.4zm0-13.5a38.1 38.1 0 0 0 37.8-37.9V56.7a37.9 37.9 0 0 0-37.8-37.8H57.8A37.5 37.5 0 0 0 31.1 30 38 38 0 0 0 20 56.7v78.7a38.1 38.1 0 0 0 37.8 37.9z"/><path fill="#fff" d="M143.7 95.4A48.7 48.7 0 1 1 95 46.8a48.7 48.7 0 0 1 48.7 48.6zM94.8 63.6a31.9 31.9 0 1 0 31.8 31.8 31.9 31.9 0 0 0-31.8-31.8z"/><circle cx="144.5" cy="46" r="11.5" fill="#fff"/></symbol><symbol id="scotland" viewBox="0 0 262.7 252"><path fill="#004b85" d="M138.2 130.6c25.3-12.3 38.4-36.6 29.2-54.2s-37-22-62.3-9.7-38.4 36.6-29.3 54.2 37.1 22 62.4 9.7m-91-83.4s29.9-36.5 84.9-38.3c0 0-10.7 24.5-2.5 42.1A124.2 124.2 0 0 0 81 72.4c0-.1-10.7-21.3-33.8-25.2m90.1 2.4s-.1-9.5 18.5-19.5c0 0-5.1-17-10.6-20.8 4.2-.8 39.7 6 48.7 34.7 0 0 10.3-16 5.2-27.5 0 0 32 15.8 15.3 53.9 0 0-21.1-29.2-77.1-20.8M217.1 74s20.9-17 21.5-34.6c0 0 12.6 14.3-1.7 53.9 0 0 16.5-13.2 17.6-14.9 0 0 16 41.3-47.8 72.6 0 0 33-42.7 10.4-77M156 191.1s15.1 9.3 37.4 1.1c0 0 17-6.7 32.1.9 0 0-1-35.4 32.8-40.3 0 0-21.8-13.7-64.3 12.9 0 0-12.7 14-38 25.4M39.1 56.8S37.3 72.2 45.4 80c0 0 15.3-7.9 29.5-2.9 0 0-30.9 23.2-38.4 58.7 0 0-35.3-30.5 2.6-79m-3.5 83.5s-7.6 30 20.5 50.5c0 0-23.2 13.5-49-23.9 0 0 6.6 2.8 17.6 1.7 0 0-19.8-12.1-17.1-48.9 0 0 11 19.5 28 20.6"/><path fill="#004b85" d="M136.7 139.1c2.3-.7 11.3-5.4 14.3-7.5 3 6 12.5 28.4 3 52.7 0 0-54.9 27.2-91.7 2-32.7-22.5-18.2-59.8-8-75 0 0 3.9 45.2 19.9 52.9 0 0 8.8-2.8 8.8-19.2 0 0 22 35.7 55.5 32.4 0 0 8.4-16.1-1.8-38.3m29.4 38.9s21.2-36.6 10.9-69.9c0 0 15.4 9.4 18.1 6.6 0 0 8.8-40.1-17-57.2 0 0 63.6 12.1 30 77.9 0 0-9.9 23.1-42 42.6m52.3-154.9a10.3 10.3 0 1 1 10.3 10.2 10.1 10.1 0 0 1-10.3-10.2m10.3 8.5a8.2 8.2 0 0 0 8.2-8.5 8.2 8.2 0 0 0-8.2-8.4 8.2 8.2 0 0 0-8.3 8.4 8.3 8.3 0 0 0 8.3 8.5zm-2.1-2.6h-1.8V17.3h4.4c2.8 0 4.2 1 4.2 3.3s-1.3 3-3.1 3.2l3.4 5.2h-2l-3.1-5.1h-2V29zm2.1-6.6c1.5 0 2.8-.1 2.8-1.9s-1.3-1.7-2.5-1.7h-2.4v3.6h2.1"/><path fill="#004b85" fill-rule="evenodd" d="M97 222.8c0-5.2-3.5-7.1-12.4-7.1s-12.4 1.5-15.1 5.2a34.4 34.4 0 0 0-5.1 16.3 5.5 5.5 0 0 0 3.3 5.3c1.9 1 4.7 1.4 9.1 1.4 11 0 14.8-2.4 18-11.2 1.3-3.9 2.2-7.5 2.2-9.9m-14-1.3c1.9 0 2.8.9 2.8 2.6a34.1 34.1 0 0 1-2.5 9.3c-1.5 3.5-2.7 4.7-5 4.7s-2.9-.9-2.9-2.5 1-5.3 2.6-9.4 2.6-4.7 5-4.7m69 19.8a2.1 2.1 0 0 0-.4 1.1c0 .8.6 1.1 1.9 1.1h9l.3-1c-1-.2-1.5-.5-1.5-1.1a1.9 1.9 0 0 1 .4-1.1l1.8-3.2h8.8l.2 4.3c0 1.8.4 2.1 2.7 2.1h9.5l.3-1c-1.3-.2-1.9-.7-2-1.8l-1.3-22c0-1.3-.1-1.6-.3-1.9s-.9-.7-2.2-.7h-13.7l-.3 1.1c.9 0 1.4.4 1.4.9a4.4 4.4 0 0 1-.8 1.8m.4 12.4l5.6-10 .4 10h-6m56.6 9a5.1 5.1 0 0 0-.2.9c0 .9.8 1.3 2.6 1.3H241c3.4 0 5.1-.3 6.9-1.3s4-3.7 5.7-8.8 2.5-8.8 2.5-11.5-.5-3.4-1.7-4.4-2.5-1.4-6.4-1.4h-20.1l-.3 1.1c1.1.1 1.7.5 1.7 1.2a4.9 4.9 0 0 1-.3 1.2m12.7 2c2.2 0 2.9.6 2.9 2.2a29.8 29.8 0 0 1-1.2 6c-1.3 4.3-2.2 6.4-3.3 7.3s-1.2.7-3.8.7h-1.6l4.6-16.2h2.4"/><path fill="#004b85" d="M18.1 237.5h-3.9c-2.9 0-3.7-.3-3.7-1.6H9.1l-1.3 4.2a12.2 12.2 0 0 0-.3 1.7c0 .7.6 1.2 1.4 1.5a8.7 8.7 0 0 0 2.7.2h10.1c4.4 0 6.4-.7 8.3-2.8s3.4-6.4 3.4-9a3.6 3.6 0 0 0-1.4-3 16.9 16.9 0 0 0-3.8-1.8l-3.3-1.3c-1.7-.6-2.1-.9-2.1-1.8a2.1 2.1 0 0 1 1.4-2.1 6.8 6.8 0 0 1 3.1-.4h4.4c2.1 0 2.5-.3 3.1-2.1l.8-3.1H22.7a10.9 10.9 0 0 0-4.8.7 8.2 8.2 0 0 0-4.1 4.6 18.4 18.4 0 0 0-1.4 5.5c0 2 1.4 3.3 4.9 4.6l3.4 1.2c1.9.7 2.5 1.2 2.5 2.3a2.4 2.4 0 0 1-1.2 2c-.8.4-1.4.5-3.9.5m126.1-19.1a3.4 3.4 0 0 0 .1-.9c0-.9-.7-1.4-2.5-1.4h-9.9l-.3 1.1c1.1.1 1.6.5 1.6 1.2a3.5 3.5 0 0 1-.2 1.2l-6.2 21.7a3.7 3.7 0 0 0-.2.9c0 .9.7 1.3 2.4 1.3h15.6c2.5 0 3.1-.3 3.6-2.2l1.5-5.2h-1.5c-.5 1.4-1.2 1.7-4 1.7h-5.5l5.5-19.4m44.4 22.9a3.7 3.7 0 0 0-.2.9c0 .9.8 1.3 2.5 1.3h8.2l.3-1c-1.1-.2-1.6-.6-1.6-1.3a3.4 3.4 0 0 1 .2-1.1l3-10.4 5.7 12.1c.7 1.6.9 1.7 3 1.7h6.6l7.2-25.1a3.8 3.8 0 0 0 .1-1c0-.8-.7-1.3-2.5-1.3h-8.2l-.3 1.1c1.1.1 1.6.5 1.6 1.2a3.5 3.5 0 0 1-.2 1.2l-2.5 8.6-5-11c-.5-.9-.8-1.1-2.7-1.1h-10.1l-.3 1.1c1.1.1 1.6.5 1.6 1.2a3.5 3.5 0 0 1-.2 1.2l-6.2 21.7M60.1 221.6c2.2 0 2.7-.4 3.2-2.2l.9-3.3H51c-7.9 0-10.4 2.7-13.4 14.3a29.6 29.6 0 0 0-1.3 7.2c0 2.4.8 4.1 2.7 5s3.7 1.1 9.8 1.1 8.5-.1 9.7-.9a3.6 3.6 0 0 0 1.4-2.4l1.2-4.3h-1.3c-.6 1.3-1.3 1.6-4.1 1.6h-6a2.4 2.4 0 0 1-2-2.4 21.3 21.3 0 0 1 .9-4.3 61.2 61.2 0 0 1 2.2-6.8c1-2 1.8-2.5 4.3-2.5h5m42.5 19.6a5.1 5.1 0 0 0-.2.9c0 .9.8 1.3 2.5 1.3h10l.3-1c-1.1-.2-1.6-.6-1.6-1.3a3.5 3.5 0 0 1 .2-1.2l5.3-18.4h4.9c2.2 0 2.5-.2 3.1-2.4l.9-3.1h-22.7c-2.6 0-2.9.2-3.6 2.6l-1.2 4.3h1.4c.6-1.2 1.1-1.4 3.1-1.4h3.2l-5.6 19.7"/></symbol><symbol id="twitter" viewBox="0 0 198 172"><path fill="#fff" d="M192.4 24.1a76.6 76.6 0 0 1-22.4 6.1 38.1 38.1 0 0 0 17.1-21.5 80.8 80.8 0 0 1-24.8 9.5 39 39 0 0 0-66.4 35.5 110.5 110.5 0 0 1-80.4-40.8 39.6 39.6 0 0 0-5.3 19.6A39.1 39.1 0 0 0 27.6 65a40.6 40.6 0 0 1-17.7-4.8v.4a38.9 38.9 0 0 0 31.3 38.2 38.8 38.8 0 0 1-10.3 1.3 44.9 44.9 0 0 1-7.3-.6A39.1 39.1 0 0 0 60 126.6a78.4 78.4 0 0 1-48.5 16.7 72.6 72.6 0 0 1-9.3-.6A111.2 111.2 0 0 0 62 160.2c71.7 0 110.9-59.4 110.9-110.9 0-1.7 0-3.3-.1-5a80 80 0 0 0 19.6-20.2z"/></symbol><symbol id="wallabies" viewBox="0 0 263.3 253.3"><path fill="#007c66" fill-rule="evenodd" d="M254.3 216.2a2.7 2.7 0 0 0-1.9.8 2.8 2.8 0 0 0-.8 2 2.4 2.4 0 0 0 .8 1.9 2.5 2.5 0 0 0 1.9.9 2.5 2.5 0 0 0 2-.9 2.7 2.7 0 0 0 .8-1.9 2.4 2.4 0 0 0-.8-2 2.8 2.8 0 0 0-2-.8m0 .4a2.1 2.1 0 0 1 1.7.7 2.2 2.2 0 0 1 .7 1.7 2 2 0 0 1-.7 1.6 2.1 2.1 0 0 1-1.7.7 2.4 2.4 0 0 1-2.3-2.3 2.1 2.1 0 0 1 .7-1.7 2 2 0 0 1 1.6-.7zm-1.1.8v3.1h.7v-1.3h.5l.6 1.3h.7l-.7-1.4a.8.8 0 0 0 .7-.9c0-.5-.4-.8-1.3-.8zm.7.4h.4c.5 0 .7.1.7.5s-.2.5-.7.5h-.4v-1zm0 0"/><path fill="#007c66" d="M5.8 216.7h10.5v16.7l7.6-16.7h8.6l.4 16.7h.1l7.1-16.7h10.4l-13.8 27.4H26.1l-.5-15.2-7 15.2H8m58.6-8.7c-.7 3.6-4.5 4.4-7.7 4.4s-3.4-.9-3-2.3 1.2-2 3-2.1a67.6 67.6 0 0 0 7.9-.9m-8.4-5c.9-2.1 3.1-2.4 5.3-2.4s4.3.6 4 2-1 1.6-2.9 1.7l-8.2.4c-7.1.3-10.3 2.8-11.2 6.6-1.1 5.4 2.6 7.1 9 7.1s8.6-.9 11.1-2.9a15.5 15.5 0 0 0-.1 2.1h9.8a4.9 4.9 0 0 1-.1-3.3l2.1-10.1c1.3-6.2-2.1-8.4-11.8-8.4-5.1 0-8.7.4-11.2 1.4a9.7 9.7 0 0 0-5.4 5.8zm26.5-13.7h9.6l-6.1 28.3h-9.5m20.2-28.3h9.5l-6 28.3H93m35.3-8.7c-.8 3.6-4.5 4.4-7.8 4.4s-3.3-.9-3-2.3 1.2-2 3-2.1a70 70 0 0 0 8-.9m-8.5-5c.9-2.1 3.2-2.4 5.4-2.4s4.3.6 4 2-1 1.6-3 1.7l-8.1.4c-7.2.3-10.4 2.8-11.2 6.6-1.2 5.4 2.5 7.1 9 7.1s8.5-.9 11.1-2.9a5 5 0 0 0-.1 2.1h9.8a4.8 4.8 0 0 1-.2-3.3l2.1-10.1c1.4-6.2-2-8.4-11.8-8.4-5.1 0-8.6.4-11.2 1.4a9.3 9.3 0 0 0-5.3 5.8zm32.3 4.2c.6-2.9 2.6-4.7 6.3-4.7s4.7 2 4.2 4.7-2.6 4.8-6.3 4.8-4.9-1.8-4.2-4.8m-11.8 10.4h9.3l.5-2.3c1.3 2 3.7 3.1 8 3.1 6.2 0 12.6-3.4 14.3-11.2s-3.4-11.2-9.6-11.2c-3.9 0-6.8 1-8.9 3h-.1l2.1-9.7h-9.6l-6 28.3zm37.8-21h9.5l-4.4 21h-9.6m6-28.3h9.6l-1.1 5.2h-9.6l1.1-5.2zm19.6 15.2c1.1-2.6 3.2-3.7 6.5-3.7s5.2 1.4 4.9 3.7m-2.1 6.8c-1.3 1.3-2.8 1.8-5.3 1.8-4.2 0-5.3-2.3-5-3.8h21c2.4-10.4-3.7-13.5-13-13.5s-15.8 4-17.3 11.3 3.3 11.3 13.4 11.3A25.6 25.6 0 0 0 213 243a12.1 12.1 0 0 0 5.9-5.2zm20.7-2.1c-5.5-.5-6.6-2.7-5.8-6.4s6.1-7 15.4-7c6.5 0 13.4 1.2 12.4 7.1h-10.8a1.1 1.1 0 0 0-.5-1.3 5 5 0 0 0-2.7-.5c-2.9 0-3.5.6-3.7 1.4s.2 1.1 2.3 1.3l8.9.8c5.1.5 6.5 2.8 5.8 6.3-1.2 5.4-6.3 7.5-16.4 7.5s-13.8-2.1-13-7.3h11.3a1.4 1.4 0 0 0 .8 1.6 6.5 6.5 0 0 0 2.6.4c2.5 0 3.3-.6 3.5-1.6s0-1.2-1-1.3"/><path fill="#eeb310" d="M256.8 88.9c-2.8-7.9-19-11.8-34.4-6.2l-4.7 2c-6.8.6-13.6 1.7-20.2 2 8.7-16.2 2-26.1.4-28.2a1.4 1.4 0 0 0-1.1-.6c-35.3 1.7-51.2 11.3-63.4 24.8-6.1 6.7-10.2 14.4-13.5 22.5s-7.7 18.8-10.1 27.4C99.9 166.4 84.6 192.3 7.7 198a2 2 0 0 0-2 1.9 2 2 0 0 0 1.5 1.9h.3c78.6 14.2 105.7-35.6 114.3-39.6 32.2-14 36.9 15.4 4.3 29.4a1.1 1.1 0 0 0-.7 1.1 1.2 1.2 0 0 0 1.3 1.2c54-8.2 38.4-62.2-4.3-39.7 4.1-9.3 11-73.1 59.1-77.3 1.9-.1 4.4-.1 5.5 1.6s.3 3.2.1 4.4a21.8 21.8 0 0 1-2.3 5.7c-2.4 4.3-5.8 9.1-6.9 11.2a1.1 1.1 0 0 0-.1.5 1.3 1.3 0 0 0 1.2 1.3h.5A69 69 0 0 1 193 97c3.9-1 8-1.7 12-2.4-4.3 5.1-6.4 10.8-4.9 14.9 2.9 7.9 19.1 11.8 34.4 6.2s25.2-19 22.3-26.8M220 97.2a2 2 0 0 1-2.3-1.2l-1.3-2.3a2 2 0 0 1 .2-2.6c.7-.3 1.7.1 2.4 1.2l1.2 2.3a2 2 0 0 1-.2 2.6zm4.1-2.6a2 2 0 0 1-2.3-1.2l-1.2-2.3c-.6-1.1-.5-2.2.2-2.6a2 2 0 0 1 2.3 1.2l1.2 2.3c.7 1.1.5 2.2-.2 2.6zm4.2-2.6c-.7.3-1.7-.1-2.3-1.2l-1.3-2.3a2 2 0 0 1 .2-2.6c.7-.3 1.7.1 2.3 1.2l1.3 2.3a2 2 0 0 1-.2 2.6zm-22-47.5v1.9a.8.8 0 0 1-.8.8h-.3c-9.9-4.9-17.3-19.7-18.2-37.6a1.6 1.6 0 0 1 1.7-1.7h.7l2.3 1.1a74 74 0 0 1 18 12.8 74.6 74.6 0 0 1 18-12.2l4.6-2.1.8-.2a1.7 1.7 0 0 1 1.6 1.3c.8 3.4.4 8.5-1.4 13.8a33.7 33.7 0 0 1-3.8 7.6c.1 5.8-1.5 13.2-4.7 20.7s-7.4 13.7-11.5 17.7a2 2 0 0 1-1.3.6h-4.1a.8.8 0 0 1-.7-.8.6.6 0 0 1 .3-.6c2.7-1.8 4.6-3.6 4.7-7.2a34.8 34.8 0 0 1 8.1-20.3c2-2 2.5-6.2 2.5-9.7a5.3 5.3 0 0 0-.1-1.4 1.4 1.4 0 0 0-1.4-1.2l-.8.2c-2.9 2.2-6.8 2.8-10.8 2.8a15.1 15.1 0 0 1-7.8-2.3l-.7-.2a1.5 1.5 0 0 0-1.5 1.4.4.4 0 0 1 .1.3c.5 5.9 2.9 11 6.2 14a.5.5 0 0 1 .3.5zm-49.9 82.4a10.5 10.5 0 0 1-7.4-9.9 10.2 10.2 0 0 1 7.4-9.9 18.1 18.1 0 0 1 5.4-.7c25.7.5 70.5 40.3 9.9 76.7l-.6.2a1.2 1.2 0 0 1-1.2-1.3 1.1 1.1 0 0 1 .3-.8c22.9-27 18.2-36.9 13.4-42.7-7.5-9.3-17.2-9-27.2-11.6zm73 68.7c-7.5-.3-57.7-3.7-80 14.1-4.3 3.2-8.1 2.5-10-.1a6.1 6.1 0 0 1 1.6-8.5c20-20 80.1-12.4 88.4-11.2a3 3 0 0 1 2.7 2.9 2.8 2.8 0 0 1-2.7 2.8zm0 0"/></symbol><symbol id="form-error" viewBox="0 0 220.2 222.8"><circle cx="110.1" cy="111.5" r="105.6" fill="#e53838"/><path fill="#fff" d="M170.5 163.5l-16.3 10.9-12.9-15.4c-8.1-9.6-18.5-21.4-31.1-35.2h-.2c-12 12.7-22.2 24.1-30.8 34.3s-13.2 15.5-14 16.3l-14.9-10.3c1.1-1 6.5-6.4 16-16.2s20.5-21.2 32.7-34.3v-.2c-7.8-8.7-15.3-16.9-22.5-24.8L53.1 63.4l16-10.5Q78.6 64 89.2 76c7 8.1 14.3 16.4 21.8 24.9h.3l20-22.5c6.9-7.6 14.2-16.1 22-25.2l15.2 9.7-23.8 24.5-22.8 23.7v.2l33.7 36.2z"/></symbol></svg>