<svg xmlns="http://www.w3.org/2000/svg"><symbol id="all-blacks" viewBox="0 0 329.3 246.7"><path d="M154.8 44.1l-4.6 44.6 6.6-2.3 39.9 28.3c-1.3.8-2.7 1.5-4.1 2.2l-47.8-26.1-1.3-45 11.3-1.7m-23.1 3.8c-3.8.8-7.5 1.7-10.9 2.7l-.5 51.2 49.5 26.4 5.7-2.8-43-29.5-6.8 3.1 6-51.1m10.8-2l-9.8 1.8-.2 48.1 49.2 26.5 4.9-2.4-41.8-29.1-6.9 2.5 4.6-47.4m32.8-4.1l-9 1 2.1 39.7-6.6 2.2 3.4-41.8-9.4 1.1 1 42.4 46.4 24.9 4-2.1-38.6-26.7 43.8 23.9 3.9-2.2-36.5-25.6-6.7 2.4 2.2-39.2m10.5-1.1l-9.4 1 3.4 36.9 41.1 23 3.5-2.1L189.7 75l-5.8 2.1 1.9-36.4M64.7 77.5c-5.8 3.7-10.6 7.1-14 9.5l-1.4 61.1s-11.3 8.4-15.5 12.1-12 11.4-12 11.4v15s9.4-13.5 15.9-19.9 14.7-13.3 14.7-13.3l-1.5-2.3 52.1 24.6 5.8-5.6-45.2-31-7.1 5.9 8.2-67.5M79 68.8q-7.1 4-12.9 7.8l-2.5 62.5 52.9 23.9 6.1-5.2-44.4-30.1-7 5.4L79 68.8m117.4-29.1l-9.6.9 2.9 34.4 39.2 21.8 3.7-2.4-32.8-23-6.1 2.3 2.7-34m-76.7 11.2l-.8.2c-3.8 1.2-7.6 2.5-11.4 4l-1.2 54.3 50.9 25.1 6.1-3.1-43-29.6-7.4 3.8 6.8-54.7m-13.1 4.5c-4.4 1.8-8.8 3.8-13.1 5.8L92.3 118l-7.2 4.8 7.4-61.1c-4.3 2.1-8.6 4.4-12.6 6.6l-1.7 59.4 51.5 24.3 5.7-4.3-43.1-29.5 50.6 24.3q3-2 6-3.6l.4-.2-43-29.3-7.2 4.3 7.5-58.3m151.7-29.6c-2.7 1.2-5.4 2.3-8.3 3.3v19.7l24.4 5.5 3.8-6.4-18.4-5.5-4.8 3.3 3.3-19.9m-9.2 3.7c-2.9 1-5.8 2-8.9 2.9l-.2 21.8 28.1 9.1c1.2-1.5 2.3-3.1 3.3-4.6L250 48.8l-4.9 2.7 4-22M275.8 17c-2.2 1.3-4.7 2.7-7.3 4v14.6l-4.8 3.9 4.1-18.1c-2.7 1.4-5.6 2.7-8.6 4.1l.7 17 20.7 1.2c1.1-2.1 2.2-4.3 3.2-6.4l-15-1.9 16.9-2.2c.9-2 1.7-4 2.5-5.9l-11.5.8-3.5 3.3 2.6-14.4m-36.4 15.7l-4.1 1.2-5.3 1.2v24h-.1l31.7 12.1 3.2-3.7L240 54.2l-4.9 2.5 4.3-24M296 2.8s-1.3 1.2-4 3.3l-1.1 5.3-2.1 2.9 1.1-6.6-4.8 3.5-1.1 9-2.4 2.7 2.3-10.9-7.2 4.5v11.6l13.2-5 1.9-5.3-6.8 1.4 7.9-4.8A115.1 115.1 0 0 0 296 2.8m-88.8 35.7l-9.8 1.1 2.4 31.8 37.7 19.8 3.8-2.6-30.9-21.3-6.1 2.4 2.9-31.2m11.7-1.5l-10.8 1.4 2.3 28.9 35.1 18.3 2.6-2 1.4-1-29.6-19.2-5.3 2.2 4.3-28.6m10.2-1.7c-2.8.5-5.9 1.1-9.1 1.5v26.6h-.1l34.2 15.3 3.4-3.2-27.6-16.4-5.1 2.3 4.3-26.1"/><path fill-rule="evenodd" d="M316.2 195.6h.7l1.6 3.2h1.7l-1.9-3.3c1.3-.1 2.1-.6 2.1-2s-1.2-2.4-3.1-2.4h-2.7v7.7h1.6m0-4.6v-1.7h1.1c.5 0 1.3.1 1.3.8s-.3.9-1 .9zm1.1 7.8a6.8 6.8 0 0 0 7-7 7 7 0 1 0-14 0 6.8 6.8 0 0 0 7 7zm4.8-7a5 5 0 0 1-4.8 5.3c-2.6 0-4.7-2.2-4.7-5.3s2.1-5.3 4.7-5.3 4.8 2.1 4.8 5.3"/><path d="M238.6 214.9h-12.3v-3.1a2.6 2.6 0 0 0-2.7-2.9c-1.9 0-2.7 1.2-2.7 2.9v16.3c0 1.7.8 2.8 2.7 2.8a2.5 2.5 0 0 0 2.7-2.8v-3.7h12.3c0 7.5-2.4 13.6-15 13.6s-15.4-5.1-15.5-18.1 3.3-18 15.4-18 15.1 5.1 15.1 13m-108 22c8.2 0 10.6-4.4 10.6-8.7s-3.5-7.9-8.6-8.6c4.7-.9 7.9-2.9 7.9-8.4s-2.8-8.3-12.1-8.3h-19.9v2.1h.6l.9.4a2.3 2.3 0 0 1 1 1.8v29.5zm-4.7-13.9c1.5 0 2.6.9 2.6 3s-1 3.9-2.8 3.9h-2.5V223zm-2.7-13h2.5c1.5 0 2.5 1.4 2.5 3.1s-1 3.2-2.5 3.2h-2.5V210m23 26.9h23.3v-8.1h-10.8v-25.9h-15.1v2.1h.6l.9.4a2.2 2.2 0 0 1 1.1 2.1v29.2m-103 0h23.3v-8.1H55.7v-25.7H40.6v2.1h.6a2.5 2.5 0 0 1 .9.4 2.2 2.2 0 0 1 1.1 2.1v29.2m27 0h23.2v-8.1H82.7v-25.7H67.6v2.1h.6l.9.4a2.4 2.4 0 0 1 1.1 2.1v29.2m239.9-24.8c0-5.6-2.7-10.5-14.7-10.5-9.6 0-14.7 3.6-14.7 11.9 0 12.6 17.6 7.6 17.6 15.3a2.9 2.9 0 0 1-2.9 3 2.1 2.1 0 0 1-2.1-1.3 7.6 7.6 0 0 1-.5-3.3h-12.5c-.6 10 7.8 11.1 16 11.1s14.6-2.9 14.6-12c0-12.6-17.7-8.7-17.7-15.2a2.4 2.4 0 0 1 2.3-2.5c1.3 0 2 .3 2.4.9a5 5 0 0 1 .5 2.6h11.7m-118 13.1h-5l2.5-15 2.5 15zm-19.8 11.9h12.8l1-5.3h6.8l1 5.3h12.8l-8.6-34h-20.2v2.1h.6l.7.3c.6.4.8 1 .6 2.1l-7.5 29.4M24.8 225h-5l2.6-15 2.4 15zM5 236.9h12.9l.9-5.3h6.9l.9 5.3h12.8l-8.5-34H10.6v2.1h.6l.8.3a1.8 1.8 0 0 1 .5 2.1L5 236.9m235.7-34.1v2.1h.5l1 .4a2.1 2.1 0 0 1 1 2v29.3h12.5v-9.8l2.7-2.8 7 12.6h13.3l-12.1-21 12.6-13h-14.5l-8.9 9.5v-9.5h-15.1"/></symbol><symbol id="canada" viewBox="0 0 189.2 289.6"><path fill="#fff" d="M71.5 41a11.7 11.7 0 0 0 3.3-3.1A23 23 0 0 0 78 25.5c0-5.7-1.5-12.8-5.3-21-.1-.1-1-2.4-2-4.5 30 5.5 35.9 24 38.3 33 1 3.7 1.6 5.8 2.9 6.7a5.2 5.2 0 0 0 4.1.2c4-1.1 7.9-6.8 10.1-11.4 0 0 1.6-3.2 2.7-5.6a40.7 40.7 0 0 1 2.4 13.8v.4c-.1 9.9-3 18.7-5.5 26.4l-.5 1.4-.8 2.3c-1.2 3.2-2.1 5.8-2.1 7.6a2.4 2.4 0 0 0 .7 1.9 1.7 1.7 0 0 0 1.2.4c1-.2 1.9-1.6 3.2-3.8s4.3-7.4 8.6-10.7a22.6 22.6 0 0 1 11.3-4.2c-.6 2.1-1.8 6.2-1.8 9.3a5.2 5.2 0 0 0 .9 3.3c.8.7 2.2.7 4.1 0 4.6-1.7 12.5-8.4 14.4-22.4l3.1 4.6a43.3 43.3 0 0 1 6.5 23.3 79 79 0 0 1-2.9 19.5l-.2.7a21.2 21.2 0 0 0-.8 4.6 2.5 2.5 0 0 0 .8 2.2c1.5 1.3 3.7 1 4.6.8 4.4-.8 9.2-5.4 11.9-9.2v.6a46.5 46.5 0 0 1-4.6 20.9c-6.5 13.1-18.1 19.6-26.6 24.4l-2.3 1.3-2.1 1.2c-4.4 2.5-7.1 4-7.4 5.4v.4c.9 3.1 9.9 3.8 20.4 1.4l6.5-1.4c-.7 1.2-1.7 2.8-3.8 5.8-7.8 11.2-25.1 13.2-34.2 11.9l-2.4-.3 3.7 3.7c2.5 2.5 6.1 6.1 9.9 9.4-8.7-.7-18.8-4.7-24-8.6h-.2l-6.8-1.4-2.2-.5a102.8 102.8 0 0 1-12.9-3.8l-.9-.3v.9a223.9 223.9 0 0 1-3.1 24.3c-5 26-9 27.5-10.6 28s-4.7-1.1-6.2-3.4a6.7 6.7 0 0 0-1.2-1.8 7.9 7.9 0 0 1-3.7-7 14.5 14.5 0 0 1 .4-3.5 39.2 39.2 0 0 1 3.7-7.5c2-3.6 4.4-7.7 5.5-11.7s2.6-10.4 3.7-15.8l.2-1.3-1.2.5a88.3 88.3 0 0 1-13.7 3.7 125.2 125.2 0 0 1-15.3 1.6c3.6-3.1 4.4-3.9 4.4-4.4s0-.3-.1-.3-.2-.6-.9-.6-10.8-.9-15.8-2.9-12.2-1.5-18 1c2.2-9.2 7.7-11.4 12.2-13l1.9-.8 1.1-.5a15 15 0 0 0 4.6-2.3 1.4 1.4 0 0 0 .6-1.1.4.4 0 0 0-.1-.3c-.3-2-4.9-3.9-13-6.8l-.5-.2c-14-5-31.5-11.1-32.8-33.2-.1-1.1-.1-2.3-.1-3.3v-1.7c10.3 7.2 16.7 8.9 17.9 8.2s-.3-4.7-2.4-8.1C6.3 86.7 4.1 69 12 60.5c6.2 13.4 11.2 16.4 15.8 15.1 2.2-.7 9.4-4.3 6.6-17l6.2 5.4 1.1 1 .5-.7a32.8 32.8 0 0 1 6-7l.6-.5-2.4-2.7a21.4 21.4 0 0 1-4.6-12.8 28.3 28.3 0 0 1 .2-3 11.5 11.5 0 0 1 5.5-7.9c4.7-2.7 11.9-1.7 17 2.5a21.4 21.4 0 0 1 6 7.8l.3.7"/><path d="M96.6 215.6h-1.2v-4.5h-1.6v-.9h4.4v.9h-1.6m7.5 4.5h-1v-4.5h-.1l-1 4.5h-1.1l-1-4.5v4.5h-1.1v-5.4h1.7l1 4.3 1-4.3h1.6"/><path fill="#b22c1b" d="M185.5 101c-5.9 6.3-17.9 8.5-17.8.6.1-6.2 10.3-27.5-2-47a26.8 26.8 0 0 1-10.2 16c-4.7 3.7-16.1 8.2-11.3-9.7-6.1 1.1-10.9 6.4-17.8 17.6-1.7 2.8-7.6 1.8-6.2-5.1s10.5-26.6 7.7-43.1c-3.8 8.8-10.9 13.3-15.9 12.4-8.7-1.7-1.5-29.2-36.9-39.3 12.1 25.9 2 41.6-6.7 41l.2.3a24.1 24.1 0 0 1 .8 4.4 41.5 41.5 0 0 1 22 3.4c16.1 7.2 24.5 22.2 19.3 33.6a13.5 13.5 0 0 1-1.5 2.6c2.8 4 5 11.1 5.6 19.3a51.8 51.8 0 0 1-1.5 16 171.7 171.7 0 0 1 12.9 21.2 161.7 161.7 0 0 1 8 19.1c6.8 1 23.3-.2 31.7-10.9-9.3 2.1-21.9 2.8-23.6-3.4-2.7-9.8 37.2-13.7 43.2-49"/><path d="M57.1 60.3c1.1 3.5 5.7 5.9 5.7 5.9s.2-2.7 3.8-3.1a20.9 20.9 0 0 1-9.5-2.8m28.2 4.9c-.3.2-.6.6-.7.3a3.2 3.2 0 0 1-.3-.9c-.2-.5-.3-.8-.7-1a1.1 1.1 0 0 1-.1.8c-.1.3-.4.6-.7-.2s-.3.8-.3 1.1-.3.2-.4-.2a10.5 10.5 0 0 0-.5-1.9 1 1 0 0 1-.4.8c-.4.1-.6-1.1-2.2-1 .9.8.6 1.6.5 1.7s-.6.1-.6.1c.3.5.9 1.1 1 1.3s.2.5-.2.4l-1.1-.4s.2.4.1.5a.9.9 0 0 1-1.3-.1 2.4 2.4 0 0 0 .6 1.1c.3.3.7.5.6.7s-.5.1-.8.1a2 2 0 0 0 1.5.8c.3 0 1-.2 1.2.1s-.5.4-.6.8l.6-.2.9-.2c.2 0 0 .3 0 .3l.7-.5q.3-.1.3-.3a2.5 2.5 0 0 1 .2 1 2.6 2.6 0 0 1 0 .9c0 .2.1.3.2.3s.2.2.3.1 0-.6-.1-1.2a5.5 5.5 0 0 0-.4-1.2h.8l.8-.2c.1 0 .2 0 .2-.1h-.2s1-.3 1.2-1-.8.5-1 .2 1.2-1.3.9-2.7"/><path fill="#fff" d="M18.8 252.1c-4.5-.2-8.4.8-11 2.9s-3.5 6.2-3.5 9.4v11.2c0 3.6 0 7.6 3.4 10.8s6.6 3.4 11.4 3.2 9.2-1.5 12-3.9l1-.7v-14.2h-13v-1.6h13v-12.6l-1.2-.7a23.1 23.1 0 0 0-12.1-3.8"/><path fill="#fff" d="M61.5 277.4c0-.1-4.4-21.6-4.9-24.4h1v-9l-1-.4v-1.9a6.9 6.9 0 0 0-1.3-4.5 9.4 9.4 0 0 0 1.8-6.1c0-4.7-2.3-7-4.2-8.1s-5.2-1.4-7.4-1.4H31.4v8.7l.9.5v13l-.9.6v8.6h7c-.5 2.8-4.5 23.9-4.5 23.9v.7a4 4 0 0 1-.4 1.3l-.7.7-.3 1.3v8.1h30.7v-10l-1.4-.4a3.9 3.9 0 0 1-.3-1.2"/><path fill="#fff" d="M150.9 255a10.2 10.2 0 0 0-4.7-2h10v-8.6l-.9-.6v-3.1l4.5-8.8c.4-.8.4-.8.6-1l1.1-.7v-8.6h-25.7v5.6a7.1 7.1 0 0 0-3.3-4.1c-2.3-1.5-5-1.5-7.3-1.5h-14.6v8.9l1.1.5v12.6l-1.1.5v8.6h-7a12.9 12.9 0 0 0 4.9-2.7l.9-.8v-23.8l-1-.7a18.8 18.8 0 0 0-11.8-3.6c-3.6 0-6.5.9-8.5 2.7s-3.1 5.4-3.1 8.1v10c0 2.7 0 6.3 3.4 9.2a12.8 12.8 0 0 0 2.7 1.6H76.7a11.9 11.9 0 0 0 3-1.8c3-2.6 3.3-5.7 3.4-8.8v-11.2l.9-.6v-8.7H58.1v8.6l.8.6V242c.1 3.2.4 6.3 3.4 8.9a11.9 11.9 0 0 0 3 1.8h-1.6v9.4l1 .7a5.6 5.6 0 0 0 .1.7v14.6s-.1.6-.1.8l-.9.6v9.5h29v-25.5a5.6 5.6 0 0 0 .1-.7l.9-.6v-8.9a17.7 17.7 0 0 0 3.2.2l3.3-.2c-.7 3.9-4.4 23.6-4.4 23.6l-.2.7a4.2 4.2 0 0 1-.3 1.3l-.7.7-.3 1.3v8.1h47.2c3.4 0 6.8-.2 9.8-3s3.3-6.7 3.3-9.5v-11.7c0-2.4 0-6.9-3.8-9.8m-24.3 23.4v.3l-1.4.6v-.3l-1.4-.4a6.3 6.3 0 0 0-.3-1.2c0-.1-4.3-21.6-4.9-24.4h6.8v9.4l1.2.5a1 1 0 0 0 .1.4v15.1zm15.4-34.6l-.9.6v8.3h-11.5a8.2 8.2 0 0 0 4-1.9c2.1-1.6 3.2-4.3 3.2-7.8a9 9 0 0 0-2.3-6.4 8.5 8.5 0 0 0 1.9-5.8v-.3l.5.5c.2.1.4.6.5.9l.4.7s3.7 7.7 4.2 8.6v2.6zm42.2 34.8a3.9 3.9 0 0 1-.3-1.2l-5-24.7h-18l-4.5 24.2-.2.7a13 13 0 0 1-.3 1.3l-.7.7-.3 1.3v8.1h30.7v-10l-1.4-.4"/><path d="M43 229.6h.9c1.7 0 2.3.9 2.3 2.6s-.6 2.8-2.3 2.8H43m0 5.2h.4c2.2.1 2.4 1.1 2.4 3.2-.1 4.4.1 5.6.5 7h8.8v-4.6c-1.1-.4-1.1-1.7-1.1-2.6v-1.5c0-2.7-.8-3.8-3.4-4.4 3.1-.8 3.9-3.3 3.9-6.2s-.7-4.6-2.8-5.9-4.4-1-6.4-1H34v4.6c.9.6.8 1.6.8 2.6v11.8c0 1 .1 2-.8 2.6v4.6h9.9v-4.6c-1-.6-.9-1.6-.9-2.6v-3zm28.9-16h9.5v4.6c-1.1.6-1 1.6-1 2.6V242c0 2.8-.3 5-2.5 7s-4.6 2-6.9 2-5.1-.3-7-2-2.4-4.2-2.5-7v-10.6c0-1 .1-2-.9-2.6v-4.6h10v4.6c-1 .6-.9 1.6-.9 2.6v12c0 .5.1 1.9 1.6 1.9s1.6-1.4 1.6-1.9v-12c0-1 .1-2-1-2.6m34.9 4.5h-7.9v-.6c0-1.1.3-3.4-1.5-3.4s-1.7 1.5-1.7 2.6v11.7a1.7 1.7 0 0 0 1.7 1.7c1.8 0 1.5-2.3 1.5-3.4v-1.2h-1.4v-5.1h9.3v12.5c-2.6 2.3-6.5 2.8-9.8 2.8s-5-.1-6.9-1.7-2.6-4.4-2.6-7.3v-10c0-2.3.3-4.6 2.2-6.2s4.5-2 6.9-2a16.8 16.8 0 0 1 10.2 3m15.6 2.9h.6c1.7 0 2.7.5 2.7 2.4s-.9 2.3-2.7 2.3h-.6m3.1 16.1c2.3 0 4.6 0 6.5-1.5s2.2-3.8 2.2-5.9-1.1-5.8-4.5-6.2c2.9-.8 4.1-2.9 4.1-5.9s-.6-4.4-2.6-5.6-4.1-1-6.1-1h-11.9v4.6c.9.4 1 1.2 1 2.1v12.8c0 .9-.1 1.7-1 2.1v4.6zm-3.1-11.1h.7c2 0 2.7.8 2.7 2.8s-.7 2.9-2.7 2.9h-.7v-5.7zm17.6-7.8a6.1 6.1 0 0 0-1.6-2.7v-4.6h9.3v3.4a9.1 9.1 0 0 0 1.5 4.8 8.3 8.3 0 0 0 1.5-4.8v-3.4h8.3v4.6a4.7 4.7 0 0 0-1.5 1.9l-4.8 9.4v3.1c0 1-.1 2 .9 2.6v4.6h-10v-4.6a2.2 2.2 0 0 0 .9-1.2 6.5 6.5 0 0 0 0-1.4v-2.6"/><path fill="#b22c1b" d="M20.1 264.8c0-1.3.3-3.5-1.8-3.5s-1.7 2.2-1.7 3.5v12.1c0 1.2-.3 3.4 1.7 3.4s1.8-2.2 1.8-3.4v-3.6h9.4v10.5c-2.5 2-6.5 3.2-10.5 3.3s-7.7-.8-9.6-2.6-2.6-5.8-2.6-9.2v-10.9c0-2.8.4-5.5 2.7-7.4s5.5-2.5 9.2-2.4a21.8 21.8 0 0 1 10.8 3.4v8.7h-9.4m28.3 5.5l-1.6-9.3-1.6 9.3m.5 14.2H35v-5.5c1-.7 1.1-2.3 1.4-3.5l4.2-22.2h13.8l4.6 22.7c.1.9.5 2.7 1.6 3v5.6H48.3v-5.6a1.7 1.7 0 0 0 1.2-1.7 2.9 2.9 0 0 0-.2-.9h-4.7a2.8 2.8 0 0 0-.1.9 1.6 1.6 0 0 0 1.2 1.7v5.5zm36.6-17.1v-5.5c0-1.1.1-2.3-1-3v-5.6h9.9v5.6c-1.1.7-1 1.9-1 3v22.7h-9.4L75 272.4h-.1v5.4c0 1.2-.1 2.4 1 3.1v5.5h-9.7v-5.5c1.2-.7 1.1-1.9 1.1-3.1v-14c0-1.2.1-2.3-1.1-3v-5.6h10.6m30.4 17l1.5-9.3h.1l1.6 9.3m-2.7 8.7a1.6 1.6 0 0 1-1.3-1.7 2.9 2.9 0 0 1 .2-.9h4.7c0 .3.1.6.1.9a1.8 1.8 0 0 1-1.1 1.7v5.5h12.3v-5.5c-1.1-.3-1.5-2.1-1.7-3.1l-4.5-22.6h-13.9l-4.1 22.2c-.3 1.2-.4 2.8-1.5 3.5v5.5h10.8v-5.5zm31.1-18.9h.8c2.1 0 2.8.8 2.8 3.1v11.7c0 2.3-.7 3.1-2.8 3.1h-.8m-10.9-24.7v5.6c1.1.4 1.2 1.3 1.2 2.4v15.2c0 1.1-.1 2-1.2 2.5v5.6h13.7c3 0 5.8-.2 8-2.3s2.5-4.6 2.5-7.7v-11.7c0-3-.3-5.8-2.8-7.8s-5.3-1.8-8-1.8zm53.5 22.6l-4.6-22.6H163l-4.1 22.2c-.3 1.2-.4 2.8-1.5 3.5v5.5h10.8v-5.5a1.6 1.6 0 0 1-1.3-1.7c0-.3.1-.6.1-.9h1.7c-.1-.1-.1-.2 0-.4a9 9 0 0 1 .5-.9 6.1 6.1 0 0 0 .7-2.8l-.8.4a10.5 10.5 0 0 1-1.8.3s.6-.4.2-.4l-1.7-.3h-1.1c.4-.7 1.7-.7 1.6-1.2s-1.4-.6-2-.9a3.6 3.6 0 0 1-2-2.5c.4.3 1.2.7 1.4.4s-.2-.9-.5-1.7a3.9 3.9 0 0 1-.2-2.3 1.7 1.7 0 0 0 1.9 1.1c.5-.1.3-1.1.3-1.1l1.8 1.5c.6.6 1 0 .8-.5a19.7 19.7 0 0 1-.7-2.2c0-.3-.1-.5-.1-.8s.8.5 1.2.3 1.3-1.3.3-3.5c3 1.1 2.4 3.2 3.2 3.4s1.1-.5 1.3-1.1a28.3 28.3 0 0 1-.6 3.7c-.1.7.4.7.5.5s1.3-1.6 1.6-1.5.5 1.1.9.8a2.2 2.2 0 0 0 .9-1.4 3.2 3.2 0 0 1 .5 2.3c0 .5-.3 1.2-.3 1.7s.8.2 1.5 0c-.4 2.6-3.9 3.3-3.7 4.2s1.1.3 2 .3c-.9 1.1-2.9.9-2.9.9s0 .2.3.4h-.6l-1.4-.2-1.4-.5a15.4 15.4 0 0 1-.7 4.1h2.1a2.9 2.9 0 0 1 .2.9 1.8 1.8 0 0 1-1.1 1.7v5.5H183V281c-1-.3-1.4-2.1-1.6-3.1"/><path d="M98.5 79.2c-.1.3-.1.6-.2.8a17.4 17.4 0 0 1 3.5 2.9c3-8.4-3.3-19.3-11.9-25.1 5 3.5 9.6 14.9 8.6 21.4m22.1 79.2c-17.8-21.5-26.5-44-22.9-56.1-6 5.5-6.9 17.6-2.6 30.3 0 0-13.5-11.7-19.6-28.1a33.5 33.5 0 0 0 8.3-1.4 36.2 36.2 0 0 0 11.3-5.6c3.9-.9 6.7-2.7 7.6-5.4a6.5 6.5 0 0 0 .2-3.1 3.6 3.6 0 0 1-.2 1.1c-1.7 5.1-10.5 7-19.5 4.2s-16-9-14.3-14 7.1-5.9 13.2-5.6c-8.8-1.5-16.5.6-18.1 5.5s5.2 13 15.9 16.3a24.1 24.1 0 0 0 4.3 1c-14.5 3.4-30.4-4.9-35.6-17.8-3.3-8.4-.4-16 5.5-22.1 4.2 2.7 8.9 3.3 12.3 1.5a7.5 7.5 0 0 0 2-1.5 5.1 5.1 0 0 1-1.6.9c-5.2 2.1-12.3-1.4-16.1-7.9S47.9 36.2 53.5 34c2.9-1.3 6.5-.6 9.7 1.3-4.6-3.7-10.2-4.9-14.3-2.6-5.9 3.4-5.8 12.5-.4 19.8a21.1 21.1 0 0 0 4.6 4.4 28.2 28.2 0 0 0-10.5 12.6c-3.1-2.8-3.4-3.2-5.4-4.8 1.3 9.3-13.7 25.2-25.5.7-2.7 3.5-2.6 16.5 1.8 26.5s10 16.4 6.5 19.9-12.4-1.7-17.2-5.1c1.6 32 44.6 28.5 46.7 40.5 1.1 5.6-16.1 7-19 13.7 2.9-1.6 9.2-1.6 14.6.5s14.2 2.5 18.3 2.8-1.8 5.4-1.8 5.4 13.2-1.7 19.9-4a75.3 75.3 0 0 0 8.7-3.7 162 162 0 0 1-4.8 22.3c-2.1 7.5-8.1 15.2-9.1 19.1s0 6.2 2 7.5 3.1 5.7 5.1 4.9 6.1-11.9 8.8-26a199.5 199.5 0 0 0 3.3-28.6 99.1 99.1 0 0 0 16.9 5.4c2.3.5 5.7 1.4 9.5 2a53.2 53.2 0 0 0 18.2 9.3c-8.1-6-11.8-10.1-19.5-19.4"/><path d="M83.9 78.8h-1.6c-.9-1.3-2.1-2-2.7-1.9a6.2 6.2 0 0 1 1.6 1.9 20.1 20.1 0 0 0-9.1 2 34.4 34.4 0 0 1 9.7-1 13 13 0 0 1 1 2.7 3.1 3.1 0 0 0 0-2.7h1.8a9.5 9.5 0 0 1 1 2.8c.4-.3.5-1.5.1-2.7h.8l1 .2a8.1 8.1 0 0 1 1.1 2.9c.4-.3.5-1.5 0-2.8l2 .4a10.6 10.6 0 0 1 1.1 2.9 3 3 0 0 0 .1-2.6 30.9 30.9 0 0 1 8.5 3.2c-1.9-1.8-5.1-3.4-9.2-4.4-.8-1.2-2-1.9-2.6-1.8a10.3 10.3 0 0 1 1.4 1.5l-2-.4c-.8-1-1.9-1.7-2.4-1.6l1.2 1.5h-1.6c-.9-1.2-2.1-1.9-2.6-1.8a6.1 6.1 0 0 1 1.4 1.7M72.8 66.7a.9.9 0 0 1-1 1 1 1 0 0 1-1.1-1 1.1 1.1 0 0 1 1.1-1.1 1 1 0 0 1 1 1.1"/><path d="M71.6 49.9c1 4.1.2 7.4-1.8 9.6s-1.2 8.1 1.1 10.1c-2-3.9-1.7-8 .8-9.9a9.1 9.1 0 0 1 3.9.7s.5-5.2-4-10.5"/></symbol><symbol id="facebook" viewBox="0 0 101.3 180.8"><path d="M32.4 174.3c0-.4.1-.8.1-1.2V97.7H7.7c-1.1 0-1.1 0-1.1-1V68.8c0-.8.3-1 1.1-1h24.8v-.9c0-7.7 0-15.5.1-23.2a42.1 42.1 0 0 1 4-17.8A32.3 32.3 0 0 1 53.9 9.5a39.9 39.9 0 0 1 16.4-3.1c6.5.1 13 .4 19.4.6l3.7.4c.7 0 .9.3.9 1v25.1c0 .8-.2 1-1.1 1-4.9 0-9.8-.1-14.7 0a36.1 36.1 0 0 0-6.7.8c-4.2.9-6.7 3.7-7.5 7.9a22.2 22.2 0 0 0-.6 5.1c-.1 6.3 0 12.6 0 18.9a2.3 2.3 0 0 0 .1.7h28.3c1.1 0 1.2 0 1 1.1-.6 4.9-1.3 9.9-1.9 14.8s-1 8.3-1.5 12.5c-.2 1.5-.2 1.5-1.7 1.5H63.8v76.6z"/></symbol><symbol id="instagram" viewBox="0 0 190 192.4"><path d="M131.7 186.8H57.8a51.5 51.5 0 0 1-51.3-51.4V56.7A51.6 51.6 0 0 1 57.8 5.3h73.9a51.6 51.6 0 0 1 51.4 51.4v78.7a51.5 51.5 0 0 1-51.4 51.4zm0-13.5a38.1 38.1 0 0 0 37.8-37.9V56.7a37.9 37.9 0 0 0-37.8-37.8H57.8A37.5 37.5 0 0 0 31.1 30 38 38 0 0 0 20 56.7v78.7a38.1 38.1 0 0 0 37.8 37.9z"/><path d="M143.7 95.4A48.7 48.7 0 1 1 95 46.8a48.7 48.7 0 0 1 48.7 48.6zM94.8 63.6a31.9 31.9 0 1 0 31.8 31.8 31.9 31.9 0 0 0-31.8-31.8z"/><circle cx="144.5" cy="46" r="11.5"/></symbol><symbol id="scotland" viewBox="0 0 262.7 252"><path fill="#004b85" d="M138.2 130.6c25.3-12.3 38.4-36.6 29.2-54.2s-37-22-62.3-9.7-38.4 36.6-29.3 54.2 37.1 22 62.4 9.7m-91-83.4s29.9-36.5 84.9-38.3c0 0-10.7 24.5-2.5 42.1A124.2 124.2 0 0 0 81 72.4c0-.1-10.7-21.3-33.8-25.2m90.1 2.4s-.1-9.5 18.5-19.5c0 0-5.1-17-10.6-20.8 4.2-.8 39.7 6 48.7 34.7 0 0 10.3-16 5.2-27.5 0 0 32 15.8 15.3 53.9 0 0-21.1-29.2-77.1-20.8M217.1 74s20.9-17 21.5-34.6c0 0 12.6 14.3-1.7 53.9 0 0 16.5-13.2 17.6-14.9 0 0 16 41.3-47.8 72.6 0 0 33-42.7 10.4-77M156 191.1s15.1 9.3 37.4 1.1c0 0 17-6.7 32.1.9 0 0-1-35.4 32.8-40.3 0 0-21.8-13.7-64.3 12.9 0 0-12.7 14-38 25.4M39.1 56.8S37.3 72.2 45.4 80c0 0 15.3-7.9 29.5-2.9 0 0-30.9 23.2-38.4 58.7 0 0-35.3-30.5 2.6-79m-3.5 83.5s-7.6 30 20.5 50.5c0 0-23.2 13.5-49-23.9 0 0 6.6 2.8 17.6 1.7 0 0-19.8-12.1-17.1-48.9 0 0 11 19.5 28 20.6"/><path fill="#004b85" d="M136.7 139.1c2.3-.7 11.3-5.4 14.3-7.5 3 6 12.5 28.4 3 52.7 0 0-54.9 27.2-91.7 2-32.7-22.5-18.2-59.8-8-75 0 0 3.9 45.2 19.9 52.9 0 0 8.8-2.8 8.8-19.2 0 0 22 35.7 55.5 32.4 0 0 8.4-16.1-1.8-38.3m29.4 38.9s21.2-36.6 10.9-69.9c0 0 15.4 9.4 18.1 6.6 0 0 8.8-40.1-17-57.2 0 0 63.6 12.1 30 77.9 0 0-9.9 23.1-42 42.6m52.3-154.9a10.3 10.3 0 1 1 10.3 10.2 10.1 10.1 0 0 1-10.3-10.2m10.3 8.5a8.2 8.2 0 0 0 8.2-8.5 8.2 8.2 0 0 0-8.2-8.4 8.2 8.2 0 0 0-8.3 8.4 8.3 8.3 0 0 0 8.3 8.5zm-2.1-2.6h-1.8V17.3h4.4c2.8 0 4.2 1 4.2 3.3s-1.3 3-3.1 3.2l3.4 5.2h-2l-3.1-5.1h-2V29zm2.1-6.6c1.5 0 2.8-.1 2.8-1.9s-1.3-1.7-2.5-1.7h-2.4v3.6h2.1"/><path fill="#004b85" fill-rule="evenodd" d="M97 222.8c0-5.2-3.5-7.1-12.4-7.1s-12.4 1.5-15.1 5.2a34.4 34.4 0 0 0-5.1 16.3 5.5 5.5 0 0 0 3.3 5.3c1.9 1 4.7 1.4 9.1 1.4 11 0 14.8-2.4 18-11.2 1.3-3.9 2.2-7.5 2.2-9.9m-14-1.3c1.9 0 2.8.9 2.8 2.6a34.1 34.1 0 0 1-2.5 9.3c-1.5 3.5-2.7 4.7-5 4.7s-2.9-.9-2.9-2.5 1-5.3 2.6-9.4 2.6-4.7 5-4.7m69 19.8a2.1 2.1 0 0 0-.4 1.1c0 .8.6 1.1 1.9 1.1h9l.3-1c-1-.2-1.5-.5-1.5-1.1a1.9 1.9 0 0 1 .4-1.1l1.8-3.2h8.8l.2 4.3c0 1.8.4 2.1 2.7 2.1h9.5l.3-1c-1.3-.2-1.9-.7-2-1.8l-1.3-22c0-1.3-.1-1.6-.3-1.9s-.9-.7-2.2-.7h-13.7l-.3 1.1c.9 0 1.4.4 1.4.9a4.4 4.4 0 0 1-.8 1.8m.4 12.4l5.6-10 .4 10h-6m56.6 9a5.1 5.1 0 0 0-.2.9c0 .9.8 1.3 2.6 1.3H241c3.4 0 5.1-.3 6.9-1.3s4-3.7 5.7-8.8 2.5-8.8 2.5-11.5-.5-3.4-1.7-4.4-2.5-1.4-6.4-1.4h-20.1l-.3 1.1c1.1.1 1.7.5 1.7 1.2a4.9 4.9 0 0 1-.3 1.2m12.7 2c2.2 0 2.9.6 2.9 2.2a29.8 29.8 0 0 1-1.2 6c-1.3 4.3-2.2 6.4-3.3 7.3s-1.2.7-3.8.7h-1.6l4.6-16.2h2.4"/><path fill="#004b85" d="M18.1 237.5h-3.9c-2.9 0-3.7-.3-3.7-1.6H9.1l-1.3 4.2a12.2 12.2 0 0 0-.3 1.7c0 .7.6 1.2 1.4 1.5a8.7 8.7 0 0 0 2.7.2h10.1c4.4 0 6.4-.7 8.3-2.8s3.4-6.4 3.4-9a3.6 3.6 0 0 0-1.4-3 16.9 16.9 0 0 0-3.8-1.8l-3.3-1.3c-1.7-.6-2.1-.9-2.1-1.8a2.1 2.1 0 0 1 1.4-2.1 6.8 6.8 0 0 1 3.1-.4h4.4c2.1 0 2.5-.3 3.1-2.1l.8-3.1H22.7a10.9 10.9 0 0 0-4.8.7 8.2 8.2 0 0 0-4.1 4.6 18.4 18.4 0 0 0-1.4 5.5c0 2 1.4 3.3 4.9 4.6l3.4 1.2c1.9.7 2.5 1.2 2.5 2.3a2.4 2.4 0 0 1-1.2 2c-.8.4-1.4.5-3.9.5m126.1-19.1a3.4 3.4 0 0 0 .1-.9c0-.9-.7-1.4-2.5-1.4h-9.9l-.3 1.1c1.1.1 1.6.5 1.6 1.2a3.5 3.5 0 0 1-.2 1.2l-6.2 21.7a3.7 3.7 0 0 0-.2.9c0 .9.7 1.3 2.4 1.3h15.6c2.5 0 3.1-.3 3.6-2.2l1.5-5.2h-1.5c-.5 1.4-1.2 1.7-4 1.7h-5.5l5.5-19.4m44.4 22.9a3.7 3.7 0 0 0-.2.9c0 .9.8 1.3 2.5 1.3h8.2l.3-1c-1.1-.2-1.6-.6-1.6-1.3a3.4 3.4 0 0 1 .2-1.1l3-10.4 5.7 12.1c.7 1.6.9 1.7 3 1.7h6.6l7.2-25.1a3.8 3.8 0 0 0 .1-1c0-.8-.7-1.3-2.5-1.3h-8.2l-.3 1.1c1.1.1 1.6.5 1.6 1.2a3.5 3.5 0 0 1-.2 1.2l-2.5 8.6-5-11c-.5-.9-.8-1.1-2.7-1.1h-10.1l-.3 1.1c1.1.1 1.6.5 1.6 1.2a3.5 3.5 0 0 1-.2 1.2l-6.2 21.7M60.1 221.6c2.2 0 2.7-.4 3.2-2.2l.9-3.3H51c-7.9 0-10.4 2.7-13.4 14.3a29.6 29.6 0 0 0-1.3 7.2c0 2.4.8 4.1 2.7 5s3.7 1.1 9.8 1.1 8.5-.1 9.7-.9a3.6 3.6 0 0 0 1.4-2.4l1.2-4.3h-1.3c-.6 1.3-1.3 1.6-4.1 1.6h-6a2.4 2.4 0 0 1-2-2.4 21.3 21.3 0 0 1 .9-4.3 61.2 61.2 0 0 1 2.2-6.8c1-2 1.8-2.5 4.3-2.5h5m42.5 19.6a5.1 5.1 0 0 0-.2.9c0 .9.8 1.3 2.5 1.3h10l.3-1c-1.1-.2-1.6-.6-1.6-1.3a3.5 3.5 0 0 1 .2-1.2l5.3-18.4h4.9c2.2 0 2.5-.2 3.1-2.4l.9-3.1h-22.7c-2.6 0-2.9.2-3.6 2.6l-1.2 4.3h1.4c.6-1.2 1.1-1.4 3.1-1.4h3.2l-5.6 19.7"/></symbol><symbol id="wallabies" viewBox="0 0 263.3 253.3"><path fill="#007c66" fill-rule="evenodd" d="M254.3 216.2a2.7 2.7 0 0 0-1.9.8 2.8 2.8 0 0 0-.8 2 2.4 2.4 0 0 0 .8 1.9 2.5 2.5 0 0 0 1.9.9 2.5 2.5 0 0 0 2-.9 2.7 2.7 0 0 0 .8-1.9 2.4 2.4 0 0 0-.8-2 2.8 2.8 0 0 0-2-.8m0 .4a2.1 2.1 0 0 1 1.7.7 2.2 2.2 0 0 1 .7 1.7 2 2 0 0 1-.7 1.6 2.1 2.1 0 0 1-1.7.7 2.4 2.4 0 0 1-2.3-2.3 2.1 2.1 0 0 1 .7-1.7 2 2 0 0 1 1.6-.7zm-1.1.8v3.1h.7v-1.3h.5l.6 1.3h.7l-.7-1.4a.8.8 0 0 0 .7-.9c0-.5-.4-.8-1.3-.8zm.7.4h.4c.5 0 .7.1.7.5s-.2.5-.7.5h-.4v-1zm0 0"/><path fill="#007c66" d="M5.8 216.7h10.5v16.7l7.6-16.7h8.6l.4 16.7h.1l7.1-16.7h10.4l-13.8 27.4H26.1l-.5-15.2-7 15.2H8m58.6-8.7c-.7 3.6-4.5 4.4-7.7 4.4s-3.4-.9-3-2.3 1.2-2 3-2.1a67.6 67.6 0 0 0 7.9-.9m-8.4-5c.9-2.1 3.1-2.4 5.3-2.4s4.3.6 4 2-1 1.6-2.9 1.7l-8.2.4c-7.1.3-10.3 2.8-11.2 6.6-1.1 5.4 2.6 7.1 9 7.1s8.6-.9 11.1-2.9a15.5 15.5 0 0 0-.1 2.1h9.8a4.9 4.9 0 0 1-.1-3.3l2.1-10.1c1.3-6.2-2.1-8.4-11.8-8.4-5.1 0-8.7.4-11.2 1.4a9.7 9.7 0 0 0-5.4 5.8zm26.5-13.7h9.6l-6.1 28.3h-9.5m20.2-28.3h9.5l-6 28.3H93m35.3-8.7c-.8 3.6-4.5 4.4-7.8 4.4s-3.3-.9-3-2.3 1.2-2 3-2.1a70 70 0 0 0 8-.9m-8.5-5c.9-2.1 3.2-2.4 5.4-2.4s4.3.6 4 2-1 1.6-3 1.7l-8.1.4c-7.2.3-10.4 2.8-11.2 6.6-1.2 5.4 2.5 7.1 9 7.1s8.5-.9 11.1-2.9a5 5 0 0 0-.1 2.1h9.8a4.8 4.8 0 0 1-.2-3.3l2.1-10.1c1.4-6.2-2-8.4-11.8-8.4-5.1 0-8.6.4-11.2 1.4a9.3 9.3 0 0 0-5.3 5.8zm32.3 4.2c.6-2.9 2.6-4.7 6.3-4.7s4.7 2 4.2 4.7-2.6 4.8-6.3 4.8-4.9-1.8-4.2-4.8m-11.8 10.4h9.3l.5-2.3c1.3 2 3.7 3.1 8 3.1 6.2 0 12.6-3.4 14.3-11.2s-3.4-11.2-9.6-11.2c-3.9 0-6.8 1-8.9 3h-.1l2.1-9.7h-9.6l-6 28.3zm37.8-21h9.5l-4.4 21h-9.6m6-28.3h9.6l-1.1 5.2h-9.6l1.1-5.2zm19.6 15.2c1.1-2.6 3.2-3.7 6.5-3.7s5.2 1.4 4.9 3.7m-2.1 6.8c-1.3 1.3-2.8 1.8-5.3 1.8-4.2 0-5.3-2.3-5-3.8h21c2.4-10.4-3.7-13.5-13-13.5s-15.8 4-17.3 11.3 3.3 11.3 13.4 11.3A25.6 25.6 0 0 0 213 243a12.1 12.1 0 0 0 5.9-5.2zm20.7-2.1c-5.5-.5-6.6-2.7-5.8-6.4s6.1-7 15.4-7c6.5 0 13.4 1.2 12.4 7.1h-10.8a1.1 1.1 0 0 0-.5-1.3 5 5 0 0 0-2.7-.5c-2.9 0-3.5.6-3.7 1.4s.2 1.1 2.3 1.3l8.9.8c5.1.5 6.5 2.8 5.8 6.3-1.2 5.4-6.3 7.5-16.4 7.5s-13.8-2.1-13-7.3h11.3a1.4 1.4 0 0 0 .8 1.6 6.5 6.5 0 0 0 2.6.4c2.5 0 3.3-.6 3.5-1.6s0-1.2-1-1.3"/><path fill="#eeb310" d="M256.8 88.9c-2.8-7.9-19-11.8-34.4-6.2l-4.7 2c-6.8.6-13.6 1.7-20.2 2 8.7-16.2 2-26.1.4-28.2a1.4 1.4 0 0 0-1.1-.6c-35.3 1.7-51.2 11.3-63.4 24.8-6.1 6.7-10.2 14.4-13.5 22.5s-7.7 18.8-10.1 27.4C99.9 166.4 84.6 192.3 7.7 198a2 2 0 0 0-2 1.9 2 2 0 0 0 1.5 1.9h.3c78.6 14.2 105.7-35.6 114.3-39.6 32.2-14 36.9 15.4 4.3 29.4a1.1 1.1 0 0 0-.7 1.1 1.2 1.2 0 0 0 1.3 1.2c54-8.2 38.4-62.2-4.3-39.7 4.1-9.3 11-73.1 59.1-77.3 1.9-.1 4.4-.1 5.5 1.6s.3 3.2.1 4.4a21.8 21.8 0 0 1-2.3 5.7c-2.4 4.3-5.8 9.1-6.9 11.2a1.1 1.1 0 0 0-.1.5 1.3 1.3 0 0 0 1.2 1.3h.5A69 69 0 0 1 193 97c3.9-1 8-1.7 12-2.4-4.3 5.1-6.4 10.8-4.9 14.9 2.9 7.9 19.1 11.8 34.4 6.2s25.2-19 22.3-26.8M220 97.2a2 2 0 0 1-2.3-1.2l-1.3-2.3a2 2 0 0 1 .2-2.6c.7-.3 1.7.1 2.4 1.2l1.2 2.3a2 2 0 0 1-.2 2.6zm4.1-2.6a2 2 0 0 1-2.3-1.2l-1.2-2.3c-.6-1.1-.5-2.2.2-2.6a2 2 0 0 1 2.3 1.2l1.2 2.3c.7 1.1.5 2.2-.2 2.6zm4.2-2.6c-.7.3-1.7-.1-2.3-1.2l-1.3-2.3a2 2 0 0 1 .2-2.6c.7-.3 1.7.1 2.3 1.2l1.3 2.3a2 2 0 0 1-.2 2.6zm-22-47.5v1.9a.8.8 0 0 1-.8.8h-.3c-9.9-4.9-17.3-19.7-18.2-37.6a1.6 1.6 0 0 1 1.7-1.7h.7l2.3 1.1a74 74 0 0 1 18 12.8 74.6 74.6 0 0 1 18-12.2l4.6-2.1.8-.2a1.7 1.7 0 0 1 1.6 1.3c.8 3.4.4 8.5-1.4 13.8a33.7 33.7 0 0 1-3.8 7.6c.1 5.8-1.5 13.2-4.7 20.7s-7.4 13.7-11.5 17.7a2 2 0 0 1-1.3.6h-4.1a.8.8 0 0 1-.7-.8.6.6 0 0 1 .3-.6c2.7-1.8 4.6-3.6 4.7-7.2a34.8 34.8 0 0 1 8.1-20.3c2-2 2.5-6.2 2.5-9.7a5.3 5.3 0 0 0-.1-1.4 1.4 1.4 0 0 0-1.4-1.2l-.8.2c-2.9 2.2-6.8 2.8-10.8 2.8a15.1 15.1 0 0 1-7.8-2.3l-.7-.2a1.5 1.5 0 0 0-1.5 1.4.4.4 0 0 1 .1.3c.5 5.9 2.9 11 6.2 14a.5.5 0 0 1 .3.5zm-49.9 82.4a10.5 10.5 0 0 1-7.4-9.9 10.2 10.2 0 0 1 7.4-9.9 18.1 18.1 0 0 1 5.4-.7c25.7.5 70.5 40.3 9.9 76.7l-.6.2a1.2 1.2 0 0 1-1.2-1.3 1.1 1.1 0 0 1 .3-.8c22.9-27 18.2-36.9 13.4-42.7-7.5-9.3-17.2-9-27.2-11.6zm73 68.7c-7.5-.3-57.7-3.7-80 14.1-4.3 3.2-8.1 2.5-10-.1a6.1 6.1 0 0 1 1.6-8.5c20-20 80.1-12.4 88.4-11.2a3 3 0 0 1 2.7 2.9 2.8 2.8 0 0 1-2.7 2.8zm0 0"/></symbol><symbol id="twitter" viewBox="0 0 198 172"><path d="M192.4 24.1a76.6 76.6 0 0 1-22.4 6.1 38.1 38.1 0 0 0 17.1-21.5 80.8 80.8 0 0 1-24.8 9.5 39 39 0 0 0-66.4 35.5 110.5 110.5 0 0 1-80.4-40.8 39.6 39.6 0 0 0-5.3 19.6A39.1 39.1 0 0 0 27.6 65a40.6 40.6 0 0 1-17.7-4.8v.4a38.9 38.9 0 0 0 31.3 38.2 38.8 38.8 0 0 1-10.3 1.3 44.9 44.9 0 0 1-7.3-.6A39.1 39.1 0 0 0 60 126.6a78.4 78.4 0 0 1-48.5 16.7 72.6 72.6 0 0 1-9.3-.6A111.2 111.2 0 0 0 62 160.2c71.7 0 110.9-59.4 110.9-110.9 0-1.7 0-3.3-.1-5a80 80 0 0 0 19.6-20.2z"/></symbol></svg>