<svg xmlns="http://www.w3.org/2000/svg" width="2.6in" height="2.7in" viewBox="0 0 190 192.4"><path fill="#fff" d="M131.7 186.8H57.8a51.5 51.5 0 0 1-51.3-51.4V56.7A51.6 51.6 0 0 1 57.8 5.3h73.9a51.6 51.6 0 0 1 51.4 51.4v78.7a51.5 51.5 0 0 1-51.4 51.4zm0-13.5a38.1 38.1 0 0 0 37.8-37.9V56.7a37.9 37.9 0 0 0-37.8-37.8H57.8A37.5 37.5 0 0 0 31.1 30 38 38 0 0 0 20 56.7v78.7a38.1 38.1 0 0 0 37.8 37.9z"/><path fill="#fff" d="M143.7 95.4A48.7 48.7 0 1 1 95 46.8a48.7 48.7 0 0 1 48.7 48.6zM94.8 63.6a31.9 31.9 0 1 0 31.8 31.8 31.9 31.9 0 0 0-31.8-31.8z"/><circle cx="144.5" cy="46" r="11.5" fill="#fff"/></svg>