<svg xmlns="http://www.w3.org/2000/svg" viewBox="0 0 432 432" width="432" height="432"><path d="M109.8 184s10.7-46 99.3-50.3c0 0 76.8-1.6 98.6 48.2 0 0 22.6 65.2-90 76.6 0 0 57-24.1 67.8-57.1 1.6-5 1.6-17.2-1.8-21.2-15.1-18.1-70-59.8-173.9 3.8z"/><path d="M148.5 246.1s-33.4-13.3-40.6-43.8c0 0 20.1-35.5 73.6-35.5 0 0-56.2 22.2-56.2 37.8-.1-.1 3.4 31.3 23.2 41.5zm19 1.4s76.2 6.6 104.7-33.9c11-15.7 3.9-37.7-14.5-43.1-4.1-1.2-9-1.8-14.7-1.6 0 0 12.5 11.8 16.6 22.1 1.7 4.3.6 9.3-2.7 12.5-11.1 11-48.2 44-89.4 44z"/></svg>