<svg xmlns="http://www.w3.org/2000/svg" width="3in" height="2in" viewBox="0 0 212.7 141.3"><path fill="#fff" d="M8.5 58.6s10.7-46 99.3-50.3c0 0 76.8-1.6 98.6 48.2 0 0 22.5 65.2-90 76.6 0 0 57-24.1 67.8-57.1 1.7-5 1.6-17.2-1.8-21.2-15.1-18.1-70-59.8-173.9 3.8z"/><path fill="#fff" d="M47.1 120.7S13.7 107.4 6.6 76.9c0 0 20.1-35.5 73.6-35.5 0 0-56.3 22.3-56.3 37.8 0 0 3.4 31.4 23.2 41.5zm19.1 1.5s76.2 6.6 104.7-33.9c11-15.7 3.9-37.7-14.5-43.1a44.1 44.1 0 0 0-14.7-1.5s12.5 11.8 16.6 22.1a11.6 11.6 0 0 1-2.7 12.5c-11.1 10.8-48.3 43.9-89.4 43.9z"/></svg>