<?xml version="1.0" encoding="utf-8"?>
<!-- Generator: Adobe Illustrator 22.0.0, SVG Export Plug-In . SVG Version: 6.00 Build 0)  -->
<svg version="1.1" id="Ball" xmlns="http://www.w3.org/2000/svg" xmlns:xlink="http://www.w3.org/1999/xlink" x="0px" y="0px"
	 viewBox="0 0 432 432" style="enable-background:new 0 0 432 432;" xml:space="preserve">
<g>
	<path d="M109.8,184c0,0,10.7-46,99.3-50.3c0,0,76.8-1.6,98.6,48.2c0,0,22.6,65.2-90,76.6c0,0,57-24.1,67.8-57.1
		c1.6-5,1.6-17.2-1.8-21.2C268.6,162.1,213.7,120.4,109.8,184z"/>
	<path d="M148.5,246.1c0,0-33.4-13.3-40.6-43.8c0,0,20.1-35.5,73.6-35.5c0,0-56.2,22.2-56.2,37.8
		C125.2,204.5,128.7,235.9,148.5,246.1z"/>
	<path d="M167.5,247.5c0,0,76.2,6.6,104.7-33.9c11-15.7,3.9-37.7-14.5-43.1c-4.1-1.2-9-1.8-14.7-1.6c0,0,12.5,11.8,16.6,22.1
		c1.7,4.3,0.6,9.3-2.7,12.5C245.8,214.5,208.7,247.5,167.5,247.5z"/>
</g>
</svg>
