<svg xmlns="http://www.w3.org/2000/svg" width="3.6in" height="336" viewBox="0 0 262.7 252"><path fill="#004b85" d="M138.2 130.6c25.3-12.3 38.4-36.6 29.2-54.2s-37-22-62.3-9.7-38.4 36.6-29.3 54.2 37.1 22 62.4 9.7m-91-83.4s29.9-36.5 84.9-38.3c0 0-10.7 24.5-2.5 42.1A124.2 124.2 0 0 0 81 72.4c0-.1-10.7-21.3-33.8-25.2m90.1 2.4s-.1-9.5 18.5-19.5c0 0-5.1-17-10.6-20.8 4.2-.8 39.7 6 48.7 34.7 0 0 10.3-16 5.2-27.5 0 0 32 15.8 15.3 53.9 0 0-21.1-29.2-77.1-20.8M217.1 74s20.9-17 21.5-34.6c0 0 12.6 14.3-1.7 53.9 0 0 16.5-13.2 17.6-14.9 0 0 16 41.3-47.8 72.6 0 0 33-42.7 10.4-77M156 191.1s15.1 9.3 37.4 1.1c0 0 17-6.7 32.1.9 0 0-1-35.4 32.8-40.3 0 0-21.8-13.7-64.3 12.9 0 0-12.7 14-38 25.4M39.1 56.8S37.3 72.2 45.4 80c0 0 15.3-7.9 29.5-2.9 0 0-30.9 23.2-38.4 58.7 0 0-35.3-30.5 2.6-79m-3.5 83.5s-7.6 30 20.5 50.5c0 0-23.2 13.5-49-23.9 0 0 6.6 2.8 17.6 1.7 0 0-19.8-12.1-17.1-48.9 0 0 11 19.5 28 20.6"/><path fill="#004b85" d="M136.7 139.1c2.3-.7 11.3-5.4 14.3-7.5 3 6 12.5 28.4 3 52.7 0 0-54.9 27.2-91.7 2-32.7-22.5-18.2-59.8-8-75 0 0 3.9 45.2 19.9 52.9 0 0 8.8-2.8 8.8-19.2 0 0 22 35.7 55.5 32.4 0 0 8.4-16.1-1.8-38.3m29.4 38.9s21.2-36.6 10.9-69.9c0 0 15.4 9.4 18.1 6.6 0 0 8.8-40.1-17-57.2 0 0 63.6 12.1 30 77.9 0 0-9.9 23.1-42 42.6m52.3-154.9a10.3 10.3 0 1 1 10.3 10.2 10.1 10.1 0 0 1-10.3-10.2m10.3 8.5a8.2 8.2 0 0 0 8.2-8.5 8.2 8.2 0 0 0-8.2-8.4 8.2 8.2 0 0 0-8.3 8.4 8.3 8.3 0 0 0 8.3 8.5zm-2.1-2.6h-1.8V17.3h4.4c2.8 0 4.2 1 4.2 3.3s-1.3 3-3.1 3.2l3.4 5.2h-2l-3.1-5.1h-2V29zm2.1-6.6c1.5 0 2.8-.1 2.8-1.9s-1.3-1.7-2.5-1.7h-2.4v3.6h2.1"/><path fill="#004b85" fill-rule="evenodd" d="M97 222.8c0-5.2-3.5-7.1-12.4-7.1s-12.4 1.5-15.1 5.2a34.4 34.4 0 0 0-5.1 16.3 5.5 5.5 0 0 0 3.3 5.3c1.9 1 4.7 1.4 9.1 1.4 11 0 14.8-2.4 18-11.2 1.3-3.9 2.2-7.5 2.2-9.9m-14-1.3c1.9 0 2.8.9 2.8 2.6a34.1 34.1 0 0 1-2.5 9.3c-1.5 3.5-2.7 4.7-5 4.7s-2.9-.9-2.9-2.5 1-5.3 2.6-9.4 2.6-4.7 5-4.7m69 19.8a2.1 2.1 0 0 0-.4 1.1c0 .8.6 1.1 1.9 1.1h9l.3-1c-1-.2-1.5-.5-1.5-1.1a1.9 1.9 0 0 1 .4-1.1l1.8-3.2h8.8l.2 4.3c0 1.8.4 2.1 2.7 2.1h9.5l.3-1c-1.3-.2-1.9-.7-2-1.8l-1.3-22c0-1.3-.1-1.6-.3-1.9s-.9-.7-2.2-.7h-13.7l-.3 1.1c.9 0 1.4.4 1.4.9a4.4 4.4 0 0 1-.8 1.8m.4 12.4l5.6-10 .4 10h-6m56.6 9a5.1 5.1 0 0 0-.2.9c0 .9.8 1.3 2.6 1.3H241c3.4 0 5.1-.3 6.9-1.3s4-3.7 5.7-8.8 2.5-8.8 2.5-11.5-.5-3.4-1.7-4.4-2.5-1.4-6.4-1.4h-20.1l-.3 1.1c1.1.1 1.7.5 1.7 1.2a4.9 4.9 0 0 1-.3 1.2m12.7 2c2.2 0 2.9.6 2.9 2.2a29.8 29.8 0 0 1-1.2 6c-1.3 4.3-2.2 6.4-3.3 7.3s-1.2.7-3.8.7h-1.6l4.6-16.2h2.4"/><path fill="#004b85" d="M18.1 237.5h-3.9c-2.9 0-3.7-.3-3.7-1.6H9.1l-1.3 4.2a12.2 12.2 0 0 0-.3 1.7c0 .7.6 1.2 1.4 1.5a8.7 8.7 0 0 0 2.7.2h10.1c4.4 0 6.4-.7 8.3-2.8s3.4-6.4 3.4-9a3.6 3.6 0 0 0-1.4-3 16.9 16.9 0 0 0-3.8-1.8l-3.3-1.3c-1.7-.6-2.1-.9-2.1-1.8a2.1 2.1 0 0 1 1.4-2.1 6.8 6.8 0 0 1 3.1-.4h4.4c2.1 0 2.5-.3 3.1-2.1l.8-3.1H22.7a10.9 10.9 0 0 0-4.8.7 8.2 8.2 0 0 0-4.1 4.6 18.4 18.4 0 0 0-1.4 5.5c0 2 1.4 3.3 4.9 4.6l3.4 1.2c1.9.7 2.5 1.2 2.5 2.3a2.4 2.4 0 0 1-1.2 2c-.8.4-1.4.5-3.9.5m126.1-19.1a3.4 3.4 0 0 0 .1-.9c0-.9-.7-1.4-2.5-1.4h-9.9l-.3 1.1c1.1.1 1.6.5 1.6 1.2a3.5 3.5 0 0 1-.2 1.2l-6.2 21.7a3.7 3.7 0 0 0-.2.9c0 .9.7 1.3 2.4 1.3h15.6c2.5 0 3.1-.3 3.6-2.2l1.5-5.2h-1.5c-.5 1.4-1.2 1.7-4 1.7h-5.5l5.5-19.4m44.4 22.9a3.7 3.7 0 0 0-.2.9c0 .9.8 1.3 2.5 1.3h8.2l.3-1c-1.1-.2-1.6-.6-1.6-1.3a3.4 3.4 0 0 1 .2-1.1l3-10.4 5.7 12.1c.7 1.6.9 1.7 3 1.7h6.6l7.2-25.1a3.8 3.8 0 0 0 .1-1c0-.8-.7-1.3-2.5-1.3h-8.2l-.3 1.1c1.1.1 1.6.5 1.6 1.2a3.5 3.5 0 0 1-.2 1.2l-2.5 8.6-5-11c-.5-.9-.8-1.1-2.7-1.1h-10.1l-.3 1.1c1.1.1 1.6.5 1.6 1.2a3.5 3.5 0 0 1-.2 1.2l-6.2 21.7M60.1 221.6c2.2 0 2.7-.4 3.2-2.2l.9-3.3H51c-7.9 0-10.4 2.7-13.4 14.3a29.6 29.6 0 0 0-1.3 7.2c0 2.4.8 4.1 2.7 5s3.7 1.1 9.8 1.1 8.5-.1 9.7-.9a3.6 3.6 0 0 0 1.4-2.4l1.2-4.3h-1.3c-.6 1.3-1.3 1.6-4.1 1.6h-6a2.4 2.4 0 0 1-2-2.4 21.3 21.3 0 0 1 .9-4.3 61.2 61.2 0 0 1 2.2-6.8c1-2 1.8-2.5 4.3-2.5h5m42.5 19.6a5.1 5.1 0 0 0-.2.9c0 .9.8 1.3 2.5 1.3h10l.3-1c-1.1-.2-1.6-.6-1.6-1.3a3.5 3.5 0 0 1 .2-1.2l5.3-18.4h4.9c2.2 0 2.5-.2 3.1-2.4l.9-3.1h-22.7c-2.6 0-2.9.2-3.6 2.6l-1.2 4.3h1.4c.6-1.2 1.1-1.4 3.1-1.4h3.2l-5.6 19.7"/></svg>