<svg xmlns="http://www.w3.org/2000/svg" width="2.7in" height="2.4in" viewBox="0 0 198 172"><path d="M192.4 24.1a76.6 76.6 0 0 1-22.4 6.1 38.1 38.1 0 0 0 17.1-21.5 80.8 80.8 0 0 1-24.8 9.5 39 39 0 0 0-66.4 35.5 110.5 110.5 0 0 1-80.4-40.8 39.6 39.6 0 0 0-5.3 19.6A39.1 39.1 0 0 0 27.6 65a40.6 40.6 0 0 1-17.7-4.8v.4a38.9 38.9 0 0 0 31.3 38.2 38.8 38.8 0 0 1-10.3 1.3 44.9 44.9 0 0 1-7.3-.6A39.1 39.1 0 0 0 60 126.6a78.4 78.4 0 0 1-48.5 16.7 72.6 72.6 0 0 1-9.3-.6A111.2 111.2 0 0 0 62 160.2c71.7 0 110.9-59.4 110.9-110.9 0-1.7 0-3.3-.1-5a80 80 0 0 0 19.6-20.2z"/></svg>