<svg xmlns="http://www.w3.org/2000/svg" width="3.7in" height="336" viewBox="0 0 263.3 253.3"><path fill="#007c66" fill-rule="evenodd" d="M254.3 216.2a2.7 2.7 0 0 0-1.9.8 2.8 2.8 0 0 0-.8 2 2.4 2.4 0 0 0 .8 1.9 2.5 2.5 0 0 0 1.9.9 2.5 2.5 0 0 0 2-.9 2.7 2.7 0 0 0 .8-1.9 2.4 2.4 0 0 0-.8-2 2.8 2.8 0 0 0-2-.8m0 .4a2.1 2.1 0 0 1 1.7.7 2.2 2.2 0 0 1 .7 1.7 2 2 0 0 1-.7 1.6 2.1 2.1 0 0 1-1.7.7 2.4 2.4 0 0 1-2.3-2.3 2.1 2.1 0 0 1 .7-1.7 2 2 0 0 1 1.6-.7zm-1.1.8v3.1h.7v-1.3h.5l.6 1.3h.7l-.7-1.4a.8.8 0 0 0 .7-.9c0-.5-.4-.8-1.3-.8zm.7.4h.4c.5 0 .7.1.7.5s-.2.5-.7.5h-.4v-1zm0 0"/><path fill="#007c66" d="M5.8 216.7h10.5v16.7l7.6-16.7h8.6l.4 16.7h.1l7.1-16.7h10.4l-13.8 27.4H26.1l-.5-15.2-7 15.2H8m58.6-8.7c-.7 3.6-4.5 4.4-7.7 4.4s-3.4-.9-3-2.3 1.2-2 3-2.1a67.6 67.6 0 0 0 7.9-.9m-8.4-5c.9-2.1 3.1-2.4 5.3-2.4s4.3.6 4 2-1 1.6-2.9 1.7l-8.2.4c-7.1.3-10.3 2.8-11.2 6.6-1.1 5.4 2.6 7.1 9 7.1s8.6-.9 11.1-2.9a15.5 15.5 0 0 0-.1 2.1h9.8a4.9 4.9 0 0 1-.1-3.3l2.1-10.1c1.3-6.2-2.1-8.4-11.8-8.4-5.1 0-8.7.4-11.2 1.4a9.7 9.7 0 0 0-5.4 5.8zm26.5-13.7h9.6l-6.1 28.3h-9.5m20.2-28.3h9.5l-6 28.3H93m35.3-8.7c-.8 3.6-4.5 4.4-7.8 4.4s-3.3-.9-3-2.3 1.2-2 3-2.1a70 70 0 0 0 8-.9m-8.5-5c.9-2.1 3.2-2.4 5.4-2.4s4.3.6 4 2-1 1.6-3 1.7l-8.1.4c-7.2.3-10.4 2.8-11.2 6.6-1.2 5.4 2.5 7.1 9 7.1s8.5-.9 11.1-2.9a5 5 0 0 0-.1 2.1h9.8a4.8 4.8 0 0 1-.2-3.3l2.1-10.1c1.4-6.2-2-8.4-11.8-8.4-5.1 0-8.6.4-11.2 1.4a9.3 9.3 0 0 0-5.3 5.8zm32.3 4.2c.6-2.9 2.6-4.7 6.3-4.7s4.7 2 4.2 4.7-2.6 4.8-6.3 4.8-4.9-1.8-4.2-4.8m-11.8 10.4h9.3l.5-2.3c1.3 2 3.7 3.1 8 3.1 6.2 0 12.6-3.4 14.3-11.2s-3.4-11.2-9.6-11.2c-3.9 0-6.8 1-8.9 3h-.1l2.1-9.7h-9.6l-6 28.3zm37.8-21h9.5l-4.4 21h-9.6m6-28.3h9.6l-1.1 5.2h-9.6l1.1-5.2zm19.6 15.2c1.1-2.6 3.2-3.7 6.5-3.7s5.2 1.4 4.9 3.7m-2.1 6.8c-1.3 1.3-2.8 1.8-5.3 1.8-4.2 0-5.3-2.3-5-3.8h21c2.4-10.4-3.7-13.5-13-13.5s-15.8 4-17.3 11.3 3.3 11.3 13.4 11.3A25.6 25.6 0 0 0 213 243a12.1 12.1 0 0 0 5.9-5.2zm20.7-2.1c-5.5-.5-6.6-2.7-5.8-6.4s6.1-7 15.4-7c6.5 0 13.4 1.2 12.4 7.1h-10.8a1.1 1.1 0 0 0-.5-1.3 5 5 0 0 0-2.7-.5c-2.9 0-3.5.6-3.7 1.4s.2 1.1 2.3 1.3l8.9.8c5.1.5 6.5 2.8 5.8 6.3-1.2 5.4-6.3 7.5-16.4 7.5s-13.8-2.1-13-7.3h11.3a1.4 1.4 0 0 0 .8 1.6 6.5 6.5 0 0 0 2.6.4c2.5 0 3.3-.6 3.5-1.6s0-1.2-1-1.3"/><path fill="#eeb310" d="M256.8 88.9c-2.8-7.9-19-11.8-34.4-6.2l-4.7 2c-6.8.6-13.6 1.7-20.2 2 8.7-16.2 2-26.1.4-28.2a1.4 1.4 0 0 0-1.1-.6c-35.3 1.7-51.2 11.3-63.4 24.8-6.1 6.7-10.2 14.4-13.5 22.5s-7.7 18.8-10.1 27.4C99.9 166.4 84.6 192.3 7.7 198a2 2 0 0 0-2 1.9 2 2 0 0 0 1.5 1.9h.3c78.6 14.2 105.7-35.6 114.3-39.6 32.2-14 36.9 15.4 4.3 29.4a1.1 1.1 0 0 0-.7 1.1 1.2 1.2 0 0 0 1.3 1.2c54-8.2 38.4-62.2-4.3-39.7 4.1-9.3 11-73.1 59.1-77.3 1.9-.1 4.4-.1 5.5 1.6s.3 3.2.1 4.4a21.8 21.8 0 0 1-2.3 5.7c-2.4 4.3-5.8 9.1-6.9 11.2a1.1 1.1 0 0 0-.1.5 1.3 1.3 0 0 0 1.2 1.3h.5A69 69 0 0 1 193 97c3.9-1 8-1.7 12-2.4-4.3 5.1-6.4 10.8-4.9 14.9 2.9 7.9 19.1 11.8 34.4 6.2s25.2-19 22.3-26.8M220 97.2a2 2 0 0 1-2.3-1.2l-1.3-2.3a2 2 0 0 1 .2-2.6c.7-.3 1.7.1 2.4 1.2l1.2 2.3a2 2 0 0 1-.2 2.6zm4.1-2.6a2 2 0 0 1-2.3-1.2l-1.2-2.3c-.6-1.1-.5-2.2.2-2.6a2 2 0 0 1 2.3 1.2l1.2 2.3c.7 1.1.5 2.2-.2 2.6zm4.2-2.6c-.7.3-1.7-.1-2.3-1.2l-1.3-2.3a2 2 0 0 1 .2-2.6c.7-.3 1.7.1 2.3 1.2l1.3 2.3a2 2 0 0 1-.2 2.6zm-22-47.5v1.9a.8.8 0 0 1-.8.8h-.3c-9.9-4.9-17.3-19.7-18.2-37.6a1.6 1.6 0 0 1 1.7-1.7h.7l2.3 1.1a74 74 0 0 1 18 12.8 74.6 74.6 0 0 1 18-12.2l4.6-2.1.8-.2a1.7 1.7 0 0 1 1.6 1.3c.8 3.4.4 8.5-1.4 13.8a33.7 33.7 0 0 1-3.8 7.6c.1 5.8-1.5 13.2-4.7 20.7s-7.4 13.7-11.5 17.7a2 2 0 0 1-1.3.6h-4.1a.8.8 0 0 1-.7-.8.6.6 0 0 1 .3-.6c2.7-1.8 4.6-3.6 4.7-7.2a34.8 34.8 0 0 1 8.1-20.3c2-2 2.5-6.2 2.5-9.7a5.3 5.3 0 0 0-.1-1.4 1.4 1.4 0 0 0-1.4-1.2l-.8.2c-2.9 2.2-6.8 2.8-10.8 2.8a15.1 15.1 0 0 1-7.8-2.3l-.7-.2a1.5 1.5 0 0 0-1.5 1.4.4.4 0 0 1 .1.3c.5 5.9 2.9 11 6.2 14a.5.5 0 0 1 .3.5zm-49.9 82.4a10.5 10.5 0 0 1-7.4-9.9 10.2 10.2 0 0 1 7.4-9.9 18.1 18.1 0 0 1 5.4-.7c25.7.5 70.5 40.3 9.9 76.7l-.6.2a1.2 1.2 0 0 1-1.2-1.3 1.1 1.1 0 0 1 .3-.8c22.9-27 18.2-36.9 13.4-42.7-7.5-9.3-17.2-9-27.2-11.6zm73 68.7c-7.5-.3-57.7-3.7-80 14.1-4.3 3.2-8.1 2.5-10-.1a6.1 6.1 0 0 1 1.6-8.5c20-20 80.1-12.4 88.4-11.2a3 3 0 0 1 2.7 2.9 2.8 2.8 0 0 1-2.7 2.8zm0 0"/></svg>